<svg width="863" height="645" viewBox="0 0 863 645" fill="none" xmlns="http://www.w3.org/2000/svg">
  <g clip-path="url(#clip0_207_62)">
    <path d="M629.943 612.644H612.777L604.608 546.435H629.943V612.644Z" fill="#9E616A" />
    <path
      d="M639.003 642.385H626.693L624.495 630.763L618.868 642.385H586.219C584.654 642.385 583.13 641.885 581.869 640.958C580.609 640.03 579.678 638.724 579.212 637.23C578.746 635.736 578.77 634.132 579.281 632.653C579.791 631.173 580.761 629.896 582.049 629.007L608.121 611V599.25L635.545 600.887L639.003 642.385Z"
      fill="#2F2E41" />
    <path d="M731.923 590.981L718.148 601.224L672.085 552.969L692.415 537.851L731.923 590.981Z"
      fill="#9E616A" />
    <path
      d="M756.94 609.441L747.062 616.786L738.363 608.771L740.783 621.456L714.583 640.938C713.328 641.872 711.806 642.38 710.241 642.388C708.676 642.396 707.15 641.903 705.884 640.982C704.619 640.061 703.681 638.76 703.208 637.268C702.735 635.776 702.751 634.172 703.254 632.69L713.431 602.683L706.42 593.255L729.403 578.204L756.94 609.441Z"
      fill="#2F2E41" />
    <path
      d="M649.927 271.04C649.927 271.04 682.496 299.178 667.469 379.392L649.124 457.989L708.953 557.245L689.877 580.452L612.097 473.019L583.912 406.905L576.003 289.236L649.927 271.04Z"
      fill="#2F2E41" />
    <path
      d="M599.447 425.746L597.488 456.084L603.483 585.365L631.692 580.452L637.083 488.406L599.447 425.746Z"
      fill="#2F2E41" />
    <path d="M237.445 628.211L252.796 628.21L260.098 569.001L237.443 569.002L237.445 628.211Z"
      fill="#FFB6B6" />
    <path
      d="M233.53 623.199L237.85 623.199L254.719 616.339L263.76 623.198H263.762C268.871 623.198 273.771 625.228 277.384 628.841C280.997 632.454 283.027 637.354 283.027 642.463V643.089L233.531 643.091L233.53 623.199Z"
      fill="#2F2E41" />
    <path d="M296.932 618.538L311.905 621.918L332.071 565.772L309.972 560.782L296.932 618.538Z"
      fill="#FFB6B6" />
    <path
      d="M294.216 612.786L298.431 613.738L316.397 610.762L323.705 619.444L323.706 619.444C328.69 620.57 333.022 623.63 335.751 627.949C338.479 632.269 339.38 637.496 338.255 642.48L338.117 643.091L289.835 632.19L294.216 612.786Z"
      fill="#2F2E41" />
    <path
      d="M218.003 266.236C210.806 287.942 211.567 311.504 219.733 336.792L223.224 479.17C223.224 479.17 218.023 572.539 234.806 605.395H259.146L271.197 470.643L272.71 380.197L324.893 456.503L291.656 603.192L321.613 605.87L375.547 446.679L309.003 292.236L218.003 266.236Z"
      fill="#2F2E41" />
    <path
      d="M498.698 204.408C517.315 187.631 545.007 179.196 568.235 188.603C544.408 201.831 526.028 223.062 516.347 248.538C512.649 258.376 509.56 269.704 500.465 274.971C494.806 278.249 487.765 278.409 481.419 276.827C475.074 275.244 469.257 272.072 463.52 268.932L461.888 268.896C469.216 244.93 480.08 221.184 498.698 204.408Z"
      fill="#46436A" />
    <path
      d="M568.105 189.112C547.533 191.771 528.321 200.844 513.199 215.043C509.889 218.042 507.073 221.544 504.853 225.42C502.813 229.265 501.841 233.587 502.036 237.935C502.136 241.994 502.709 246.133 501.821 250.145C501.337 252.192 500.424 254.114 499.145 255.783C497.865 257.453 496.247 258.833 494.397 259.834C489.851 262.447 484.637 263.271 479.511 263.899C473.819 264.597 467.896 265.231 462.968 268.424C462.371 268.811 461.806 267.862 462.402 267.475C470.975 261.921 481.822 263.942 491.039 260.235C495.341 258.505 499.146 255.469 500.493 250.878C501.671 246.863 501.084 242.594 500.947 238.486C500.694 234.246 501.484 230.009 503.246 226.145C505.261 222.169 507.938 218.564 511.162 215.486C518.31 208.44 526.521 202.562 535.495 198.066C545.708 192.879 556.734 189.477 568.095 188.008C568.798 187.917 568.804 189.022 568.105 189.112Z"
      fill="white" fill-opacity="0.5" />
    <path
      d="M517.799 210.184C515.761 207.324 514.806 203.832 515.105 200.332C515.404 196.833 516.938 193.554 519.431 191.08C519.938 190.582 520.736 191.345 520.229 191.844C517.903 194.143 516.475 197.198 516.203 200.457C515.932 203.717 516.834 206.966 518.747 209.618C519.162 210.195 518.212 210.758 517.799 210.184Z"
      fill="white" fill-opacity="0.5" />
    <path
      d="M501.714 235.884C508.783 237.137 516.065 235.679 522.108 231.801C522.706 231.416 523.271 232.365 522.674 232.749C516.379 236.773 508.797 238.275 501.444 236.955C500.743 236.829 501.017 235.759 501.714 235.884Z"
      fill="white" fill-opacity="0.5" />
    <path
      d="M545.798 194.341C546.356 195.612 547.221 196.725 548.315 197.579C549.409 198.433 550.698 199.002 552.067 199.235C552.769 199.353 552.494 200.423 551.797 200.306C550.286 200.042 548.863 199.412 547.652 198.47C546.441 197.529 545.479 196.306 544.85 194.907C544.78 194.78 544.76 194.631 544.796 194.491C544.831 194.35 544.919 194.228 545.041 194.15C545.167 194.075 545.317 194.054 545.459 194.09C545.601 194.125 545.723 194.216 545.798 194.341Z"
      fill="white" fill-opacity="0.5" />
    <path
      d="M593.813 269.507C593.372 269.447 592.932 269.386 592.485 269.332C586.559 268.545 580.578 268.241 574.603 268.423C574.141 268.43 573.672 268.444 573.211 268.464C558.82 269.056 544.663 272.314 531.461 278.074C526.21 280.371 521.141 283.064 516.298 286.13C509.61 290.364 502.696 295.487 495.22 297.214C494.442 297.403 493.653 297.544 492.858 297.635L461.969 270.89C461.93 270.794 461.884 270.704 461.844 270.608L460.561 269.596C460.8 269.421 461.052 269.244 461.29 269.068C461.428 268.966 461.573 268.869 461.711 268.767C461.805 268.701 461.9 268.635 461.981 268.569C462.013 268.547 462.044 268.525 462.069 268.51C462.151 268.445 462.233 268.393 462.308 268.334C463.71 267.341 465.122 266.356 466.543 265.38C466.549 265.373 466.549 265.373 466.562 265.372C477.32 257.825 488.935 251.582 501.163 246.772C501.53 246.634 501.903 246.488 502.284 246.361C507.791 244.314 513.456 242.719 519.223 241.595C522.383 240.989 525.571 240.544 528.776 240.26C537.058 239.544 545.401 240.135 553.499 242.012C569.642 245.755 584.409 254.62 593.155 268.445C593.379 268.798 593.595 269.147 593.813 269.507Z"
      fill="#46436A" />
    <path
      d="M593.404 269.84C575.377 259.576 554.575 255.254 533.952 257.486C529.504 257.888 525.147 258.988 521.042 260.747C517.098 262.589 513.719 265.454 511.257 269.044C508.894 272.345 506.859 275.995 503.734 278.664C502.115 280.006 500.23 280.991 498.203 281.554C496.176 282.117 494.053 282.245 491.973 281.929C486.77 281.279 482.111 278.798 477.64 276.213C472.675 273.343 467.564 270.283 461.707 269.866C460.998 269.815 461.118 268.717 461.826 268.768C472.015 269.494 479.459 277.639 489.051 280.228C493.527 281.437 498.393 281.303 502.233 278.449C505.591 275.953 507.692 272.191 510.056 268.828C512.407 265.291 515.588 262.383 519.321 260.359C523.324 258.397 527.632 257.13 532.059 256.614C542.009 255.291 552.104 255.542 561.976 257.355C573.254 259.363 584.105 263.285 594.061 268.951C594.677 269.302 594.016 270.188 593.404 269.84Z"
      fill="white" fill-opacity="0.5" />
    <path
      d="M540.551 256.376C540.646 252.865 541.986 249.503 544.332 246.889C546.677 244.274 549.876 242.579 553.356 242.106C554.06 242.012 554.239 243.103 553.533 243.196C550.292 243.631 547.312 245.211 545.133 247.649C542.954 250.088 541.718 253.225 541.649 256.495C541.633 257.206 540.535 257.083 540.551 256.376Z"
      fill="white" fill-opacity="0.5" />
    <path
      d="M512.234 267.212C517.125 272.468 523.817 275.689 530.976 276.23C531.686 276.283 531.566 277.381 530.857 277.328C523.408 276.751 516.451 273.386 511.374 267.904C510.89 267.382 511.754 266.692 512.234 267.212Z"
      fill="white" fill-opacity="0.5" />
    <path
      d="M572.445 260.584C572.126 261.935 572.146 263.344 572.505 264.684C572.865 266.025 573.551 267.256 574.504 268.266C574.994 268.782 574.13 269.471 573.643 268.958C572.596 267.838 571.839 266.478 571.439 264.997C571.039 263.516 571.007 261.96 571.347 260.465C571.368 260.321 571.442 260.191 571.555 260.1C571.668 260.009 571.811 259.964 571.956 259.975C572.101 259.992 572.234 260.065 572.326 260.179C572.417 260.293 572.46 260.438 572.445 260.584Z"
      fill="white" fill-opacity="0.5" />
    <path
      d="M51.2732 627.136C49.8232 632.576 46.0132 637.106 41.4132 640.406C40.6632 640.946 39.8932 641.446 39.1132 641.916C38.8732 642.056 38.6332 642.206 38.3832 642.336C38.1132 642.496 37.8432 642.646 37.5732 642.786H15.9432C15.5532 641.996 15.1732 641.196 14.7932 640.406C5.52321 620.926 -0.986784 599.906 0.123216 578.496C0.563593 570.191 2.30827 562.008 5.29321 554.246C11.2332 538.776 22.0732 525.386 36.9832 518.646C37.3532 518.476 37.7432 518.306 38.1232 518.146C38.0032 518.576 37.8832 518.996 37.7632 519.426C36.1636 525.189 35.0333 531.071 34.3832 537.016C34.3232 537.476 34.2732 537.936 34.2332 538.406C32.8126 552.744 34.0741 567.22 37.9532 581.096C37.9632 581.126 37.9732 581.166 37.9832 581.196C38.8333 584.266 39.8199 587.289 40.9432 590.266C41.8232 592.616 42.7732 594.936 43.8132 597.216C48.1532 606.786 53.9732 616.986 51.2732 627.136Z"
      fill="#46436A" />
    <path
      d="M38.3932 518.596C38.1832 518.876 37.9732 519.146 37.7632 519.426C33.371 525.247 29.6413 531.539 26.6432 538.186C26.4832 538.516 26.3332 538.846 26.2032 539.186C22.0952 548.468 19.4569 558.333 18.3832 568.426C18.3716 568.495 18.3649 568.566 18.3632 568.636C18.1132 570.996 17.9632 573.376 17.9032 575.756C17.6809 580.217 18.1634 584.685 19.3332 588.996C20.3998 592.516 22.2689 595.741 24.7932 598.416C25.0432 598.686 25.2932 598.956 25.5632 599.216C25.7632 599.426 25.9832 599.636 26.1932 599.836C28.2132 601.766 30.4232 603.556 32.3232 605.626C33.1941 606.554 33.9805 607.558 34.6732 608.626C35.7787 610.416 36.4929 612.419 36.7686 614.505C37.0444 616.59 36.8756 618.71 36.2732 620.726C34.9132 625.786 31.8032 630.056 28.6232 634.126C27.0332 636.166 25.3932 638.226 23.9732 640.406C23.4533 641.186 22.9732 641.976 22.5333 642.786H21.2733C21.6933 641.976 22.1533 641.186 22.6533 640.406C26.3033 634.656 31.4933 629.716 34.1833 623.386C36.0033 619.116 36.5533 614.276 34.2533 610.086C33.5792 608.868 32.7635 607.733 31.8233 606.706C29.9933 604.636 27.8033 602.866 25.8133 600.996C25.3133 600.526 24.8233 600.046 24.3533 599.546C21.8615 597.014 19.9387 593.98 18.7133 590.646C17.3256 586.411 16.6695 581.971 16.7733 577.516C16.7733 574.676 16.9233 571.816 17.2033 568.976C17.2333 568.616 17.2733 568.246 17.3133 567.876C19.3583 550.004 26.15 533.006 36.9833 518.646C37.1833 518.366 37.3933 518.096 37.6033 517.826C38.0332 517.266 38.8232 518.046 38.3932 518.596Z"
      fill="white" fill-opacity="0.5" />
    <path
      d="M17.7169 569.07C14.2532 568.489 11.1091 566.695 8.84601 564.009C6.58296 561.323 5.34836 557.92 5.36267 554.408C5.36459 554.264 5.42201 554.128 5.52286 554.026C5.6237 553.924 5.7601 553.866 5.90329 553.862C6.04648 553.859 6.1853 553.912 6.2905 554.009C6.39569 554.106 6.45905 554.241 6.46723 554.384C6.44786 557.654 7.59821 560.824 9.71066 563.321C11.8231 565.817 14.7585 567.477 17.9871 568C18.6885 568.114 18.4143 569.184 17.7169 569.07Z"
      fill="white" fill-opacity="0.5" />
    <path
      d="M24.5156 598.617C30.4002 594.504 34.5183 588.324 36.0488 581.309C36.1998 580.614 37.2706 580.885 37.1198 581.579C35.5135 588.876 31.215 595.299 25.0819 599.565C24.497 599.972 23.9339 599.021 24.5156 598.617Z"
      fill="white" fill-opacity="0.5" />
    <path
      d="M26.3124 538.069C27.6056 538.573 29.0039 538.749 30.3817 538.579C31.7594 538.409 33.0735 537.9 34.2058 537.097C34.7852 536.684 35.3477 537.635 34.772 538.046C33.5169 538.927 32.0649 539.487 30.5431 539.678C29.0214 539.869 27.476 539.684 26.0422 539.14C25.9027 539.1 25.7837 539.008 25.7093 538.884C25.6349 538.759 25.6108 538.611 25.6418 538.469C25.6783 538.328 25.7692 538.206 25.8947 538.131C26.0203 538.056 26.1704 538.034 26.3124 538.069Z"
      fill="white" fill-opacity="0.5" />
    <path
      d="M113.413 557.266C113.063 557.536 112.703 557.806 112.353 558.086C107.605 561.719 103.161 565.733 99.0632 570.086C98.7432 570.416 98.4232 570.756 98.1132 571.096L98.1032 571.106C88.3872 581.653 80.7047 593.906 75.4432 607.246L75.4132 607.336C75.4032 607.366 75.3932 607.386 75.3832 607.416C73.2976 612.756 71.6162 618.244 70.3532 623.836C69.1332 629.296 68.1332 635.146 66.2232 640.406C65.9332 641.216 65.6132 642.016 65.2732 642.786H20.8132C20.9632 641.996 21.1232 641.196 21.2832 640.406C23.5448 628.819 27.0796 617.517 31.8232 606.706C31.9832 606.346 32.1432 605.986 32.3232 605.626C34.772 600.284 37.6515 595.151 40.9332 590.276L40.9339 590.272L40.936 590.269L40.9393 590.267L40.9432 590.266C42.7452 587.606 44.681 585.04 46.7432 582.576C52.0914 576.213 58.4088 570.732 65.4632 566.336C65.5032 566.306 65.5532 566.286 65.5932 566.256C79.6332 557.546 96.2732 553.396 112.183 556.986H112.193C112.603 557.076 113.003 557.166 113.413 557.266Z"
      fill="#46436A" />
    <path
      d="M113.363 557.796C113.023 557.886 112.683 557.986 112.353 558.086C105.345 560.088 98.5802 562.862 92.1832 566.356C91.8632 566.526 91.5432 566.706 91.2232 566.886C82.3828 571.82 74.3581 578.091 67.4332 585.476C67.4278 585.481 67.4243 585.488 67.4232 585.496C67.3432 585.576 67.2532 585.666 67.1832 585.746C65.5832 587.466 64.0432 589.256 62.5832 591.096C59.7273 594.527 57.4261 598.383 55.7632 602.526C54.4925 605.978 54.044 609.68 54.4532 613.336C54.4832 613.706 54.5332 614.066 54.5832 614.436C54.6232 614.726 54.6632 615.016 54.7132 615.316C55.3732 619.326 56.5132 623.346 56.1932 627.436C55.9985 629.532 55.3623 631.562 54.3265 633.394C53.2906 635.226 51.8786 636.819 50.1832 638.066C49.0308 638.957 47.7989 639.74 46.5032 640.406C44.6507 641.361 42.7204 642.157 40.7332 642.786H36.8032C37.3332 642.636 37.8532 642.486 38.3832 642.336C40.264 641.805 42.1107 641.161 43.9132 640.406C44.9429 639.975 45.9449 639.481 46.9132 638.926C50.9332 636.616 54.2833 633.076 54.9832 628.346C55.5932 624.206 54.4132 620.066 53.7132 616.016C53.5932 615.316 53.4832 614.626 53.4232 613.936C52.9458 610.429 53.2358 606.86 54.2732 603.476C55.7121 599.255 57.8632 595.311 60.6332 591.816C62.3468 589.54 64.1758 587.354 66.1132 585.266C66.3532 584.996 66.6032 584.726 66.8632 584.456C73.9338 577.018 82.0977 570.702 91.0732 565.726H91.0832C97.757 562.011 104.837 559.078 112.183 556.986H112.193C112.523 556.886 112.863 556.786 113.193 556.696C113.883 556.516 114.043 557.606 113.363 557.796Z"
      fill="white" fill-opacity="0.5" />
    <path
      d="M66.4676 585.645C64.0523 583.096 62.622 579.77 62.4322 576.263C62.2424 572.756 63.3055 569.296 65.4315 566.5C65.8636 565.936 66.7606 566.581 66.3279 567.146C64.3434 569.745 63.3535 572.969 63.5369 576.234C63.7203 579.5 65.065 582.592 67.3281 584.953C67.8193 585.467 66.956 586.156 66.4676 585.645Z"
      fill="white" fill-opacity="0.5" />
    <path
      d="M54.1071 613.33C61.2821 613.588 68.291 611.133 73.7363 606.454C74.2754 605.99 74.9672 606.851 74.4287 607.315C68.7531 612.173 61.4541 614.714 53.9882 614.428C53.2766 614.4 53.3993 613.302 54.1071 613.33Z"
      fill="white" fill-opacity="0.5" />
    <path
      d="M91.9957 566.067C92.7246 567.249 93.7356 568.23 94.9378 568.924C96.1399 569.619 97.4957 570.003 98.8832 570.044C99.5948 570.063 99.4713 571.161 98.7643 571.142C97.2315 571.09 95.7348 570.663 94.4049 569.899C93.075 569.135 91.9524 568.058 91.1352 566.76C91.0479 566.644 91.008 566.499 91.0236 566.355C91.0392 566.211 91.1091 566.078 91.2192 565.983C91.3336 565.892 91.4793 565.85 91.6247 565.866C91.7701 565.881 91.9034 565.954 91.9957 566.067Z"
      fill="white" fill-opacity="0.5" />
    <path
      d="M456.382 173.13C455.356 174.48 454.046 175.588 452.545 176.377C451.044 177.166 449.388 177.617 447.695 177.696C446.001 177.776 444.31 177.484 442.741 176.839C441.173 176.195 439.764 175.215 438.616 173.967L400.815 190.407L404.497 169.306L439.829 156.929C442.052 155.138 444.855 154.225 447.707 154.363C450.559 154.501 453.261 155.68 455.301 157.677C457.342 159.674 458.579 162.35 458.778 165.198C458.977 168.046 458.125 170.868 456.382 173.13Z"
      fill="#FFB8B8" />
    <path
      d="M431.157 179.718L343.36 218.826L343.171 218.759L243.104 183.1C235.651 179.205 229.968 172.607 227.22 164.659C224.472 156.71 224.867 148.012 228.323 140.344C230.238 136.108 233.03 132.326 236.513 129.246C239.996 126.166 244.091 123.859 248.53 122.477C252.969 121.094 257.65 120.667 262.266 121.224C266.882 121.781 271.327 123.309 275.31 125.708L349.778 170.567L421.99 161.208L431.157 179.718Z"
      fill="#46436A" />
    <path
      d="M862.703 643.596C862.704 643.752 862.673 643.907 862.614 644.052C862.554 644.197 862.466 644.328 862.356 644.438C862.245 644.549 862.114 644.637 861.969 644.696C861.825 644.756 861.67 644.786 861.513 644.786H1.22325C0.907644 644.786 0.604974 644.661 0.381805 644.437C0.158637 644.214 0.0332642 643.912 0.0332642 643.596C0.0332642 643.28 0.158637 642.978 0.381805 642.755C0.604974 642.531 0.907644 642.406 1.22325 642.406H861.513C861.67 642.406 861.825 642.436 861.969 642.496C862.114 642.555 862.245 642.643 862.356 642.754C862.466 642.864 862.554 642.995 862.614 643.14C862.673 643.285 862.704 643.44 862.703 643.596Z"
      fill="#5C5C5C" />
    <path
      d="M313.344 296.796L224.838 282.64C222.517 281.896 220.384 280.659 218.586 279.014C216.787 277.368 215.367 275.353 214.421 273.107C213.475 270.86 213.027 268.436 213.106 266C213.186 263.564 213.792 261.174 214.882 258.994L218.896 250.965L217.337 166.619C217.149 155.647 219.854 144.82 225.179 135.226C230.505 125.631 238.263 117.609 247.673 111.965L256.304 106.804L260.666 95.7277L300.886 96.7087L301.003 111.236L315.407 134.204L315.407 134.299L314.503 259.313L310.533 272.215L316.535 287.22L313.344 296.796Z"
      fill="#46436A" />
    <path
      d="M284.459 81.9541C304.642 81.9541 321.003 65.5927 321.003 45.41C321.003 25.2272 304.642 8.86584 284.459 8.86584C264.276 8.86584 247.915 25.2272 247.915 45.41C247.915 65.5927 264.276 81.9541 284.459 81.9541Z"
      fill="#FFB8B8" />
    <path
      d="M246.405 53.3765C245.315 48.7846 245.816 42.323 246.432 37.6995C248.047 25.5782 254.778 14.0547 265.005 7.229C266.944 5.75617 269.249 4.84045 271.67 4.58054C274.089 4.47954 276.712 5.77472 277.454 8.07954C278.064 6.55834 278.979 5.17821 280.142 4.02431C281.306 2.87042 282.694 1.96724 284.22 1.37054C287.286 0.195892 290.583 -0.24833 293.851 0.0730814C300.184 0.595121 306.258 2.82204 311.427 6.51751C316.597 10.213 320.67 15.2391 323.214 21.0626C324.19 23.3814 326.916 14.8163 328.153 17.0073C329.289 19.2846 331.272 21.0267 333.677 21.8607C336.1 22.5369 337.084 32.521 338.038 30.1929C338.778 31.9135 339.07 33.7933 338.888 35.6573C338.706 37.5213 338.055 39.3089 336.996 40.8536C335.937 42.3982 334.504 43.6498 332.831 44.4916C331.158 45.3334 329.299 45.7382 327.427 45.6682C324.961 45.5759 322.603 44.6687 320.165 44.2782C311.45 42.8817 302.205 49.2013 300.342 57.8287C299.675 55.3338 298.61 52.9629 297.187 50.8077C296.464 49.7358 295.496 48.8519 294.364 48.2294C293.231 47.607 291.966 47.264 290.673 47.2291C288.194 47.3219 286.014 48.943 284.406 50.832C282.797 52.7211 281.588 54.925 279.968 56.8039C275.212 62.3169 268.78 75.1736 262.003 74.2359C256.655 73.496 247.894 59.646 246.405 53.3765Z"
      fill="#2F2E41" />
    <path
      d="M505.364 214.541C505.62 212.875 505.277 211.172 504.397 209.734C503.518 208.297 502.157 207.217 500.557 206.687L402.144 173.91C401.2 173.594 400.201 173.48 399.211 173.573L374.544 175.906L360.39 177.248L334.271 179.717C332.694 179.867 331.212 180.537 330.057 181.621C328.902 182.705 328.139 184.142 327.888 185.706L314.627 268.544C314.376 270.16 314.683 271.813 315.498 273.23C316.314 274.648 317.588 275.744 319.111 276.34L418.551 314.724C419.018 314.905 419.503 315.036 419.998 315.113C420.718 315.229 421.452 315.235 422.173 315.129L486.429 305.606C487.944 305.386 489.349 304.684 490.434 303.603C491.519 302.523 492.226 301.121 492.452 299.606L505.364 214.541Z"
      fill="white" fill-opacity="0.5" />
    <path
      d="M321.365 270.503L420.805 308.885C420.95 308.943 421.108 308.961 421.262 308.939L485.509 299.417C485.7 299.391 485.876 299.303 486.013 299.168C486.149 299.032 486.237 298.856 486.264 298.665L499.184 213.598C499.213 213.391 499.17 213.179 499.06 213C498.951 212.821 498.783 212.686 498.585 212.617L497.923 212.393L400.165 179.847C400.121 179.831 400.075 179.82 400.028 179.814C399.952 179.8 399.875 179.796 399.798 179.802L339.634 185.495L334.859 185.943C334.663 185.964 334.48 186.048 334.336 186.183C334.193 186.318 334.097 186.497 334.065 186.691L320.806 269.525C320.773 269.728 320.811 269.935 320.913 270.113C321.015 270.291 321.174 270.428 321.365 270.503Z"
      fill="#6368C0" />
    <path
      d="M339.634 185.495L399.798 179.802C399.875 179.796 399.952 179.8 400.028 179.814C400.075 179.82 400.121 179.831 400.165 179.847L497.923 212.393L472.136 215.123L462.486 216.139L435.025 219.041C434.945 219.045 434.865 219.044 434.785 219.038C434.736 219.023 434.687 219.008 434.628 218.993L339.634 185.495Z"
      fill="#2F2E41" />
    <path
      d="M319.109 276.345L418.549 314.727C419.017 314.908 419.504 315.035 420 315.107C420.72 315.226 421.454 315.235 422.177 315.134L486.424 305.612C487.94 305.391 489.345 304.688 490.431 303.607C491.517 302.526 492.225 301.124 492.452 299.608L505.362 214.541C505.553 213.286 505.409 212.004 504.944 210.824C504.879 210.667 504.813 210.51 504.737 210.362C504.225 209.284 503.446 208.356 502.473 207.665C501.888 207.244 501.242 206.915 500.557 206.688L500.441 206.647L402.149 173.909C401.748 173.781 401.337 173.681 400.922 173.611C400.354 173.531 399.778 173.519 399.207 173.578L374.544 175.902L360.392 177.252L334.269 179.719C333.2 179.819 332.168 180.16 331.25 180.716C331.179 180.751 331.111 180.791 331.048 180.838C331.002 180.867 330.959 180.9 330.918 180.936C330.116 181.483 329.435 182.187 328.914 183.006C328.394 183.825 328.046 184.742 327.891 185.699L314.621 268.543C314.37 270.16 314.678 271.814 315.494 273.233C316.31 274.651 317.585 275.749 319.109 276.345ZM329.651 185.988C329.813 184.995 330.253 184.069 330.921 183.317C331.124 183.075 331.35 182.854 331.597 182.658C332.272 182.113 333.069 181.741 333.921 181.574C334.089 181.54 334.259 181.516 334.43 181.502L378.414 177.347L399.379 175.352C399.521 175.336 399.652 175.338 399.783 175.33C400.1 175.324 400.418 175.347 400.731 175.401C401.019 175.438 401.302 175.506 401.575 175.602L499.984 208.381C500.062 208.408 500.129 208.435 500.207 208.463C501.102 208.795 501.888 209.367 502.48 210.116C502.948 210.69 503.29 211.355 503.483 212.069C503.676 212.784 503.716 213.531 503.601 214.262L490.68 299.338C490.511 300.473 489.981 301.523 489.169 302.334C488.357 303.144 487.306 303.672 486.172 303.84L421.914 313.361C420.995 313.493 420.058 313.386 419.192 313.051L319.751 274.679C318.611 274.229 317.658 273.406 317.047 272.344C316.437 271.282 316.206 270.043 316.391 268.833L329.651 185.988Z"
      fill="#3F3D56" />
    <path
      d="M330.704 181.387C330.756 181.237 330.849 181.103 330.972 181.001C331.013 180.968 331.056 180.939 331.101 180.913C331.142 180.897 331.185 180.871 331.227 180.855C331.426 180.774 331.649 180.771 331.851 180.844L333.921 181.574L435.036 217.243L458.702 214.743L471.944 213.346L499.974 210.379L502.48 210.116L502.967 210.062C503.177 210.043 503.388 210.098 503.561 210.217C503.735 210.337 503.862 210.513 503.92 210.716C503.933 210.763 503.942 210.81 503.946 210.859C503.967 211.051 503.924 211.245 503.825 211.412C503.726 211.578 503.575 211.708 503.396 211.781C503.317 211.814 503.233 211.836 503.148 211.848L499.739 212.205L472.136 215.123L462.486 216.139L435.025 219.041C434.945 219.045 434.865 219.044 434.785 219.038C434.736 219.023 434.687 219.008 434.628 218.993L331.597 182.658L331.247 182.534C331.167 182.508 331.093 182.467 331.028 182.413C330.872 182.298 330.756 182.137 330.698 181.953C330.64 181.769 330.642 181.57 330.704 181.387Z"
      fill="#3F3D56" />
    <path
      d="M420.271 315.367C420.038 315.33 419.829 315.203 419.69 315.012C419.551 314.822 419.493 314.585 419.528 314.352L434.045 218.018C434.08 217.783 434.207 217.573 434.398 217.432C434.589 217.291 434.828 217.232 435.062 217.267L435.07 217.268C435.303 217.306 435.511 217.433 435.65 217.623C435.789 217.814 435.848 218.051 435.813 218.284L421.296 314.618C421.26 314.853 421.133 315.063 420.943 315.204C420.752 315.345 420.513 315.404 420.279 315.369L420.271 315.367Z"
      fill="#3F3D56" />
    <path
      d="M457.068 309.256L447.413 310.275L458.706 214.741C458.706 214.741 471.601 212.406 471.946 213.342C472.158 213.901 457.16 308.644 457.068 309.256Z"
      fill="#3F3D56" />
    <path d="M331.25 182.533L330.99 226.1L408.116 255.488L435.813 218.284L331.25 182.533Z"
      fill="#3F3D56" />
    <path
      d="M502.483 210.118C501.838 209.307 500.97 208.704 499.986 208.381L401.58 175.603C401.304 175.51 401.02 175.441 400.732 175.397C400.418 175.343 400.1 175.319 399.782 175.326L399.941 174.328L400.926 173.615L424.295 156.696L502.335 180.613L502.471 207.665L502.483 210.118Z"
      fill="#3F3D56" />
    <path
      d="M335.181 252.472C335.291 252.483 335.401 252.506 335.507 252.541L365.7 262.458C366.078 262.582 366.392 262.851 366.571 263.206C366.751 263.561 366.782 263.973 366.658 264.351C366.534 264.729 366.265 265.042 365.91 265.222C365.555 265.401 365.143 265.433 364.765 265.308L334.571 255.392C334.221 255.276 333.925 255.036 333.74 254.717C333.556 254.397 333.495 254.021 333.571 253.66C333.646 253.298 333.852 252.978 334.149 252.759C334.446 252.54 334.813 252.438 335.181 252.472Z"
      fill="white" fill-opacity="0.5" />
    <path
      d="M457.003 435.236C463.631 435.236 469.003 429.863 469.003 423.236C469.003 416.608 463.631 411.236 457.003 411.236C450.376 411.236 445.003 416.608 445.003 423.236C445.003 429.863 450.376 435.236 457.003 435.236Z"
      fill="#6368C0" fill-opacity="0.5" />
    <path
      d="M151.003 479.236C157.631 479.236 163.003 473.863 163.003 467.236C163.003 460.608 157.631 455.236 151.003 455.236C144.376 455.236 139.003 460.608 139.003 467.236C139.003 473.863 144.376 479.236 151.003 479.236Z"
      fill="#6368C0" fill-opacity="0.5" />
    <path
      d="M401.003 82.236C407.631 82.236 413.003 76.8634 413.003 70.236C413.003 63.6085 407.631 58.236 401.003 58.236C394.376 58.236 389.003 63.6085 389.003 70.236C389.003 76.8634 394.376 82.236 401.003 82.236Z"
      fill="#6368C0" fill-opacity="0.5" />
    <path
      d="M420.692 270.121C419.137 270.797 417.452 271.124 415.757 271.078C414.062 271.032 412.397 270.615 410.881 269.857C409.364 269.098 408.032 268.016 406.979 266.687C405.926 265.358 405.177 263.814 404.785 262.164L363.773 258.021L377.303 241.415L414.174 247.895C416.989 247.42 419.881 247.995 422.301 249.509C424.721 251.024 426.502 253.374 427.305 256.113C428.109 258.853 427.879 261.792 426.66 264.374C425.441 266.956 423.318 269.001 420.692 270.121Z"
      fill="#FFB8B8" />
    <path
      d="M395.467 263.534L299.758 254.715L299.627 254.565L229.776 174.528C225.179 167.485 223.448 158.952 224.938 150.674C226.428 142.397 231.025 135.003 237.789 130.005C241.532 127.246 245.816 125.312 250.36 124.328C254.904 123.345 259.605 123.335 264.153 124.3C268.701 125.264 272.994 127.181 276.748 129.924C280.502 132.667 283.632 136.174 285.933 140.214L328.955 215.758L396.521 242.905L395.467 263.534Z"
      fill="#46436A" />
    <path
      d="M635.69 109.617C633.313 92.1829 630.332 73.4651 618.036 60.8799C614.134 56.8866 609.465 53.7248 604.308 51.5851C599.151 49.4454 593.615 48.372 588.032 48.4298C582.449 48.4876 576.936 49.6753 571.825 51.9213C566.714 54.1673 562.11 57.4251 558.292 61.4982C549.341 71.047 545.389 84.455 545.027 97.5381C544.665 110.621 547.579 123.559 550.811 136.242C567.917 136.583 584.897 133.241 600.597 126.442C604.523 124.738 608.386 122.812 612.534 121.756C616.682 120.7 619.639 123.357 623.497 125.209L625.615 121.154C627.349 124.38 632.717 123.424 634.665 120.321C636.612 117.219 636.185 113.246 635.69 109.617Z"
      fill="#2F2E41" />
    <path
      d="M567.884 206.925L498.008 208.42C496.935 206.565 495.346 205.062 493.434 204.094C491.522 203.125 489.37 202.733 487.24 202.966C485.11 203.198 483.093 204.045 481.435 205.402C479.777 206.76 478.549 208.57 477.901 210.613C477.254 212.656 477.213 214.842 477.786 216.908C478.358 218.973 479.518 220.827 481.125 222.245C482.732 223.662 484.716 224.582 486.837 224.893C488.957 225.204 491.122 224.891 493.068 223.994C502.335 224.52 574.84 234.811 579.165 228.179C583.556 221.448 606.99 197.693 606.99 197.693L588.977 172.049L567.884 206.925Z"
      fill="#9E616A" />
    <path
      d="M584.911 126.865C603.043 126.865 617.741 112.167 617.741 94.0352C617.741 75.9036 603.043 61.2051 584.911 61.2051C566.779 61.2051 552.081 75.9036 552.081 94.0352C552.081 112.167 566.779 126.865 584.911 126.865Z"
      fill="#9E616A" />
    <path
      d="M637.494 157.204C633.625 149.504 631.745 139.992 623.497 137.496C617.927 135.81 595.4 138.336 590.324 141.181C581.88 145.915 589.532 154.784 584.55 163.084C579.135 172.106 564.418 190.213 559.003 199.236C555.28 205.439 567.82 223.645 565.807 230.594C563.795 237.542 563.698 245.341 567.127 251.711C570.196 257.413 565.755 262.456 568.842 268.148C572.052 274.068 575.991 296.201 573.003 302.236L571.003 308.236C590.85 309.402 607.538 285.692 627.261 283.194C632.16 282.574 637.247 281.763 641.284 278.92C647.23 274.731 649.581 267.131 651.05 260.007C658.121 225.186 653.349 189.001 637.494 157.204Z"
      fill="#3F3D56" />
    <path
      d="M667.25 238.505C664.485 230.96 659.48 197.969 659.48 197.969L628.156 197.05L643.471 234.822L601.68 293.325C601.68 293.325 601.758 293.454 601.899 293.683C599.701 293.33 597.449 293.649 595.436 294.598C593.423 295.547 591.743 297.081 590.617 299C589.49 300.919 588.969 303.133 589.122 305.353C589.274 307.573 590.093 309.696 591.472 311.442C592.851 313.189 594.725 314.479 596.848 315.143C598.972 315.808 601.247 315.815 603.375 315.165C605.504 314.516 607.386 313.238 608.777 311.501C610.167 309.763 611.001 307.647 611.168 305.428C611.322 305.516 611.502 305.548 611.677 305.518C611.852 305.488 612.011 305.398 612.126 305.263C616.776 299.428 670.014 246.051 667.25 238.505Z"
      fill="#9E616A" />
    <path
      d="M670.434 217.67C667.559 205.535 664.663 193.335 659.815 181.845C654.968 170.354 648.029 159.502 638.269 151.739C635.148 149.257 631.66 147.067 627.748 146.295C623.836 145.524 619.428 146.387 616.681 149.277C612.285 153.9 613.608 161.322 615.22 167.494C619.974 185.695 624.729 203.895 629.483 222.096C643.212 220.64 656.942 219.185 670.671 217.73L670.434 217.67Z"
      fill="#3F3D56" />
    <path
      d="M625.139 98.5888C623.93 90.6468 622.667 82.6384 619.826 75.1603C616.986 67.6821 612.408 60.6778 605.84 56.4414C595.441 49.7343 581.978 51.0279 570.319 54.886C561.303 57.8697 552.502 62.4046 546.143 69.6953C539.785 76.986 536.214 87.3891 538.579 96.922C551.016 93.9837 563.452 91.0454 575.888 88.1071L574.527 89.0691C578.61 91.1053 582.176 94.045 584.954 97.6651C587.731 101.285 589.648 105.49 590.557 109.962C591.447 114.488 591.319 119.154 590.184 123.625C589.048 128.095 586.933 132.257 583.992 135.81C592.474 132.801 600.955 129.792 609.437 126.783C614.672 124.926 620.275 122.786 623.38 118.023C626.979 112.5 626.143 105.18 625.139 98.5888Z"
      fill="#2F2E41" />
  </g>
  <defs>
    <clipPath id="clip0_207_62">
      <rect width="862.703" height="644.786" fill="white" />
    </clipPath>
  </defs>
</svg>