<svg width="613" height="587" viewBox="0 0 613 587" fill="none" xmlns="http://www.w3.org/2000/svg">
<g clip-path="url(#clip0_105_2)">
<path d="M92.1625 540.467C-26.786 478.529 -26.7875 378.108 92.1604 316.169C211.108 254.232 403.961 254.232 522.911 316.169C641.86 378.108 641.86 478.529 522.912 540.467C403.965 602.406 211.111 602.406 92.1625 540.467Z" fill="#CDC7FF"/>
<path d="M560.12 368.967C591.847 387.284 591.847 416.983 560.12 435.3C528.393 453.617 476.955 453.617 445.228 435.3C413.503 416.983 413.503 387.284 445.229 368.968C476.956 350.649 528.395 350.649 560.12 368.967Z" fill="#A49FCC"/>
<path d="M175.484 374.293C206.568 392.24 207.831 421.868 176.745 439.815C145.661 457.761 94.0021 457.229 62.9182 439.284C31.8338 421.337 31.8343 392.24 62.9182 374.293C94.0026 356.347 144.401 356.347 175.484 374.293Z" fill="#A49FCC"/>
<path d="M429.021 471L326.993 412.095C323.807 410.253 318.636 410.253 315.448 412.095L213.423 471C210.235 472.84 210.235 475.825 213.423 477.667L259.892 504.495L216.492 529.539C207.676 534.628 193.331 534.624 184.515 529.535L116.251 490.122C112.484 487.947 110.41 485.217 110.41 482.434C110.41 479.648 112.484 476.916 116.251 474.741L176.745 439.815C178.021 439.077 178.457 437.447 177.723 436.171C176.984 434.896 175.353 434.457 174.079 435.195L113.584 470.122C108.097 473.289 105.077 477.663 105.077 482.434C105.077 487.203 108.098 491.573 113.584 494.741L181.848 534.155C187.08 537.175 193.793 538.684 200.508 538.684C207.219 538.684 213.929 537.175 219.159 534.159L265.227 507.575L315.448 536.571C318.636 538.412 323.807 538.412 326.993 536.571L429.021 477.667C432.208 475.825 432.208 472.84 429.021 471Z" fill="#A49FCC"/>
<path d="M545.612 380.104C545.612 380.104 549.315 325.2 548.224 304.951C547.36 288.907 545.18 282.295 544.725 278.676C544.725 278.676 540.797 241.273 540.472 209.488C540.316 194.191 538.899 183.301 530.519 165.113L476.605 178.011C475.511 186.089 471.807 239.823 470.932 287.599C470.165 329.423 471.359 366.043 471.359 366.043L471.413 368.244C471.413 370.688 470.876 372.396 469.305 376.319C467.712 380.292 464.807 385.979 460.955 390.133C459.845 391.331 452.157 398.057 451.143 399.491C447.84 403.343 454.683 405.513 459.763 404.835C465.124 404.12 473.451 402.084 475.812 398.819C477.385 396.644 478.567 389.025 480.184 386.82C485.639 379.385 487.877 376.188 487.917 373.811C487.989 369.519 486.513 367.82 485.987 365.396C486.427 360.332 497.363 318.657 497.551 303.905C497.643 296.875 497.167 287.193 497.167 287.193L505.653 238.501C508.931 250.659 514.692 280.857 516.629 292.444C518.999 306.597 525.172 342.941 528.82 364.625C530.227 372.989 530.881 377.211 531.523 381.087L531.681 382.748C531.796 384.844 533.327 407.387 534.155 412.105C535.888 421.963 544.651 420.723 546.053 412.749C547.247 405.965 545.753 384.96 545.72 382.384L545.612 380.104Z" fill="#F6879F"/>
<path d="M545.612 380.104C548.084 380.145 546.459 389.715 547.096 395.869C547.78 402.468 549.942 407.287 550.561 412.697C551.269 418.879 550.718 421.468 548.501 426.551C546.777 430.501 538.116 435.919 534.828 430.267C531.5 424.547 530.826 418.159 531.205 412.003C531.596 405.641 531.205 401.703 531.333 396.864C531.448 392.6 528.32 381.699 531.522 381.087L531.681 382.748C532.83 385.047 544.54 385.505 545.72 382.384L545.612 380.104Z" fill="#4D4181"/>
<path d="M488.439 379.005C489.196 382.089 488.412 390.543 488.412 390.543C488.412 390.543 487.077 393.459 482.319 395.4L480.184 383.641L488.439 379.005Z" fill="#353866"/>
<path d="M482.319 395.4L471.831 391.957L469.305 382.649L481.088 388.613L482.319 395.4Z" fill="#040606"/>
<path d="M471.413 368.244L471.359 366.043C469.935 366.735 466.799 378.207 462.56 386.076C458.689 393.261 451.019 397.265 448.529 400.392C445.197 404.575 451.672 409.967 462.065 407.744C467.224 406.64 475.036 403.34 477.152 399.86C479.271 396.379 479.987 389.984 481.719 387.425C483.451 384.867 487.565 381.919 488.439 379.005C488.919 377.405 489.303 373.853 488.417 370.964C487.603 368.313 486.892 365.107 485.987 365.396L485.927 367.412C485.231 368.831 482.72 370.481 477.472 370.765C474.976 370.9 472.556 370.519 471.413 368.244Z" fill="#4D4181"/>
<path d="M475.575 177.359C475.575 177.359 472.011 216.913 470.864 251.948C469.715 286.984 470.743 332.175 470.743 332.175C470.743 332.175 474.359 334.761 482.319 335.119C490.279 335.476 493.033 332.823 493.033 332.823C493.033 332.823 497.896 316.947 498.657 305.775C499.42 294.601 498.657 287.6 498.657 287.6L505.765 240.856C505.765 240.856 514.779 286.879 515.803 292.444C516.824 298.008 525.464 347.177 525.464 347.177C525.464 347.177 528.855 350.308 537.547 350.143C545.229 349.997 547.464 347.24 547.464 347.24C547.464 347.24 549.316 317.081 548.893 304.196C548.523 292.841 545.929 283.795 545.411 276.431C544.892 269.067 544.589 227.113 544.071 211.141C543.552 195.171 542.117 181.292 528.471 162.071L475.575 177.359Z" fill="#353866"/>
<path d="M505.765 240.856L499.855 211.575C499.855 211.575 489.537 208.883 484.729 202.583C484.729 202.583 486.067 209.567 496.671 214.032L502.964 243.205L500.824 273.347L505.765 240.856Z" fill="#4D4181"/>
<path d="M400.252 170.029C405.688 171.131 411.596 169.189 411.596 169.189C409.567 168.045 407.989 167.105 407.103 166.211C405.339 164.435 405.952 162.588 406.573 161.915C407.056 161.391 408.283 162.625 411.059 163.412C414.604 164.417 417.176 164.623 420.596 166.596C421.871 167.332 423.387 167.625 424.863 167.348C433.188 165.779 452.588 156.693 461.471 151.929C463.295 144.537 466.432 133.649 470.319 120.083C473.903 107.575 479.664 102.101 488.817 102.311L487.551 129.464C487.551 129.464 483.184 148.225 477.771 163.541C476.817 166.239 473.023 169.323 466.065 171.908C457.052 175.255 446.171 178.407 432.877 182.045C427.908 183.405 421.339 184.835 416.369 185.259C402.316 186.459 396.931 182.551 395.012 179.828C389.652 172.224 392.883 168.537 400.252 170.029Z" fill="#F6879F"/>
<path d="M512.464 102.101L525.289 103.096C521.799 121.797 534.937 131.807 534.937 131.807L529.219 154.857C529.408 157.701 534.132 167.301 538.707 177.631C530.105 189.147 487.917 193.079 474.157 182.973C476.281 172.117 477.867 163.872 478.287 159.757L477.591 144.865C460.347 130.713 481.159 109.163 488.817 102.311L498.449 101.881L512.464 102.101Z" fill="#50549A"/>
<path d="M566.475 216.887C564.597 215.587 563.513 212.86 563.733 210.708C563.955 208.556 564.452 205.861 565.335 204.82C566.217 203.78 571.832 196.172 574.315 200.6C577.024 205.431 576.437 207.38 576.437 207.38L566.475 216.887Z" fill="#F47089"/>
<path d="M549.201 318.641C543.92 318.641 538.133 316.913 532.199 313.487L465.627 275.052C455.343 269.112 446.973 254.619 446.973 242.741L446.972 186.892C446.972 183.049 444.985 179.608 441.657 177.687C438.331 175.765 434.355 175.765 431.027 177.685L407.644 191.185C406.367 191.923 404.737 191.484 404 190.209C403.264 188.933 403.701 187.303 404.977 186.567L428.36 173.067C433.356 170.18 439.325 170.181 444.324 173.068C449.32 175.953 452.305 181.121 452.305 186.892L452.307 242.741C452.307 252.748 459.628 265.429 468.293 270.432L534.865 308.867C543.383 313.785 551.283 314.643 557.1 311.284C562.921 307.924 566.127 300.656 566.127 290.819V219.517C566.127 207.44 573.848 193.52 583.708 187.828L599.955 178.447C601.228 177.707 602.86 178.147 603.597 179.423C604.333 180.697 603.899 182.329 602.621 183.065L586.375 192.445C578.289 197.113 571.46 209.511 571.46 219.517V290.819C571.46 302.641 567.307 311.551 559.767 315.903C556.599 317.732 553.032 318.641 549.201 318.641Z" fill="#4D4181"/>
<path d="M434.129 195.039V199.399C434.129 206.376 429.231 214.861 423.188 218.351L382.805 241.664L341.755 217.959L341.745 182.409L381.604 163.999C387.939 161.073 397.973 161.529 404.016 165.017L423.188 176.087C429.231 179.576 434.129 188.06 434.129 195.039Z" fill="#4D4181"/>
<path d="M381.604 163.999C387.939 161.073 397.973 161.529 404.016 165.017L423.188 176.087C429.231 179.576 428.993 184.776 422.659 187.701L382.811 206.108L341.745 182.409L381.604 163.999Z" fill="#353866"/>
<path d="M387.945 238.697L392.155 236.267L387.945 238.697ZM347.463 179.768L352.14 177.608L347.463 179.768Z" fill="#D2D4D1"/>
<path d="M387.945 238.697V209.459C387.945 207.823 387.408 206.023 386.525 204.392L390.939 202.353C391.7 203.877 392.155 205.523 392.155 207.028V236.267L387.945 238.697Z" fill="#2E274D"/>
<path d="M386.525 204.392C385.525 202.543 384.081 200.911 382.476 199.983L347.463 179.768L352.14 177.608L386.684 197.553C388.403 198.545 389.935 200.344 390.939 202.353L386.525 204.392Z" fill="#2E274D"/>
<path d="M338.257 176.289C339.239 175.723 340.595 175.803 342.097 176.671L382.476 199.983C385.497 201.728 387.945 205.969 387.945 209.459V244.232C387.945 245.979 387.329 247.197 386.336 247.76C385.413 248.283 382.115 250.187 381.201 250.724C380.216 251.305 378.853 251.229 377.339 250.356L336.961 227.044C333.94 225.3 331.491 221.057 331.491 217.568V182.795C331.491 181.057 332.096 179.827 333.081 179.259C334.005 178.725 337.331 176.823 338.257 176.289Z" fill="#4D4181"/>
<path d="M377.339 202.948L336.961 179.636C333.939 177.892 331.491 179.307 331.491 182.795V217.568C331.491 221.057 333.939 225.3 336.961 227.044L377.339 250.356C380.36 252.1 382.811 250.687 382.811 247.197V212.424C382.811 208.936 380.361 204.692 377.339 202.948Z" fill="#353866"/>
<path d="M344.624 235.935C344.736 236.356 344.812 236.836 344.812 237.363C344.812 240.636 342.513 244.615 339.68 246.252C339.223 246.515 338.788 246.675 338.368 246.788C338.256 246.367 338.177 245.912 338.177 245.387C338.177 242.113 340.476 238.133 343.311 236.497C343.765 236.233 344.203 236.049 344.624 235.935ZM329.515 243.42L329.516 249.437C329.516 251.876 330.361 253.576 331.739 254.368C332.352 254.721 334.759 256.111 335.373 256.471C336.765 257.281 338.689 257.18 340.807 255.957L374.204 236.676L374.2 212.972L370.569 210.873L337.172 230.155C332.943 232.597 329.515 238.536 329.515 243.42Z" fill="#50549A"/>
<path d="M335.388 256.479L335.383 256.476L335.36 256.463C335.364 256.465 335.369 256.468 335.373 256.471C335.379 256.473 335.383 256.476 335.388 256.479ZM331.024 253.831C330.228 253.081 329.715 251.924 329.564 250.411C329.719 251.915 330.237 253.072 331.024 253.831ZM330.023 239.955C330.161 239.457 330.325 238.96 330.516 238.468C330.327 238.961 330.161 239.457 330.023 239.955Z" fill="#50549A"/>
<path d="M335.411 256.489L335.388 256.479C335.383 256.476 335.379 256.473 335.373 256.471C335.369 256.468 335.364 256.465 335.36 256.463L335.251 256.396C334.449 255.929 332.304 254.689 331.744 254.356C331.484 254.212 331.244 254.037 331.024 253.831C330.237 253.072 329.719 251.915 329.564 250.411C329.533 250.1 329.517 249.776 329.517 249.436V243.423C329.517 242.301 329.695 241.128 330.023 239.955C330.161 239.457 330.327 238.961 330.516 238.468C330.517 238.464 330.519 238.459 330.521 238.453C330.863 237.568 331.283 236.697 331.769 235.863L335.397 237.956C334.011 240.383 333.156 243.063 333.156 245.516V251.529C333.156 253.436 333.677 254.889 334.556 255.823C334.736 256.025 334.953 256.187 335.176 256.335L335.411 256.489Z" fill="#50549A"/>
<path d="M335.397 237.956L331.769 235.863C333.156 233.463 335.064 231.383 337.171 230.156L370.571 210.876L374.184 212.969L340.811 232.249C338.691 233.476 336.783 235.556 335.397 237.956Z" fill="#50549A"/>
<path d="M335.556 256.583L335.464 256.529L335.523 256.553C335.527 256.555 335.529 256.556 335.532 256.557L335.556 256.583Z" fill="white"/>
<path d="M335.532 256.557C335.529 256.556 335.527 256.555 335.523 256.553L335.531 256.556L335.532 256.557Z" fill="#6368C0"/>
<path d="M335.523 256.553L335.464 256.529L335.423 256.499C335.456 256.517 335.489 256.536 335.523 256.553Z" fill="#C3C5C2"/>
<path d="M335.531 256.556L335.523 256.553C335.489 256.536 335.456 256.517 335.423 256.499L335.411 256.489L335.531 256.556Z" fill="#6368C0"/>
<path d="M338.368 246.788C338.367 246.785 338.365 246.781 338.365 246.779C338.491 246.748 338.617 246.715 338.743 246.675C338.616 246.717 338.492 246.755 338.368 246.788ZM339.495 246.353C339.555 246.32 339.613 246.287 339.673 246.249C342.503 244.607 344.804 240.64 344.804 237.355C344.804 236.824 344.725 236.339 344.624 235.935C344.736 236.356 344.812 236.836 344.812 237.363C344.812 240.636 342.513 244.615 339.68 246.252C339.617 246.287 339.556 246.321 339.495 246.353Z" fill="#C3C5C2"/>
<path d="M341.025 249.053C339.716 249.053 338.724 248.236 338.36 246.78C338.361 246.779 338.363 246.779 338.365 246.779C338.365 246.781 338.367 246.785 338.368 246.788C338.492 246.755 338.616 246.717 338.743 246.675C338.989 246.596 339.239 246.493 339.495 246.353C339.556 246.321 339.617 246.287 339.68 246.252C342.513 244.615 344.812 240.636 344.812 237.363C344.812 236.836 344.736 236.356 344.624 235.935C344.968 235.839 345.299 235.792 345.612 235.792C347.288 235.792 348.441 237.137 348.441 239.452C348.441 242.737 346.143 246.704 343.312 248.347C342.492 248.825 341.715 249.053 341.025 249.053Z" fill="#6368C0"/>
<path d="M313.835 218.156C313.945 218.577 314.023 219.059 314.023 219.584C314.023 222.857 311.724 226.836 308.891 228.472C308.433 228.736 308 228.896 307.577 229.009C307.467 228.589 307.389 228.133 307.389 227.608C307.389 224.335 309.685 220.356 312.521 218.719C312.977 218.455 313.413 218.271 313.835 218.156ZM298.725 225.643L298.727 231.659C298.728 234.097 299.572 235.797 300.949 236.589C301.563 236.943 303.968 238.332 304.585 238.692C305.976 239.503 307.9 239.401 310.017 238.179L343.415 218.897L343.411 195.193L339.779 193.095L306.384 212.376C302.153 214.819 298.725 220.757 298.725 225.643Z" fill="#50549A"/>
<path d="M304.744 238.783L304.677 238.756L304.584 238.703C304.317 238.544 303.732 238.201 303.1 237.832C303.656 238.153 304.175 238.453 304.472 238.627C304.56 238.683 304.651 238.735 304.744 238.783ZM300.047 235.857C299.529 235.289 299.151 234.532 298.935 233.6C299.152 234.529 299.533 235.288 300.047 235.857ZM300.683 218.607C300.776 218.433 300.872 218.26 300.971 218.089C300.872 218.26 300.776 218.433 300.683 218.607Z" fill="#CDC7FF"/>
<path d="M304.472 238.627C304.175 238.453 303.656 238.153 303.1 237.832C302.244 237.331 301.303 236.783 300.956 236.583C300.619 236.393 300.315 236.151 300.047 235.857C299.533 235.288 299.152 234.529 298.935 233.6C298.8 233.016 298.731 232.365 298.731 231.649V225.636C298.731 224.409 298.944 223.129 299.331 221.849C299.663 220.752 300.121 219.653 300.683 218.607C300.776 218.433 300.872 218.26 300.971 218.089L300.983 218.103L304.611 220.183L304.596 220.196C304.251 220.796 303.944 221.409 303.676 222.036C302.851 223.929 302.371 225.903 302.371 227.743V233.756C302.371 235.649 302.891 237.116 303.769 238.049C303.979 238.268 304.216 238.464 304.472 238.627Z" fill="#6368C0"/>
<path d="M305.005 213.316C305.452 212.961 305.913 212.644 306.384 212.369L331.491 197.876V197.88L306.384 212.376C305.913 212.648 305.452 212.963 305.005 213.316Z" fill="white"/>
<path d="M331.491 197.88V197.876L339.783 193.089L341.32 193.985L339.779 193.095L331.491 197.88Z" fill="#91A7AA"/>
<path d="M304.611 220.183L300.983 218.103C302.06 216.229 303.451 214.548 305.005 213.316C305.452 212.963 305.913 212.648 306.384 212.376L331.491 197.88L339.779 193.095L341.32 193.985L343.397 195.196L310.024 214.476C307.891 215.703 305.997 217.783 304.611 220.183Z" fill="#6368C0"/>
<path d="M304.769 238.809L304.677 238.756L304.744 238.783L304.769 238.809Z" fill="white"/>
<path d="M307.577 229.009C307.577 229.007 307.576 229.003 307.575 229C307.704 228.969 307.833 228.935 307.963 228.892C307.833 228.937 307.705 228.976 307.577 229.009ZM308.715 228.569C308.771 228.539 308.828 228.505 308.884 228.471C311.713 226.828 314.013 222.861 314.013 219.576C314.013 219.045 313.936 218.56 313.835 218.156C313.945 218.577 314.023 219.059 314.023 219.584C314.023 222.857 311.724 226.836 308.891 228.472C308.832 228.507 308.773 228.539 308.715 228.569Z" fill="#CDC7FF"/>
<path d="M310.236 231.275C308.927 231.275 307.935 230.457 307.571 229C307.572 229 307.573 229 307.575 229C307.576 229.003 307.577 229.007 307.577 229.009C307.705 228.976 307.833 228.937 307.963 228.892C308.209 228.813 308.459 228.711 308.715 228.569C308.773 228.539 308.832 228.507 308.891 228.472C311.724 226.836 314.023 222.857 314.023 219.584C314.023 219.059 313.945 218.577 313.835 218.156C314.18 218.06 314.511 218.013 314.823 218.013C316.499 218.013 317.653 219.359 317.653 221.673C317.653 224.959 315.353 228.925 312.523 230.568C311.703 231.047 310.925 231.275 310.236 231.275Z" fill="#6368C0"/>
<path d="M310.759 200.885L305.388 179.977C305.113 178.907 304.024 178.263 302.953 178.537C301.884 178.812 301.24 179.903 301.515 180.972L306.885 201.881C307.16 202.951 308.249 203.596 309.32 203.32C310.389 203.045 311.033 201.956 310.759 200.885Z" fill="#CDC7FF"/>
<path d="M295.067 208.537L275.203 192.845C274.336 192.16 273.077 192.308 272.393 193.175C271.708 194.041 271.856 195.299 272.723 195.984L292.587 211.676C293.453 212.36 294.711 212.212 295.396 211.345C296.08 210.479 295.933 209.221 295.067 208.537Z" fill="#CDC7FF"/>
<path d="M289.523 225.46L266.311 227.26C265.209 227.345 264.385 228.307 264.471 229.408C264.556 230.509 265.519 231.333 266.62 231.248L289.832 229.448C290.932 229.363 291.756 228.4 291.671 227.299C291.585 226.197 290.623 225.375 289.523 225.46Z" fill="#CDC7FF"/>
<path d="M584.623 195.129C584.1 191.121 583.664 185.431 582.436 180.457C579.336 167.891 572.581 151.628 570.357 147.369C568.132 143.112 563.102 136.916 559.54 131.679C554.501 124.275 550.961 120.124 547.128 115.103C538.707 104.072 535.12 103.444 525.289 103.096C523.961 106.601 520.917 120.975 530.763 132.591L551.889 154.857C553.088 156.791 565.993 178.851 568.142 187.001C568.522 188.445 568.317 189.979 567.641 191.311C565.827 194.884 564.752 199.368 563.942 202.983C563.31 205.812 561.637 208.051 562.206 208.485C562.938 209.045 564.749 209.736 566.884 208.112C567.912 207.331 569.479 204.743 570.528 202.628C572.301 202.635 573.443 203.664 573.577 205.539C573.696 207.18 572.951 209.468 572.388 212.311C572.279 212.86 572.144 213.5 571.883 215.048C571.708 215.889 571.539 217.012 571.519 218.225C574.208 218.724 576.963 217.088 581.444 212.841C585.493 209.004 585.761 203.848 584.623 195.129Z" fill="#F6879F"/>
<path d="M514.759 95.6254C514.828 92.996 523.504 86.712 527.889 80.0747C531.953 73.9254 537.636 56.988 524.173 51.5734C524.173 51.5734 527.069 43.4467 521.799 38.6653C516.528 33.8853 509.409 36.832 508.288 38.84C508.288 38.84 506.325 30.4281 497.013 29.9801C487.701 29.5307 485.972 38.2174 485.972 38.2174C485.972 38.2174 478.616 34.8454 473.681 41.656C468.747 48.4667 475.3 54.7107 475.3 54.7107C475.3 54.7107 472.339 56.5787 472.792 59.9134C473.184 62.7974 475.939 63.508 476.265 64.9414C476.593 66.3747 474.779 67.2187 473.845 66.196C473.845 66.196 474.149 68.668 477.26 68.5C480.372 68.3307 483.137 64.108 483.137 64.108L514.759 95.6254Z" fill="#353866"/>
<path d="M486.484 50.7214C482.501 52.4481 478.715 58.5401 478.772 75.5828C478.82 90.0281 483.249 93.6814 485.487 94.7534C487.725 95.8254 492.092 95.2841 496.337 94.6308L496.321 102.935C496.321 102.935 488.641 112.475 495.528 117.22C513.284 114.113 514.653 102.463 514.653 102.463L514.968 84.3561C514.968 84.3561 517.411 86.9228 521.707 83.1601C525.255 80.0534 526.531 74.7254 523.867 71.8014C521.204 68.8774 517.78 68.6401 514.692 71.9094C514.692 71.9094 509.024 72.2721 500.508 66.9254C491.789 61.4494 488.817 56.1628 486.484 50.7214Z" fill="#F6879F"/>
<path d="M496.721 84.6281C496.764 85.8081 495.877 86.7961 494.741 86.8347C493.605 86.8721 492.651 85.9467 492.607 84.7667C492.564 83.5854 493.451 82.5974 494.587 82.5601C495.721 82.5227 496.679 83.4467 496.721 84.6281Z" fill="#C35363"/>
<path d="M485.736 70.6747C485.776 71.7747 484.951 72.6961 483.892 72.7307C482.833 72.7667 481.943 71.9041 481.904 70.8027C481.864 69.7041 482.689 68.784 483.748 68.748C484.807 68.7134 485.696 69.576 485.736 70.6747Z" fill="#353866"/>
<path d="M500.505 71.5321C500.549 72.7121 499.663 73.7 498.527 73.7387C497.391 73.7774 496.435 72.8507 496.392 71.6707C496.349 70.4894 497.236 69.5014 498.372 69.4641C499.507 69.4254 500.464 70.3521 500.505 71.5321Z" fill="#353866"/>
<path d="M484.407 63.0161L480.341 65.3934C480.928 66.5921 482.419 66.9201 483.541 66.2627C484.663 65.6054 484.992 64.2121 484.407 63.0161Z" fill="#353866"/>
<path d="M514.661 69.5534L514.613 77.5787C512.467 77.6507 510.737 75.9121 510.752 73.6961C510.765 71.4814 512.517 69.6267 514.661 69.5534Z" fill="#353866"/>
<path d="M490.997 68.7481L490.176 80.2614L484.105 78.8387L490.997 68.7481Z" fill="#F47089"/>
<path d="M496.337 94.6308C500.811 94.1081 510.039 91.5401 511.54 87.7907C511.54 87.7907 511.019 90.1547 508.232 92.5481C505.443 94.9414 496.332 97.4254 496.332 97.4254L496.337 94.6308Z" fill="#F47089"/>
<path d="M540.54 37.4227C540.939 37.5721 541.231 37.8494 541.411 38.2507C541.595 38.6507 541.608 39.0508 541.457 39.4521L539.647 44.2614C539.495 44.6627 539.219 44.9547 538.817 45.1347C538.417 45.3174 538.017 45.3321 537.616 45.1814L532.917 43.4134C532.516 43.2601 532.224 42.9854 532.043 42.5841C531.86 42.1827 531.844 41.7827 531.996 41.3814L533.808 36.5721C533.959 36.1707 534.233 35.8801 534.636 35.6974C535.037 35.5174 535.436 35.5014 535.839 35.6521L540.54 37.4227ZM550.04 5.55873C551.753 6.20273 553.331 7.06809 554.773 8.15209C556.215 9.23609 557.392 10.4801 558.299 11.8814C559.207 13.2841 559.785 14.812 560.036 16.468C560.285 18.1214 560.075 19.8414 559.403 21.6267C558.855 23.084 558.149 24.264 557.289 25.168C556.429 26.0707 555.483 26.8161 554.451 27.4054C553.419 27.9934 552.347 28.4854 551.243 28.8801C550.137 29.2747 549.089 29.6507 548.104 30.0054C547.116 30.3627 546.209 30.7814 545.385 31.26C544.559 31.74 543.941 32.3601 543.531 33.1201C543.307 33.4934 543.012 33.7774 542.649 33.9721C542.283 34.1694 541.9 34.1907 541.5 34.04L537.347 32.4747C536.945 32.3254 536.645 32.0467 536.445 31.6374C536.247 31.2294 536.239 30.8334 536.428 30.4454C537.035 29.052 537.804 27.9174 538.737 27.0414C539.671 26.1654 540.671 25.44 541.741 24.8654C542.811 24.2894 543.904 23.8187 545.02 23.4481C546.137 23.0787 547.179 22.7121 548.149 22.3481C549.116 21.9854 549.959 21.5734 550.671 21.1147C551.385 20.6574 551.887 20.0441 552.175 19.2774C552.696 17.8947 552.541 16.536 551.712 15.204C550.881 13.8734 549.501 12.8441 547.571 12.1161C544.475 10.9494 541.613 11.6414 538.991 14.1894C538.657 14.5227 538.353 14.7507 538.08 14.8747C537.803 15.0014 537.428 14.9734 536.953 14.7947L532.528 13.1281C532.201 13.0041 531.957 12.7881 531.804 12.4814C531.651 12.1734 531.641 11.8374 531.777 11.4721C532.293 10.2121 533.177 9.05608 534.425 8.00808C535.671 6.96007 537.127 6.13607 538.788 5.5334C540.449 4.9334 542.259 4.60272 544.212 4.55072C546.168 4.49605 548.109 4.83206 550.04 5.55873Z" fill="#50549A"/>
<path d="M572.293 38.8494C573.541 40.0361 574.594 41.3667 575.448 42.836C576.302 44.308 576.869 45.8187 577.14 47.368C577.412 48.92 577.353 50.4574 576.964 51.9854C576.574 53.5147 575.76 54.9307 574.521 56.2334C573.509 57.2974 572.465 58.0627 571.388 58.5307C570.309 59 569.213 59.3 568.101 59.432C566.986 59.564 565.878 59.5974 564.774 59.536C563.669 59.472 562.622 59.4147 561.636 59.36C560.649 59.308 559.706 59.3387 558.816 59.452C557.924 59.5654 557.158 59.8774 556.524 60.3867C556.192 60.628 555.832 60.7667 555.444 60.8027C555.054 60.8387 554.714 60.7173 554.424 60.4387L551.39 57.556C551.098 57.2774 550.94 56.9254 550.917 56.4987C550.892 56.0707 551.032 55.724 551.337 55.456C552.377 54.4694 553.462 53.7667 554.594 53.3494C555.725 52.932 556.861 52.6694 558 52.5614C559.138 52.4547 560.26 52.4467 561.368 52.536C562.472 52.624 563.512 52.688 564.486 52.7294C565.46 52.7694 566.34 52.7214 567.13 52.584C567.917 52.4467 568.578 52.1 569.108 51.5413C570.069 50.532 570.432 49.2974 570.202 47.8347C569.97 46.376 569.149 44.9747 567.742 43.6347C565.481 41.4867 562.743 41.036 559.532 42.284C559.119 42.4507 558.77 42.5387 558.486 42.5454C558.201 42.552 557.886 42.392 557.54 42.064L554.31 38.9907C554.07 38.764 553.94 38.488 553.92 38.1653C553.898 37.84 554.015 37.5467 554.265 37.2801C555.177 36.3734 556.366 35.6947 557.834 35.2427C559.304 34.7907 560.869 34.608 562.533 34.696C564.194 34.784 565.885 35.1627 567.601 35.8334C569.32 36.5027 570.881 37.5094 572.293 38.8494ZM552.346 63.0214C552.638 63.3 552.79 63.6467 552.801 64.0614C552.812 64.4774 552.677 64.8294 552.4 65.1227L549.063 68.632C548.784 68.9254 548.437 69.0774 548.022 69.0867C547.606 69.0974 547.254 68.9627 546.961 68.6854L543.532 65.4254C543.238 65.1454 543.088 64.8014 543.077 64.3854C543.065 63.9694 543.2 63.6174 543.48 63.324L546.816 59.8134C547.093 59.5214 547.438 59.3694 547.856 59.3587C548.269 59.3494 548.622 59.4814 548.917 59.76L552.346 63.0214Z" fill="#50549A"/>
<path d="M547.975 69.0867C547.58 69.0867 547.243 68.9534 546.961 68.6854L543.532 65.4254C543.239 65.1454 543.088 64.8014 543.077 64.3854C543.076 64.3694 543.076 64.3534 543.076 64.3374C543.076 63.9414 543.211 63.6054 543.48 63.3241L546.816 59.8134C547.093 59.5214 547.439 59.3694 547.856 59.3587C547.869 59.3587 547.884 59.3587 547.897 59.3587C548.293 59.3587 548.632 59.4921 548.917 59.7601L552.347 63.0214C552.639 63.3001 552.791 63.6467 552.801 64.0614C552.801 64.0774 552.801 64.0934 552.801 64.1094C552.801 64.5041 552.667 64.8414 552.4 65.1227L549.063 68.6321C548.784 68.9254 548.437 69.0774 548.023 69.0867C548.007 69.0867 547.991 69.0867 547.975 69.0867Z" fill="#6368C0"/>
<path d="M555.312 60.808C554.977 60.808 554.681 60.684 554.424 60.4387L551.391 57.5561C551.099 57.2774 550.94 56.9254 550.917 56.4987C550.915 56.4654 550.915 56.4321 550.915 56.3987C550.915 56.0161 551.056 55.7027 551.337 55.4561C552.377 54.4694 553.463 53.7667 554.595 53.3494C555.725 52.9321 556.861 52.6694 558 52.5614C558.62 52.5041 559.236 52.4747 559.847 52.4747C560.356 52.4747 560.864 52.4947 561.368 52.5361C562.472 52.6241 563.512 52.6881 564.487 52.7294C564.709 52.7387 564.925 52.7427 565.137 52.7427C565.856 52.7427 566.52 52.6907 567.131 52.5841C567.917 52.4467 568.579 52.1 569.108 51.5414C569.881 50.728 570.268 49.7707 570.269 48.6654C570.269 48.3974 570.247 48.1214 570.203 47.8347C569.971 46.3761 569.149 44.9747 567.743 43.6347C566.312 42.2761 564.691 41.5961 562.88 41.5961C561.828 41.5961 560.712 41.8254 559.532 42.2841C559.119 42.4507 558.771 42.5387 558.487 42.5454C558.481 42.5454 558.476 42.5467 558.471 42.5467C558.188 42.5467 557.88 42.3854 557.54 42.0641L554.311 38.9907C554.071 38.764 553.94 38.488 553.92 38.1654C553.917 38.1387 553.917 38.1147 553.917 38.0894C553.917 37.7934 554.035 37.5254 554.265 37.2801C555.177 36.3734 556.367 35.6947 557.835 35.2427C559.064 34.864 560.361 34.6747 561.727 34.6747C561.992 34.6747 562.261 34.6814 562.533 34.696C564.195 34.784 565.885 35.1627 567.601 35.8334C569.32 36.5027 570.881 37.5094 572.293 38.8494C573.541 40.0361 574.595 41.3667 575.448 42.8361C576.303 44.3081 576.869 45.8187 577.14 47.3681C577.252 48.0107 577.308 48.6507 577.308 49.2894C577.307 50.1921 577.192 51.0907 576.964 51.9854C576.575 53.5147 575.76 54.9307 574.521 56.2334C573.509 57.2974 572.465 58.0627 571.388 58.5307C570.309 59.0001 569.213 59.3001 568.101 59.4321C567.344 59.5214 566.589 59.5654 565.837 59.5654C565.483 59.5654 565.129 59.5561 564.775 59.5361C563.669 59.4721 562.623 59.4147 561.636 59.3601C561.324 59.3441 561.016 59.3361 560.713 59.3361C560.059 59.3361 559.425 59.3747 558.816 59.4521C557.924 59.5654 557.159 59.8774 556.524 60.3867C556.192 60.6281 555.832 60.7667 555.444 60.8027C555.399 60.8067 555.355 60.808 555.312 60.808Z" fill="#6368C0"/>
<path d="M77.9197 398.264C82.1473 400.835 87.7598 400.947 93.0535 399.079L97.1171 371.124L78.3817 366.34L77.9197 398.264Z" fill="#F6879F"/>
<path d="M108.04 425.065C108.496 425.541 108.215 429.045 107.642 429.847C107.028 430.705 103.855 433.3 97.9473 433.405C92.303 433.505 87.3218 432.476 84.1338 430.203C80.9448 427.929 79.4708 425.531 79.3322 422.311C79.1942 419.091 79.7172 416.02 78.3229 413.471C77.0349 411.119 75.2708 408.8 74.8478 407.539C73.9281 404.797 74.8161 400.645 74.8161 400.645L108.04 425.065Z" fill="#353866"/>
<path d="M94.3473 397.899C94.3786 399.093 94.5156 400.284 94.8426 401.499C95.5245 404.025 96.6375 406.431 97.9079 408.729C98.562 409.913 99.2584 411.079 100.075 412.163C101.667 414.279 103.69 416.055 105.385 418.092C107.082 420.131 108.485 422.567 108.486 425.183C108.489 429.605 103.621 430.847 99.9005 431.304C95.9281 431.793 91.7385 431.357 87.9562 430.059C83.7478 428.615 80.8421 425.137 80.3625 420.836C80.225 419.601 80.3677 418.352 80.2885 417.113C80.1098 414.284 78.7926 411.637 77.274 409.212C76.3932 407.804 75.4265 406.424 74.8688 404.871C73.8645 402.079 74.9521 399.056 75.8338 396.377C76.5953 394.061 77.2021 391.272 78.0172 391.537C77.9953 392.012 77.9953 393.048 77.9953 393.048C78.2385 393.573 78.8281 393.949 78.9666 394.555C79.1114 395.185 79.2828 395.811 79.538 396.407C79.9292 397.316 80.5322 398.161 81.3792 398.672C81.524 397.011 81.6682 395.348 81.8136 393.687C81.8578 393.172 81.9208 392.615 82.2765 392.24C82.6364 391.86 83.1994 391.772 83.7182 391.703C86.8645 391.292 90.0697 390.881 93.1958 391.431C93.664 391.512 94.1786 391.649 94.4322 392.052C94.6401 392.383 94.615 392.803 94.5817 393.191C94.4464 394.793 94.3068 396.347 94.3473 397.899Z" fill="#50549A"/>
<path d="M96.6896 431.5C93.7235 431.5 90.7307 431.011 87.9563 430.059C83.7479 428.615 80.8421 425.137 80.3625 420.836C80.312 420.383 80.2989 419.927 80.2995 419.471C80.2995 418.996 80.314 418.52 80.314 418.044C80.314 417.733 80.3084 417.423 80.2885 417.113C80.1099 414.284 78.7927 411.637 77.274 409.212C76.3932 407.804 75.4265 406.424 74.8688 404.871C74.5823 404.075 74.4661 403.259 74.4667 402.439C74.4683 400.383 75.2036 398.292 75.8339 396.377C76.5615 394.165 77.1473 391.52 77.9088 391.52C77.9448 391.52 77.9807 391.525 78.0172 391.537C78.0172 391.54 78.0172 391.541 78.0172 391.543C77.9953 392.019 77.9953 393.048 77.9953 393.048C78.2385 393.573 78.8281 393.949 78.9667 394.555C79.1115 395.185 79.2828 395.811 79.538 396.407C79.9292 397.316 80.5323 398.161 81.3792 398.672C81.524 397.011 81.6683 395.348 81.8136 393.687C81.8579 393.172 81.9208 392.615 82.2765 392.24C82.6364 391.86 83.1995 391.772 83.7183 391.703C85.7765 391.433 87.8599 391.165 89.9297 391.165C91.024 391.165 92.1145 391.24 93.1959 391.431C93.664 391.512 94.1787 391.649 94.4323 392.052C94.5672 392.267 94.6036 392.517 94.6041 392.775C94.6041 392.913 94.5932 393.055 94.5817 393.191C94.462 394.605 94.3396 395.983 94.3401 397.353C94.3401 397.535 94.3427 397.717 94.3473 397.899C94.3787 399.093 94.5156 400.284 94.8427 401.499C95.5245 404.025 96.6375 406.431 97.9079 408.729C98.562 409.913 99.2584 411.079 100.075 412.163C101.667 414.279 103.69 416.055 105.385 418.092C107.082 420.131 108.485 422.567 108.486 425.183C108.489 429.605 103.621 430.847 99.9005 431.304C98.8421 431.435 97.7672 431.5 96.6896 431.5Z" fill="#6368C0"/>
<path d="M98.4521 409.687C96.876 408.368 93.1969 408.153 91.1735 408.26C88.6391 408.395 86.5505 409.168 85.3459 409.96C84.812 410.311 84.0973 410.207 83.6688 409.736C83.1536 409.171 83.2516 408.291 83.8942 407.869C85.1702 407.032 87.462 405.88 90.4588 405.831C95.4292 405.748 96.8364 406.675 96.8364 406.675C96.8364 406.675 99.0166 408.251 98.4521 409.687Z" fill="#353866"/>
<path d="M101.986 414.408C99.986 413.077 95.9303 413.035 93.9057 413.141C91.3713 413.277 89.4339 414.167 88.2297 414.959C87.6959 415.309 86.9807 415.205 86.5527 414.735C86.0375 414.168 86.1349 413.288 86.7776 412.867C88.0541 412.029 90.4937 410.696 93.4912 410.647C98.462 410.564 99.6973 411.645 99.6973 411.645C99.6973 411.645 101.743 412.567 101.986 414.408Z" fill="#353866"/>
<path d="M88.7418 400.985C92.1823 400.816 93.6131 401.277 94.9386 401.843C95.785 402.379 96.2855 403.788 95.7052 404.107C94.636 403.435 92.6651 403.075 90.2276 403.052C88.5921 403.036 86.5011 403.587 84.7938 404.235C84.3594 404.4 83.8448 404.637 83.3922 404.856C82.7828 405.152 82.0422 404.879 81.7907 404.263C81.5771 403.739 81.7886 403.14 82.2959 402.871C83.5318 402.211 85.962 401.121 88.7418 400.985Z" fill="#353866"/>
<path d="M130.527 387.748C133.776 395.897 138.875 393.384 146.629 388.695L147.804 360.883L128.058 359.055L130.527 387.748Z" fill="#F6879F"/>
<path d="M176.425 407.353C176.836 408.344 176.604 410.148 175.995 411.268C175.384 412.387 169.203 415.447 161.14 414.467C153.076 413.484 147.695 409.925 144.719 407.716C141.743 405.508 138.552 404.953 134.556 404.508C130.561 404.063 127.551 402.671 126.773 400.749C125.995 398.828 127.18 395.655 127.18 395.655L176.425 407.353Z" fill="#353866"/>
<path d="M145.011 381.716C145.753 381.584 146.371 381.352 147.161 381.111C147.555 380.989 147.988 380.871 148.365 381.036C148.872 381.259 149.041 381.88 149.151 382.423C149.373 383.532 149.412 384.957 149.844 385.985C150.236 386.92 151.265 387.813 151.987 388.493C153.861 390.259 156.047 391.681 158.239 393.016C160.807 394.58 163.337 395.821 166 397.196C168.717 398.597 172.372 399.561 174.471 401.148C177.532 403.459 177.652 408.859 173.921 410.788C170.701 412.452 162.381 413.996 153.899 411.092C149.279 409.511 144.34 404.217 138.208 403.404C134.307 402.885 129.105 402.276 126.744 399.167C125.883 397.799 126.631 393.975 127.329 389.447C127.954 385.395 128.528 379.055 129.814 379.472L129.921 380.7C129.921 380.7 131.093 382.117 131.474 382.584C131.81 382.993 132.199 383.255 132.569 383.619C133.044 384.085 133.425 384.617 133.949 385.039C134.596 385.557 135.377 385.945 136.207 385.979C136.599 385.996 137.003 385.929 137.344 385.733C138.008 385.353 138.096 384.479 138.635 383.936C139.247 383.317 140.005 382.841 140.812 382.521C141.94 382.075 143.147 381.899 144.349 381.801C144.584 381.781 144.803 381.752 145.011 381.716Z" fill="#50549A"/>
<path d="M163.843 412.719C160.777 412.719 157.352 412.275 153.899 411.092C149.279 409.511 144.34 404.217 138.208 403.404C134.307 402.885 129.105 402.276 126.744 399.167C126.468 398.729 126.357 398.039 126.357 397.153C126.357 395.277 126.854 392.525 127.329 389.447C127.934 385.523 128.492 379.452 129.695 379.452C129.734 379.452 129.774 379.459 129.815 379.472L129.921 380.7C129.921 380.7 131.093 382.117 131.475 382.584C131.81 382.993 132.199 383.255 132.569 383.619C133.044 384.085 133.425 384.617 133.949 385.039C134.596 385.557 135.377 385.945 136.207 385.979C136.244 385.981 136.283 385.981 136.32 385.981C136.676 385.981 137.036 385.911 137.344 385.733C138.008 385.353 138.096 384.479 138.635 383.936C139.247 383.317 140.005 382.841 140.812 382.521C141.94 382.075 143.147 381.899 144.349 381.801C144.584 381.781 144.803 381.752 145.011 381.716C145.753 381.584 146.371 381.352 147.161 381.111C147.416 381.032 147.687 380.955 147.949 380.955C148.092 380.955 148.232 380.977 148.365 381.036C148.872 381.259 149.041 381.88 149.151 382.423C149.373 383.532 149.412 384.957 149.844 385.985C150.236 386.92 151.265 387.813 151.987 388.493C153.861 390.259 156.047 391.681 158.239 393.016C160.807 394.58 163.337 395.821 166 397.196C168.717 398.597 172.372 399.561 174.471 401.148C175.953 402.267 176.747 404.112 176.745 405.935C176.745 407.876 175.845 409.793 173.921 410.788C172.012 411.775 168.308 412.719 163.843 412.719Z" fill="#6368C0"/>
<path d="M154.696 390.689C154.696 390.689 154.213 389.157 151.907 388.599C150.143 388.171 146.925 389.315 144.881 390.821C144.045 391.439 144.081 392.696 144.963 393.247C145.488 393.575 146.153 393.532 146.643 393.151C147.984 392.104 150.969 390.231 154.696 390.689Z" fill="#353866"/>
<path d="M160.052 394.08C160.052 394.08 158.997 392.219 156.72 392.131C156.72 392.131 152.059 392.013 149.035 394.544C148.263 395.189 148.252 396.357 149.105 396.888C149.613 397.203 150.256 397.161 150.724 396.788C152.083 395.699 154.816 393.404 160.052 394.08Z" fill="#353866"/>
<path d="M166 397.196C166 397.196 164.805 395.499 162.527 395.411C162.527 395.411 158.183 395.339 155.159 397.868C154.387 398.513 154.375 399.683 155.229 400.213C155.737 400.528 156.38 400.487 156.845 400.113C158.207 399.024 160.763 396.52 166 397.196Z" fill="#353866"/>
<path d="M77.389 323.197C77.9901 309.777 80.8468 302.78 81.252 299.059C81.252 299.059 82.3478 225.203 84.142 202.784L150.277 199.973C151.253 223.913 152.133 288.457 151.621 296.985C151.129 305.155 147.804 376.053 147.804 376.053C138.452 378.965 128.514 374.767 128.514 374.767C128.514 374.767 122.966 334.441 122.056 325.548C120.876 314.036 122.68 301.536 122.68 301.536L118.454 244.111C118.454 244.111 113.344 288.633 110.819 305.403C107.926 324.616 95.5349 384.169 95.5349 384.169C86.613 386.403 77.9197 382.545 77.9197 382.545C77.9197 382.545 76.5171 342.659 77.389 323.197Z" fill="#353866"/>
<path d="M118.452 244.112L119.703 236.201C123.556 235.629 133.311 229.535 139.091 224.211C139.091 224.211 133.868 233.063 122.876 239.155L122.68 301.536L118.452 244.112Z" fill="#4D4181"/>
<path d="M145.568 161.065C141.068 150.809 133.343 133.541 133.343 133.541L131.376 105.477C131.376 105.477 135.757 105.592 139.924 106.241C144.092 106.892 150.683 110.868 153.707 118.356C155.952 123.917 167.66 157.843 167.66 157.843L188.064 147.089C193.287 143.765 195.137 138.268 198.473 135.144C201.811 132.02 205.183 131.489 208.829 128.945C212.476 126.4 213.988 124.359 214.916 126.899C215.844 129.439 211.715 133.355 210.968 134.331C210.223 135.307 206.151 137.388 211.281 137.655C216.411 137.921 226.759 132.935 229.236 132.081C231.713 131.227 231.496 134.168 230.209 135.992C228.923 137.816 228.781 143.181 226.619 146.191C224.325 149.384 223.088 150.759 218.172 152.659C213.593 154.429 204.121 154.876 199.235 157.696C194.348 160.516 182.536 171.191 174.663 176.667C164.089 184.023 158.137 184.503 153.997 178.639C149.857 172.775 147.152 164.676 145.568 161.065Z" fill="#F6879F"/>
<path d="M128.623 104.947C135.548 104.415 143.723 104.84 148.253 108.975C151.859 112.267 153.217 114.369 157.245 125.687C159.967 133.327 165.616 150.925 165.616 150.925C165.616 150.925 153.616 153.063 145.549 163.191L132.554 133.977L128.623 104.947Z" fill="#353866"/>
<path d="M167.66 157.843C163.143 159.461 160.123 162.632 159.039 164.46C159.039 164.46 159.525 159.096 167.004 155.945L167.66 157.843Z" fill="#F47089"/>
<path d="M112.024 103.697C112.024 103.697 107.57 103.359 102.28 104.757C96.186 106.368 85.2645 109.435 85.2645 109.435C81.7984 111.24 80.4437 117.243 79.6598 120.693C77.1505 131.739 83.7172 156.741 84.6672 166.416C85.6177 176.088 83.5406 205.911 83.5406 205.911C90.9969 214.543 131.377 220.275 151.044 205.912C151.044 205.912 151.901 137.553 149.963 127.737C147.031 112.896 142.68 105.839 127.332 104.947L112.024 103.697Z" fill="#4D4181"/>
<path d="M120.653 67.0174L116.266 69.4387C115.619 68.1787 116.077 66.6147 117.288 65.9467C118.501 65.2774 120.007 65.7574 120.653 67.0174Z" fill="#353866"/>
<path d="M139.723 68.7841L135.721 65.7027C136.537 64.5561 138.095 64.3174 139.2 65.1681C140.304 66.0201 140.539 67.6387 139.723 68.7841Z" fill="#353866"/>
<path d="M100.488 53.0588C100.488 53.0588 95.7702 53.7147 94.0406 57.2707C92.5359 60.3627 93.0811 67.8294 95.0854 75.9654C97.0906 84.1014 98.9802 89.0027 100.159 91.2534C101.338 93.5054 103.76 94.1387 103.76 94.1387L103.525 84.4841L103.176 77.7574C103.176 77.7574 107.494 71.8601 107.969 67.0281C108.579 60.8081 107.27 58.2628 107.27 58.2628L100.488 53.0588Z" fill="#353866"/>
<path d="M108.106 62.4001C108.137 72.3561 116.235 80.4014 126.192 80.3681C136.148 80.3361 143.611 72.168 143.579 62.2134C143.547 52.256 136.031 44.2814 126.074 44.3134C116.118 44.3467 108.073 52.4441 108.106 62.4001Z" fill="#353866"/>
<path d="M103.43 76.6841C101.808 78.0907 100.487 74.4494 99.1219 73.0294C97.7568 71.6107 93.3084 69.6787 91.1079 74.3561C88.8651 79.1214 93.0484 85.8228 96.4703 87.1361C100.179 88.5614 102.28 85.3574 102.28 85.3574V106.751C107.41 115.993 116.466 115.709 121.299 115.189C126.133 114.668 127.196 109.639 123.663 105.584L123.624 98.9681C123.624 98.9681 129.087 99.7787 131.749 99.3587C136.179 98.6587 138.495 95.3174 139.824 90.5147C141.959 82.8027 142.816 69.8401 139.851 54.8654C134.888 51.0267 117.682 51.6627 107.27 58.2627C108.032 71.5441 105.053 75.2774 103.43 76.6841Z" fill="#F6879F"/>
<path d="M140.672 47.308C141.34 44.532 141.641 41.6694 141.568 38.8161C141.539 37.6868 141.292 36.3294 140.243 35.9107C139.224 35.5054 138.152 36.2534 137.244 36.868C133.409 39.4574 128.629 40.1867 124.009 40.44C116.033 40.8787 103.775 40.3574 99.7093 49.1147C98.5817 51.5427 98.3875 54.1014 100.617 55.78C102.519 57.2134 104.956 57.8601 107.27 58.2627C111.311 58.9667 115.319 59.8561 119.387 60.3961C123.532 60.9454 128.364 61.4841 132.437 60.2281C135.857 59.1721 139.336 58.2654 141.891 55.5414C144.084 53.204 145.357 50.0267 145.387 46.8227C145.391 46.3667 145.283 45.7934 144.84 45.6841C144.617 45.6294 144.387 45.72 144.176 45.8107C143.008 46.3107 141.84 46.808 140.672 47.308Z" fill="#353866"/>
<path d="M123.624 98.9681C123.624 98.9681 113.723 97.0067 110.259 95.1787C107.94 93.9561 106.025 91.8294 105.462 90.4641C105.462 90.4641 106.119 93.3974 108.196 96.0348C110.736 99.2601 123.632 101.6 123.632 101.6L123.624 98.9681Z" fill="#F47089"/>
<path d="M121.633 73.5774C121.637 74.852 120.646 75.8854 119.42 75.8867C118.193 75.8867 117.196 74.8547 117.191 73.58C117.187 72.3054 118.178 71.272 119.405 71.2707C120.631 71.2707 121.629 72.3027 121.633 73.5774Z" fill="#353866"/>
<path d="M124.83 88.9734C124.834 90.172 123.902 91.144 122.748 91.144C121.595 91.144 120.657 90.1734 120.653 88.9747C120.649 87.7774 121.581 86.8054 122.735 86.8054C123.887 86.8054 124.826 87.7747 124.83 88.9734Z" fill="#C35363"/>
<path d="M118.833 66.5707L114.242 69.4628C113.463 68.1414 113.86 66.4214 115.128 65.6228C116.396 64.8241 118.055 65.2481 118.833 66.5707Z" fill="#353866"/>
<path d="M135.024 63.7441L139.849 65.8988C139.299 67.2641 137.773 67.8894 136.441 67.2934C135.109 66.6988 134.475 65.1081 135.024 63.7441Z" fill="#353866"/>
<path d="M137.568 72.9054C137.572 74.1361 136.615 75.1361 135.429 75.1361C134.244 75.1361 133.28 74.1387 133.275 72.9067C133.272 71.6761 134.229 70.6774 135.415 70.6761C136.6 70.6761 137.565 71.6734 137.568 72.9054Z" fill="#353866"/>
<path d="M126.665 69.144L127.455 83.9654L134.484 82.104L126.665 69.144Z" fill="#F47089"/>
<path d="M2.12914 130.212C4.43434 131.457 13.8338 138.063 18.9374 138.636C21.1 138.877 21.6864 138.529 21.6 137.967C21.4828 137.199 20.1202 136.032 19.7874 135.407C19.2104 134.321 15.774 129.787 17.1026 127.431C18.4312 125.076 19.5901 127.336 22.7745 130.441C25.9578 133.545 29.1994 134.617 31.9833 138.244C34.7666 141.869 35.6973 147.593 40.3084 151.723L58.6906 164.261C58.6906 164.261 67.2484 124.539 71.0036 119.863C74.9489 114.947 92.1734 125.665 88.5724 141.301C84.9713 156.936 76.7978 184.059 71.1245 189.388C67.4546 192.835 59.7016 189.579 50.0328 180.979C42.3969 174.188 31.9229 163.947 27.5609 160.369C23.1989 156.792 13.9254 154.809 9.69633 152.317C5.15518 149.641 4.1583 148.084 2.41455 144.56C0.771842 141.239 1.5057 135.921 0.532259 133.913C-0.440658 131.904 -0.176074 128.967 2.12914 130.212Z" fill="#F6879F"/>
<path d="M85.2645 109.435C91.1505 113.123 91.4489 118.484 91.7412 124.611C92.0104 130.251 90.8765 138.035 88.3844 145.728C85.8844 153.445 81.9234 167.544 81.9234 167.544C81.9234 167.544 66.536 167.9 58.6188 161.06C58.6188 161.06 62.2302 145.868 64.7792 134.445C67.3276 123.021 70.427 110.728 85.2645 109.435Z" fill="#353866"/>
<path d="M58.6907 164.261C62.8839 166.593 65.3469 171.608 66.1188 173.588C66.1188 173.588 65.9885 166.544 59.1219 162.217L58.6907 164.261Z" fill="#F47089"/>
<path d="M218.316 452.443L321.221 511.856V533.745L218.316 474.332V452.443Z" fill="#50549A"/>
<path d="M321.221 533.745L218.316 474.332V452.443L321.221 511.856V533.745ZM268.261 500.611C269.16 501.112 270.009 501.349 270.765 501.349C271.423 501.349 272.009 501.169 272.496 500.827C273.085 500.475 274.616 499.553 274.797 499.449C275.853 498.841 276.509 497.541 276.509 495.683C276.509 491.964 273.899 487.444 270.679 485.584C269.747 485.047 268.867 484.792 268.085 484.792C267.517 484.792 267.003 484.927 266.559 485.184C266.373 485.292 264.752 486.267 264.2 486.596C263.051 487.163 262.331 488.504 262.331 490.456C262.331 494.173 264.941 498.695 268.161 500.553C268.195 500.573 268.228 500.592 268.261 500.611Z" fill="#353866"/>
<path d="M424.127 452.443L321.221 511.856V533.745L424.127 474.332V452.443Z" fill="#50549A"/>
<path d="M321.221 533.745V511.856L424.127 452.443V474.332L321.221 533.745Z" fill="#6368C0"/>
<path d="M424.127 452.443L321.22 393.031L218.316 452.443L321.221 511.856L424.127 452.443Z" fill="#50549A"/>
<path d="M321.221 511.856V505.603L229.147 452.443H218.316L321.22 393.031L424.127 452.443L321.22 393.031L321.221 399.285L413.295 452.443H424.127L321.221 511.856Z" fill="#6368C0"/>
<path d="M321.221 511.856L218.316 452.443H229.147L321.221 505.603V511.856Z" fill="#50549A"/>
<path d="M424.127 452.443H413.295L321.221 399.285L321.22 393.031L424.127 452.443Z" fill="#50549A"/>
<path d="M424.127 452.444H413.295L321.221 505.603V511.856L424.127 452.444Z" fill="#50549A"/>
<path d="M321.22 393.031L321.221 399.285L229.147 452.444H218.316L321.22 393.031Z" fill="#50549A"/>
<path d="M321.593 426.699L365.812 452.229C369.12 454.139 369.12 457.236 365.812 459.147L332.832 478.188C329.523 480.097 324.159 480.097 320.849 478.188L276.631 452.657C273.323 450.748 273.323 447.651 276.631 445.74L309.611 426.699C312.919 424.789 318.283 424.789 321.593 426.699Z" fill="#4D4181"/>
<path d="M332.832 478.188L364.721 459.776L321.593 434.876C318.283 432.965 312.919 432.965 309.611 434.876L277.721 453.287L320.849 478.188C324.159 480.097 329.523 480.097 332.832 478.188Z" fill="#353866"/>
<path d="M294.895 452.481L314.237 441.313C314.875 440.944 315.911 440.944 316.548 441.309L318.929 442.676C319.567 443.043 319.568 443.639 318.929 444.007L299.587 455.176C298.949 455.544 297.915 455.545 297.276 455.179L294.896 453.812C294.257 453.444 294.257 452.849 294.895 452.481Z" fill="#6368C0"/>
<path d="M323.788 469.188L343.131 458.02C343.768 457.652 344.803 457.651 345.441 458.017L347.821 459.383C348.46 459.751 348.461 460.346 347.823 460.713L328.481 471.883C327.843 472.251 326.808 472.252 326.169 471.885L323.789 470.518C323.151 470.152 323.151 469.556 323.788 469.188Z" fill="#6368C0"/>
<path d="M276.509 495.683C276.509 491.964 273.899 487.444 270.679 485.584C269.068 484.655 267.613 484.572 266.559 485.184C266.347 485.308 264.251 486.568 264.035 486.694C262.984 487.303 262.332 488.603 262.332 490.456C262.332 494.173 264.941 498.695 268.161 500.553C269.775 501.485 271.231 501.567 272.285 500.952C272.496 500.829 274.584 499.572 274.797 499.449C275.853 498.841 276.509 497.541 276.509 495.683Z" fill="#50549A"/>
<path d="M270.765 501.349C270.009 501.349 269.16 501.112 268.261 500.611C269.157 501.11 270.003 501.347 270.755 501.347C271.324 501.347 271.84 501.211 272.285 500.952C272.317 500.934 272.392 500.889 272.496 500.827C272.009 501.17 271.423 501.349 270.765 501.349ZM268.161 500.553C264.941 498.695 262.331 494.173 262.331 490.456C262.331 488.504 263.051 487.163 264.2 486.596C264.12 486.644 264.061 486.679 264.035 486.694C262.984 487.303 262.332 488.603 262.332 490.456C262.332 494.173 264.941 498.695 268.161 500.553Z" fill="#088D7A"/>
<path d="M270.755 501.347C270.003 501.347 269.157 501.11 268.261 500.611C268.228 500.592 268.195 500.573 268.161 500.553C264.941 498.695 262.332 494.173 262.332 490.456C262.332 488.603 262.984 487.303 264.035 486.693C264.061 486.679 264.12 486.644 264.2 486.596C264.604 486.397 265.06 486.293 265.557 486.293C266.341 486.293 267.225 486.549 268.161 487.089C271.381 488.949 273.991 493.469 273.991 497.188C273.991 498.918 273.425 500.171 272.496 500.827C272.392 500.889 272.317 500.934 272.285 500.952C271.84 501.211 271.324 501.347 270.755 501.347Z" fill="#6368C0"/>
<path d="M200.509 529.682C193.795 529.682 187.08 528.171 181.848 525.152L113.584 485.739C108.097 482.571 105.077 478.199 105.077 473.428C105.077 468.659 108.098 464.287 113.584 461.118L192.68 415.452C201.345 410.449 208.668 397.769 208.668 387.763V137.456C208.668 135.983 209.861 134.789 211.335 134.789C212.807 134.789 214.001 135.983 214.001 137.456V387.763C214.001 399.84 205.807 414.033 195.347 420.072L116.251 465.739C112.484 467.913 110.41 470.644 110.41 473.428C110.41 476.213 112.484 478.944 116.251 481.118L184.515 520.532C193.331 525.622 207.677 525.623 216.492 520.536L266.828 491.491C268.105 490.753 269.735 491.192 270.471 492.467C271.207 493.743 270.769 495.375 269.495 496.111L219.159 525.156C213.929 528.172 207.22 529.682 200.509 529.682Z" fill="#4D4181"/>
<path d="M75.3114 13.6561C75.239 13.2801 75.313 12.9281 75.5343 12.6001C75.7567 12.2695 76.0562 12.0695 76.4322 11.9975L82.925 10.7468C83.3035 10.6735 83.6551 10.7494 83.9811 10.9708C84.3119 11.1934 84.5114 11.4935 84.5838 11.8695L88.8614 34.0734C88.9338 34.4508 88.8603 34.8028 88.6374 35.1294C88.4171 35.4588 88.1177 35.6575 87.739 35.7308L81.2469 36.9814C80.8707 37.0534 80.5177 36.9801 80.1906 36.7588C79.8614 36.5375 79.6625 36.2374 79.5895 35.8601L75.3114 13.6561ZM80.7212 41.7321C80.6494 41.3548 80.7213 41.0015 80.9437 40.6721C81.1661 40.3455 81.4661 40.1454 81.8426 40.0734L88.3349 38.8228C88.713 38.7495 89.0644 38.8255 89.3916 39.0441C89.7202 39.2668 89.9207 39.5668 89.9937 39.9441L90.9958 45.1468C91.0687 45.5254 90.9952 45.8788 90.7702 46.2041C90.551 46.5348 90.2521 46.7334 89.8734 46.8054L83.3811 48.0561C83.0046 48.1295 82.6526 48.0561 82.3234 47.8321C81.9958 47.6135 81.7963 47.3135 81.7234 46.9348L80.7212 41.7321Z" fill="#50549A"/>
<path d="M50.8197 42.192C50.564 41.9054 50.4469 41.5654 50.4677 41.1681C50.4901 40.7721 50.6426 40.4467 50.9286 40.192L55.853 35.7814C56.1406 35.524 56.4822 35.4067 56.876 35.4294C57.2729 35.448 57.5973 35.604 57.853 35.8894L72.939 52.7334C73.1964 53.0187 73.3145 53.36 73.2901 53.756C73.2697 54.1507 73.1161 54.4761 72.8286 54.7334L67.9041 59.144C67.6182 59.3987 67.2781 59.5161 66.8817 59.4961C66.4885 59.4734 66.163 59.3214 65.9057 59.0321L50.8197 42.192ZM69.8953 63.488C69.639 63.2027 69.5207 62.8614 69.5421 62.4654C69.5661 62.0681 69.7182 61.744 70.0041 61.4894L74.9286 57.0787C75.2172 56.8214 75.5578 56.7027 75.95 56.7254C76.3478 56.748 76.6734 56.9 76.9292 57.1867L80.4645 61.1347C80.7224 61.4227 80.8395 61.7614 80.8161 62.1574C80.7958 62.5507 80.6401 62.8774 80.3535 63.1347L75.4292 67.5454C75.1432 67.8014 74.8041 67.9187 74.4078 67.8961C74.0125 67.8774 73.6869 67.7214 73.4302 67.4361L69.8953 63.488Z" fill="#50549A"/>
<path d="M74.5011 67.8987C74.4703 67.8987 74.4391 67.8987 74.4079 67.8961C74.0126 67.8774 73.687 67.7214 73.4303 67.4361L69.8954 63.4881C69.6588 63.2254 69.5402 62.9147 69.5396 62.5574C69.5396 62.5267 69.5401 62.4961 69.5421 62.4654C69.5661 62.0681 69.7183 61.7441 70.0042 61.4894L74.9287 57.0787C75.1938 56.8414 75.5027 56.7227 75.8558 56.7227C75.887 56.7227 75.9183 56.7241 75.95 56.7254C76.3479 56.7481 76.6735 56.9001 76.9292 57.1867L80.4646 61.1347C80.7 61.3974 80.8183 61.7027 80.8194 62.0561C80.8194 62.0894 80.8183 62.1241 80.8161 62.1574C80.7959 62.5507 80.6401 62.8774 80.3536 63.1347L75.4292 67.5454C75.1662 67.7814 74.8579 67.8987 74.5011 67.8987ZM66.9662 59.4987C66.938 59.4987 66.9104 59.4974 66.8818 59.4961C66.4886 59.4734 66.1631 59.3214 65.9058 59.0321L50.8198 42.1921C50.5839 41.9281 50.4662 41.6174 50.4651 41.2601C50.4651 41.2294 50.4662 41.2001 50.4678 41.1681C50.4902 40.7721 50.6427 40.4467 50.9287 40.1921L55.8531 35.7814C56.1178 35.5454 56.4276 35.4267 56.7818 35.4267C56.8131 35.4267 56.8443 35.4267 56.876 35.4294C57.273 35.448 57.5974 35.6041 57.8531 35.8894L72.9391 52.7334C73.174 52.9947 73.2932 53.3014 73.2932 53.6561C73.2932 53.6894 73.2922 53.7227 73.2902 53.7561C73.2698 54.1507 73.1162 54.4761 72.8287 54.7334L67.9042 59.1441C67.6386 59.3801 67.3266 59.4987 66.9662 59.4987Z" fill="#6368C0"/>
<path d="M227.521 58.04C227.749 58.04 227.945 58.124 228.111 58.2893C228.276 58.4546 228.359 58.6507 228.359 58.8773V62.1613C228.359 62.3893 228.276 62.5853 228.111 62.7506C227.945 62.916 227.749 62.9987 227.521 62.9987H212.836C212.608 62.9987 212.412 62.916 212.247 62.7506C212.081 62.5853 212 62.3893 212 62.1613V42.1466C212 41.9186 212.081 41.7226 212.247 41.5573C212.412 41.392 212.608 41.3093 212.836 41.3093H227.275C227.501 41.3093 227.697 41.392 227.863 41.5573C228.028 41.7226 228.111 41.9186 228.111 42.1466V45.4307C228.111 45.6573 228.028 45.8546 227.863 46.0186C227.697 46.1853 227.501 46.268 227.275 46.268H217.731V49.6133H226.592C226.82 49.6133 227.015 49.696 227.181 49.8613C227.345 50.0267 227.429 50.2226 227.429 50.4493V53.7347C227.429 53.9613 227.345 54.1573 227.181 54.3226C227.015 54.488 226.82 54.5707 226.592 54.5707H217.731V58.04H227.521Z" fill="#50549A"/>
<path d="M237.653 50.6973H241.155C242.021 50.6973 242.739 50.5333 243.308 50.2013C243.876 49.872 244.16 49.2733 244.16 48.404C244.16 47.5373 243.876 46.9387 243.308 46.608C242.739 46.2773 242.021 46.112 241.155 46.112H237.653V50.6973ZM241.155 41.3093C242.517 41.3093 243.736 41.4547 244.811 41.7427C245.884 42.0333 246.797 42.4667 247.553 43.044C248.307 43.6227 248.885 44.3613 249.287 45.26C249.691 46.1587 249.892 47.2067 249.892 48.404C249.892 49.9547 249.571 51.24 248.932 52.2627C248.291 53.2853 247.383 54.0653 246.205 54.6013L250.047 61.976C250.109 62.1 250.14 62.2133 250.14 62.316C250.14 62.5026 250.072 62.6627 249.939 62.7973C249.804 62.9307 249.644 62.9987 249.457 62.9987H245.244C244.831 62.9987 244.536 62.9053 244.361 62.72C244.185 62.5333 244.047 62.348 243.943 62.1613L240.504 55.5307H237.653V62.1613C237.653 62.3893 237.569 62.5853 237.405 62.7506C237.239 62.916 237.044 62.9987 236.816 62.9987H232.757C232.529 62.9987 232.335 62.916 232.169 62.7506C232.004 62.5853 231.921 62.3893 231.921 62.1613V42.1466C231.921 41.9186 232.004 41.7226 232.169 41.5573C232.335 41.392 232.529 41.3093 232.757 41.3093H241.155Z" fill="#50549A"/>
<path d="M259.187 50.6973H262.688C263.556 50.6973 264.273 50.5333 264.841 50.2013C265.409 49.872 265.693 49.2733 265.693 48.404C265.693 47.5373 265.409 46.9387 264.841 46.608C264.273 46.2773 263.556 46.112 262.688 46.112H259.187V50.6973ZM262.688 41.3093C264.052 41.3093 265.271 41.4547 266.344 41.7427C267.417 42.0333 268.332 42.4667 269.087 43.044C269.84 43.6227 270.419 44.3613 270.821 45.26C271.225 46.1587 271.425 47.2067 271.425 48.404C271.425 49.9547 271.105 51.24 270.465 52.2627C269.825 53.2853 268.916 54.0653 267.739 54.6013L271.58 61.976C271.643 62.1 271.673 62.2133 271.673 62.316C271.673 62.5026 271.607 62.6627 271.472 62.7973C271.339 62.9307 271.177 62.9987 270.992 62.9987H266.779C266.364 62.9987 266.069 62.9053 265.895 62.72C265.72 62.5333 265.58 62.348 265.476 62.1613L262.037 55.5307H259.187V62.1613C259.187 62.3893 259.104 62.5853 258.94 62.7506C258.773 62.916 258.577 62.9987 258.349 62.9987H254.291C254.063 62.9987 253.868 62.916 253.703 62.7506C253.537 62.5853 253.455 62.3893 253.455 62.1613V42.1466C253.455 41.9186 253.537 41.7226 253.703 41.5573C253.868 41.392 254.063 41.3093 254.291 41.3093H262.688Z" fill="#50549A"/>
<path d="M302.732 50.388H306.233C307.101 50.388 307.819 50.224 308.387 49.892C308.955 49.5627 309.239 48.964 309.239 48.0947C309.239 47.228 308.955 46.6293 308.387 46.2987C307.819 45.968 307.101 45.8026 306.233 45.8026H302.732V50.388ZM306.233 41C307.597 41 308.816 41.1453 309.889 41.4333C310.963 41.724 311.877 42.1573 312.632 42.7347C313.385 43.3133 313.964 44.052 314.367 44.9507C314.771 45.8493 314.971 46.8973 314.971 48.0947C314.971 49.6453 314.651 50.9307 314.011 51.9533C313.371 52.976 312.461 53.756 311.284 54.292L315.125 61.6667C315.188 61.7907 315.219 61.904 315.219 62.0066C315.219 62.1933 315.152 62.3533 315.017 62.488C314.884 62.6213 314.723 62.6893 314.537 62.6893H310.324C309.909 62.6893 309.615 62.596 309.44 62.4107C309.265 62.224 309.125 62.0387 309.021 61.852L305.583 55.2213H302.732V61.852C302.732 62.08 302.649 62.276 302.485 62.4413C302.319 62.6067 302.123 62.6893 301.895 62.6893H297.836C297.608 62.6893 297.413 62.6067 297.248 62.4413C297.083 62.276 297 62.08 297 61.852V41.8373C297 41.6093 297.083 41.4133 297.248 41.248C297.413 41.0827 297.608 41 297.836 41H306.233Z" fill="#50549A"/>
<path d="M287.879 54.756C287.897 54.3853 287.919 53.972 287.94 53.5173C287.96 53.064 287.971 52.5986 287.971 52.1226C287.971 51.648 287.96 51.188 287.94 50.744C287.919 50.3 287.897 49.9026 287.879 49.5506C287.837 49.0346 287.728 48.56 287.553 48.1253C287.377 47.692 287.129 47.316 286.809 46.9946C286.489 46.676 286.091 46.4226 285.617 46.236C285.141 46.0506 284.583 45.9573 283.944 45.9573C283.303 45.9573 282.744 46.0506 282.271 46.236C281.795 46.4226 281.396 46.676 281.077 46.9946C280.756 47.316 280.508 47.692 280.333 48.1253C280.157 48.56 280.049 49.0346 280.008 49.5506C279.967 49.9026 279.941 50.3 279.931 50.744C279.92 51.188 279.915 51.648 279.915 52.1226C279.915 52.5986 279.92 53.064 279.931 53.5173C279.941 53.972 279.967 54.3853 280.008 54.756C280.091 55.7893 280.447 56.6466 281.077 57.328C281.707 58.0106 282.663 58.3506 283.944 58.3506C285.224 58.3506 286.173 58.0106 286.793 57.328C287.413 56.6466 287.775 55.7893 287.879 54.756ZM274.276 49.396C274.339 48.24 274.591 47.1493 275.035 46.128C275.479 45.1053 276.109 44.2173 276.925 43.464C277.74 42.7093 278.732 42.1106 279.899 41.6653C281.065 41.2213 282.413 41 283.944 41C285.451 41 286.793 41.2213 287.971 41.6653C289.148 42.1106 290.145 42.7093 290.96 43.464C291.777 44.2173 292.407 45.1053 292.851 46.128C293.295 47.1493 293.548 48.24 293.611 49.396C293.652 50.2853 293.672 51.2146 293.672 52.1853C293.672 53.156 293.652 54.0653 293.611 54.912C293.548 56.068 293.295 57.1573 292.851 58.18C292.407 59.2026 291.777 60.0973 290.96 60.86C290.145 61.6253 289.148 62.224 287.971 62.6573C286.793 63.092 285.451 63.308 283.944 63.308C282.413 63.308 281.065 63.092 279.899 62.6573C278.732 62.224 277.74 61.6253 276.925 60.86C276.109 60.0973 275.479 59.2026 275.035 58.18C274.591 57.1573 274.339 56.068 274.276 54.912C274.233 54.0653 274.215 53.156 274.215 52.1853C274.215 51.2146 274.233 50.2853 274.276 49.396Z" fill="#50549A"/>
<path d="M344.775 54.3361V48.6348L340.251 54.3361H344.775ZM345.455 63.2908C345.228 63.2908 345.032 63.2081 344.867 63.0428C344.701 62.8774 344.62 62.6814 344.62 62.4534V59.2934H334.86C334.632 59.2934 334.436 59.2108 334.271 59.0454C334.104 58.8801 334.023 58.6841 334.023 58.4574V55.1721C334.023 54.6361 334.157 54.1921 334.427 53.8401L343.689 42.1601C343.876 41.9321 344.047 41.7828 344.201 41.7108C344.356 41.6388 344.567 41.6014 344.836 41.6014H349.515C349.743 41.6014 349.937 41.6841 350.104 41.8494C350.267 42.0148 350.351 42.2108 350.351 42.4388V54.3361H353.015C353.243 54.3361 353.437 54.4188 353.604 54.5841C353.769 54.7494 353.853 54.9454 353.853 55.1721V58.4574C353.853 58.6841 353.769 58.8801 353.604 59.0454C353.437 59.2108 353.243 59.2934 353.015 59.2934H350.351V62.4534C350.351 62.6814 350.267 62.8774 350.104 63.0428C349.937 63.2081 349.743 63.2908 349.515 63.2908H345.455Z" fill="#50549A"/>
<path d="M368.817 55.0481C368.899 53.2934 368.899 51.5587 368.817 49.8427C368.776 49.3267 368.699 48.8521 368.584 48.4174C368.471 47.9841 368.289 47.6081 368.043 47.2868C367.795 46.9681 367.465 46.7148 367.052 46.5281C366.637 46.3428 366.121 46.2494 365.503 46.2494C364.881 46.2494 364.365 46.3428 363.953 46.5281C363.539 46.7148 363.209 46.9681 362.96 47.2868C362.713 47.6081 362.527 47.9841 362.404 48.4174C362.28 48.8521 362.207 49.3267 362.188 49.8427C362.083 51.5587 362.083 53.2934 362.188 55.0481C362.207 55.5654 362.275 56.0401 362.387 56.4747C362.5 56.9081 362.688 57.2841 362.947 57.6054C363.204 57.9254 363.539 58.1774 363.953 58.3641C364.365 58.5508 364.881 58.6427 365.503 58.6427C366.121 58.6427 366.637 58.5508 367.052 58.3641C367.465 58.1774 367.799 57.9254 368.059 57.6054C368.316 57.2841 368.503 56.9081 368.615 56.4747C368.728 56.0401 368.797 55.5654 368.817 55.0481ZM365.503 41.2921C367.052 41.2921 368.383 41.5201 369.499 41.9734C370.615 42.4281 371.539 43.0374 372.271 43.8014C373.004 44.5654 373.553 45.4587 373.915 46.4814C374.276 47.5041 374.487 48.5734 374.548 49.6881C374.592 50.5774 374.611 51.5067 374.611 52.4774C374.611 53.4481 374.592 54.3574 374.548 55.2041C374.487 56.3187 374.276 57.3881 373.915 58.4107C373.553 59.4334 373.004 60.3268 372.271 61.0908C371.539 61.8548 370.615 62.4641 369.499 62.9187C368.383 63.3721 367.052 63.6001 365.503 63.6001C363.953 63.6001 362.62 63.3721 361.504 62.9187C360.388 62.4641 359.465 61.8548 358.732 61.0908C357.999 60.3268 357.451 59.4334 357.089 58.4107C356.727 57.3881 356.516 56.3187 356.453 55.2041C356.412 54.3574 356.392 53.4481 356.392 52.4774C356.392 51.5067 356.412 50.5774 356.453 49.6881C356.516 48.5734 356.727 47.5041 357.089 46.4814C357.451 45.4587 357.999 44.5654 358.732 43.8014C359.465 43.0374 360.388 42.4281 361.504 41.9734C362.62 41.5201 363.953 41.2921 365.503 41.2921Z" fill="#50549A"/>
<path d="M387.872 54.3361V48.6348L383.348 54.3361H387.872ZM388.553 63.2908C388.325 63.2908 388.131 63.2081 387.965 63.0428C387.799 62.8774 387.716 62.6814 387.716 62.4534V59.2934H377.956C377.728 59.2934 377.533 59.2108 377.368 59.0454C377.204 58.8801 377.12 58.6841 377.12 58.4574V55.1721C377.12 54.6361 377.255 54.1921 377.523 53.8401L386.787 42.1601C386.973 41.9321 387.144 41.7828 387.299 41.7108C387.453 41.6388 387.665 41.6014 387.932 41.6014H392.613C392.839 41.6014 393.035 41.6841 393.201 41.8494C393.365 42.0148 393.448 42.2108 393.448 42.4388V54.3361H396.113C396.341 54.3361 396.537 54.4188 396.704 54.5841C396.867 54.7494 396.949 54.9454 396.949 55.1721V58.4574C396.949 58.6841 396.867 58.8801 396.704 59.0454C396.537 59.2108 396.341 59.2934 396.113 59.2934H393.448V62.4534C393.448 62.6814 393.365 62.8774 393.201 63.0428C393.035 63.2081 392.839 63.2908 392.613 63.2908H388.553Z" fill="#50549A"/>
<path d="M194.656 25V2.6H204.352C206.357 2.6 208.085 2.93067 209.536 3.592C210.987 4.232 212.107 5.16 212.896 6.376C213.685 7.592 214.08 9.04267 214.08 10.728C214.08 12.392 213.685 13.832 212.896 15.048C212.107 16.264 210.987 17.2027 209.536 17.864C208.085 18.504 206.357 18.824 204.352 18.824H197.536L199.84 16.488V25H194.656ZM199.84 17.064L197.536 14.6H204.064C205.664 14.6 206.859 14.2587 207.648 13.576C208.437 12.8933 208.832 11.944 208.832 10.728C208.832 9.49067 208.437 8.53067 207.648 7.848C206.859 7.16533 205.664 6.824 204.064 6.824H197.536L199.84 4.36V17.064ZM227.833 25V21.64L227.513 20.904V14.888C227.513 13.8213 227.182 12.9893 226.521 12.392C225.881 11.7947 224.889 11.496 223.545 11.496C222.627 11.496 221.721 11.6453 220.825 11.944C219.95 12.2213 219.203 12.6053 218.585 13.096L216.793 9.608C217.731 8.94667 218.862 8.43467 220.185 8.072C221.507 7.70933 222.851 7.528 224.217 7.528C226.841 7.528 228.878 8.14667 230.329 9.384C231.779 10.6213 232.505 12.552 232.505 15.176V25H227.833ZM222.585 25.256C221.241 25.256 220.089 25.032 219.129 24.584C218.169 24.1147 217.433 23.4853 216.921 22.696C216.409 21.9067 216.153 21.0213 216.153 20.04C216.153 19.016 216.398 18.12 216.889 17.352C217.401 16.584 218.201 15.9867 219.289 15.56C220.377 15.112 221.795 14.888 223.545 14.888H228.121V17.8H224.089C222.915 17.8 222.105 17.992 221.657 18.376C221.23 18.76 221.017 19.24 221.017 19.816C221.017 20.456 221.262 20.968 221.753 21.352C222.265 21.7147 222.958 21.896 223.833 21.896C224.665 21.896 225.411 21.704 226.073 21.32C226.734 20.9147 227.214 20.328 227.513 19.56L228.281 21.864C227.918 22.9733 227.257 23.816 226.297 24.392C225.337 24.968 224.099 25.256 222.585 25.256ZM245.244 31.464C243.622 31.464 242.054 31.2613 240.54 30.856C239.046 30.472 237.798 29.8853 236.796 29.096L238.78 25.512C239.505 26.1093 240.422 26.5787 241.532 26.92C242.662 27.2827 243.772 27.464 244.86 27.464C246.63 27.464 247.91 27.0693 248.7 26.28C249.51 25.4907 249.916 24.3173 249.916 22.76V20.168L250.236 15.848L250.172 11.496V7.784H254.908V22.12C254.908 25.32 254.076 27.6773 252.412 29.192C250.748 30.7067 248.358 31.464 245.244 31.464ZM244.476 24.168C242.876 24.168 241.425 23.8267 240.124 23.144C238.844 22.44 237.809 21.4693 237.02 20.232C236.252 18.9733 235.868 17.512 235.868 15.848C235.868 14.1627 236.252 12.7013 237.02 11.464C237.809 10.2053 238.844 9.23467 240.124 8.552C241.425 7.86933 242.876 7.528 244.476 7.528C245.926 7.528 247.206 7.82667 248.316 8.424C249.425 9 250.289 9.90667 250.908 11.144C251.526 12.36 251.836 13.928 251.836 15.848C251.836 17.7467 251.526 19.3147 250.908 20.552C250.289 21.768 249.425 22.6747 248.316 23.272C247.206 23.8693 245.926 24.168 244.476 24.168ZM245.468 20.072C246.342 20.072 247.121 19.9013 247.804 19.56C248.486 19.1973 249.02 18.696 249.404 18.056C249.788 17.416 249.98 16.68 249.98 15.848C249.98 14.9947 249.788 14.2587 249.404 13.64C249.02 13 248.486 12.5093 247.804 12.168C247.121 11.8053 246.342 11.624 245.468 11.624C244.593 11.624 243.814 11.8053 243.132 12.168C242.449 12.5093 241.905 13 241.5 13.64C241.116 14.2587 240.924 14.9947 240.924 15.848C240.924 16.68 241.116 17.416 241.5 18.056C241.905 18.696 242.449 19.1973 243.132 19.56C243.814 19.9013 244.593 20.072 245.468 20.072ZM268.098 25.256C266.135 25.256 264.407 24.872 262.914 24.104C261.442 23.336 260.301 22.2907 259.49 20.968C258.679 19.624 258.274 18.0987 258.274 16.392C258.274 14.664 258.669 13.1387 259.458 11.816C260.269 10.472 261.367 9.42667 262.754 8.68C264.141 7.912 265.709 7.528 267.458 7.528C269.143 7.528 270.658 7.89067 272.002 8.616C273.367 9.32 274.445 10.344 275.234 11.688C276.023 13.0107 276.418 14.6 276.418 16.456C276.418 16.648 276.407 16.872 276.386 17.128C276.365 17.3627 276.343 17.5867 276.322 17.8H262.338V14.888H273.698L271.778 15.752C271.778 14.856 271.597 14.0773 271.234 13.416C270.871 12.7547 270.37 12.2427 269.73 11.88C269.09 11.496 268.343 11.304 267.49 11.304C266.637 11.304 265.879 11.496 265.218 11.88C264.578 12.2427 264.077 12.7653 263.714 13.448C263.351 14.1093 263.17 14.8987 263.17 15.816V16.584C263.17 17.5227 263.373 18.3547 263.778 19.08C264.205 19.784 264.791 20.328 265.538 20.712C266.306 21.0747 267.202 21.256 268.226 21.256C269.143 21.256 269.943 21.1173 270.626 20.84C271.33 20.5627 271.97 20.1467 272.546 19.592L275.202 22.472C274.413 23.368 273.421 24.0613 272.226 24.552C271.031 25.0213 269.655 25.256 268.098 25.256ZM299.268 7.528C300.633 7.528 301.849 7.80533 302.916 8.36C304.004 8.89333 304.857 9.72533 305.476 10.856C306.095 11.9653 306.404 13.3947 306.404 15.144V25H301.412V15.912C301.412 14.5253 301.103 13.5013 300.484 12.84C299.887 12.1787 299.033 11.848 297.924 11.848C297.135 11.848 296.42 12.0187 295.78 12.36C295.161 12.68 294.671 13.1813 294.308 13.864C293.967 14.5467 293.796 15.4213 293.796 16.488V25H288.804V7.784H293.572V12.552L292.676 11.112C293.295 9.96 294.18 9.07467 295.332 8.456C296.484 7.83733 297.796 7.528 299.268 7.528ZM319.246 25.256C317.411 25.256 315.779 24.872 314.35 24.104C312.942 23.336 311.822 22.2907 310.99 20.968C310.179 19.624 309.774 18.0987 309.774 16.392C309.774 14.664 310.179 13.1387 310.99 11.816C311.822 10.472 312.942 9.42667 314.35 8.68C315.779 7.912 317.411 7.528 319.246 7.528C321.059 7.528 322.681 7.912 324.11 8.68C325.539 9.42667 326.659 10.4613 327.47 11.784C328.281 13.1067 328.686 14.6427 328.686 16.392C328.686 18.0987 328.281 19.624 327.47 20.968C326.659 22.2907 325.539 23.336 324.11 24.104C322.681 24.872 321.059 25.256 319.246 25.256ZM319.246 21.16C320.078 21.16 320.825 20.968 321.486 20.584C322.147 20.2 322.67 19.656 323.054 18.952C323.438 18.2267 323.63 17.3733 323.63 16.392C323.63 15.3893 323.438 14.536 323.054 13.832C322.67 13.128 322.147 12.584 321.486 12.2C320.825 11.816 320.078 11.624 319.246 11.624C318.414 11.624 317.667 11.816 317.006 12.2C316.345 12.584 315.811 13.128 315.406 13.832C315.022 14.536 314.83 15.3893 314.83 16.392C314.83 17.3733 315.022 18.2267 315.406 18.952C315.811 19.656 316.345 20.2 317.006 20.584C317.667 20.968 318.414 21.16 319.246 21.16ZM339.063 25.256C337.036 25.256 335.457 24.744 334.327 23.72C333.196 22.6747 332.631 21.128 332.631 19.08V3.976H337.623V19.016C337.623 19.7413 337.815 20.3067 338.199 20.712C338.583 21.096 339.105 21.288 339.767 21.288C340.556 21.288 341.228 21.0747 341.783 20.648L343.127 24.168C342.615 24.5307 341.996 24.808 341.271 25C340.567 25.1707 339.831 25.256 339.063 25.256ZM329.975 12.008V8.168H341.911V12.008H329.975ZM355.6 25V7.4C355.6 5.45867 356.176 3.912 357.328 2.76C358.48 1.58666 360.122 1 362.256 1C362.981 1 363.674 1.07467 364.336 1.224C365.018 1.37333 365.594 1.608 366.064 1.928L364.752 5.544C364.474 5.352 364.165 5.20267 363.824 5.096C363.482 4.98933 363.12 4.936 362.736 4.936C362.01 4.936 361.445 5.14933 361.04 5.576C360.656 5.98133 360.464 6.6 360.464 7.432V9.032L360.592 11.176V25H355.6ZM352.944 12.008V8.168H364.88V12.008H352.944ZM375.34 25.256C373.505 25.256 371.873 24.872 370.444 24.104C369.036 23.336 367.916 22.2907 367.084 20.968C366.273 19.624 365.868 18.0987 365.868 16.392C365.868 14.664 366.273 13.1387 367.084 11.816C367.916 10.472 369.036 9.42667 370.444 8.68C371.873 7.912 373.505 7.528 375.34 7.528C377.153 7.528 378.774 7.912 380.204 8.68C381.633 9.42667 382.753 10.4613 383.564 11.784C384.374 13.1067 384.78 14.6427 384.78 16.392C384.78 18.0987 384.374 19.624 383.564 20.968C382.753 22.2907 381.633 23.336 380.204 24.104C378.774 24.872 377.153 25.256 375.34 25.256ZM375.34 21.16C376.172 21.16 376.918 20.968 377.58 20.584C378.241 20.2 378.764 19.656 379.148 18.952C379.532 18.2267 379.724 17.3733 379.724 16.392C379.724 15.3893 379.532 14.536 379.148 13.832C378.764 13.128 378.241 12.584 377.58 12.2C376.918 11.816 376.172 11.624 375.34 11.624C374.508 11.624 373.761 11.816 373.1 12.2C372.438 12.584 371.905 13.128 371.5 13.832C371.116 14.536 370.924 15.3893 370.924 16.392C370.924 17.3733 371.116 18.2267 371.5 18.952C371.905 19.656 372.438 20.2 373.1 20.584C373.761 20.968 374.508 21.16 375.34 21.16ZM395.381 25.256C393.951 25.256 392.671 24.9787 391.541 24.424C390.431 23.8693 389.567 23.0267 388.949 21.896C388.33 20.744 388.021 19.2827 388.021 17.512V7.784H393.013V16.776C393.013 18.2053 393.311 19.2613 393.909 19.944C394.527 20.6053 395.391 20.936 396.501 20.936C397.269 20.936 397.951 20.776 398.549 20.456C399.146 20.1147 399.615 19.6027 399.957 18.92C400.298 18.216 400.469 17.3413 400.469 16.296V7.784H405.461V25H400.725V20.264L401.589 21.64C401.013 22.8347 400.159 23.7413 399.029 24.36C397.919 24.9573 396.703 25.256 395.381 25.256ZM420.549 7.528C421.915 7.528 423.131 7.80533 424.197 8.36C425.285 8.89333 426.139 9.72533 426.757 10.856C427.376 11.9653 427.685 13.3947 427.685 15.144V25H422.693V15.912C422.693 14.5253 422.384 13.5013 421.765 12.84C421.168 12.1787 420.315 11.848 419.205 11.848C418.416 11.848 417.701 12.0187 417.061 12.36C416.443 12.68 415.952 13.1813 415.589 13.864C415.248 14.5467 415.077 15.4213 415.077 16.488V25H410.085V7.784H414.853V12.552L413.957 11.112C414.576 9.96 415.461 9.07467 416.613 8.456C417.765 7.83733 419.077 7.528 420.549 7.528ZM439.727 25.256C438.106 25.256 436.645 24.8933 435.343 24.168C434.042 23.4213 433.007 22.3867 432.239 21.064C431.493 19.7413 431.119 18.184 431.119 16.392C431.119 14.5787 431.493 13.0107 432.239 11.688C433.007 10.3653 434.042 9.34133 435.343 8.616C436.645 7.89067 438.106 7.528 439.727 7.528C441.178 7.528 442.447 7.848 443.535 8.488C444.623 9.128 445.466 10.0987 446.063 11.4C446.661 12.7013 446.959 14.3653 446.959 16.392C446.959 18.3973 446.671 20.0613 446.095 21.384C445.519 22.6853 444.687 23.656 443.599 24.296C442.533 24.936 441.242 25.256 439.727 25.256ZM440.591 21.16C441.402 21.16 442.138 20.968 442.799 20.584C443.461 20.2 443.983 19.656 444.367 18.952C444.773 18.2267 444.975 17.3733 444.975 16.392C444.975 15.3893 444.773 14.536 444.367 13.832C443.983 13.128 443.461 12.584 442.799 12.2C442.138 11.816 441.402 11.624 440.591 11.624C439.759 11.624 439.013 11.816 438.351 12.2C437.69 12.584 437.157 13.128 436.751 13.832C436.367 14.536 436.175 15.3893 436.175 16.392C436.175 17.3733 436.367 18.2267 436.751 18.952C437.157 19.656 437.69 20.2 438.351 20.584C439.013 20.968 439.759 21.16 440.591 21.16ZM445.103 25V21.48L445.199 16.36L444.879 11.272V1.256H449.871V25H445.103Z" fill="#353866"/>
</g>
<defs>
<clipPath id="clip0_105_2">
<rect width="613" height="587" fill="white"/>
</clipPath>
</defs>
</svg>
