<svg width="613" height="587" viewBox="0 0 613 587" fill="none" xmlns="http://www.w3.org/2000/svg">
<g clip-path="url(#clip0_105_1185)">
<path d="M92.1626 540.467C-26.7859 478.529 -26.7874 378.108 92.1605 316.169C211.108 254.232 403.961 254.232 522.911 316.169C641.86 378.108 641.86 478.529 522.912 540.467C403.965 602.406 211.111 602.406 92.1626 540.467Z" fill="#CDC7FF"/>
<path d="M560.12 368.967C591.847 387.284 591.847 416.983 560.12 435.3C528.393 453.617 476.955 453.617 445.228 435.3C413.503 416.983 413.503 387.284 445.229 368.968C476.956 350.649 528.395 350.649 560.12 368.967Z" fill="#A49FCC"/>
<path d="M175.484 374.293C206.568 392.24 207.831 421.868 176.745 439.815C145.661 457.761 94.0022 457.229 62.9183 439.284C31.8339 421.337 31.8344 392.24 62.9183 374.293C94.0027 356.347 144.401 356.347 175.484 374.293Z" fill="#A49FCC"/>
<path d="M429.021 471L326.993 412.095C323.807 410.253 318.636 410.253 315.448 412.095L213.423 471C210.235 472.84 210.235 475.825 213.423 477.667L259.892 504.495L216.492 529.539C207.676 534.628 193.331 534.624 184.515 529.535L116.251 490.122C112.484 487.947 110.41 485.217 110.41 482.434C110.41 479.648 112.484 476.916 116.251 474.741L176.745 439.815C178.021 439.077 178.457 437.447 177.723 436.171C176.984 434.896 175.353 434.457 174.079 435.195L113.584 470.122C108.097 473.289 105.077 477.663 105.077 482.434C105.077 487.203 108.098 491.573 113.584 494.741L181.848 534.155C187.08 537.175 193.793 538.684 200.508 538.684C207.219 538.684 213.929 537.175 219.159 534.159L265.227 507.575L315.448 536.571C318.636 538.412 323.807 538.412 326.993 536.571L429.021 477.667C432.208 475.825 432.208 472.84 429.021 471Z" fill="#A49FCC"/>
<path d="M545.612 380.104C545.612 380.104 549.315 325.2 548.224 304.951C547.36 288.907 545.18 282.295 544.725 278.676C544.725 278.676 540.797 241.273 540.472 209.488C540.316 194.191 538.899 183.301 530.519 165.113L476.605 178.011C475.511 186.089 471.807 239.823 470.932 287.599C470.165 329.423 471.359 366.043 471.359 366.043L471.413 368.244C471.413 370.688 470.876 372.396 469.305 376.319C467.712 380.292 464.807 385.979 460.955 390.133C459.845 391.331 452.157 398.057 451.143 399.491C447.84 403.343 454.683 405.513 459.763 404.835C465.124 404.12 473.451 402.084 475.812 398.819C477.385 396.644 478.567 389.025 480.184 386.82C485.639 379.385 487.877 376.188 487.917 373.811C487.989 369.519 486.513 367.82 485.987 365.396C486.427 360.332 497.363 318.657 497.551 303.905C497.643 296.875 497.167 287.193 497.167 287.193L505.653 238.501C508.931 250.659 514.692 280.857 516.629 292.444C518.999 306.597 525.172 342.941 528.82 364.625C530.227 372.989 530.881 377.211 531.523 381.087L531.681 382.748C531.796 384.844 533.327 407.387 534.155 412.105C535.888 421.963 544.651 420.723 546.053 412.749C547.247 405.965 545.753 384.96 545.72 382.384L545.612 380.104Z" fill="#F6879F"/>
<path d="M545.612 380.104C548.084 380.145 546.459 389.715 547.096 395.869C547.78 402.468 549.942 407.287 550.561 412.697C551.269 418.879 550.718 421.468 548.501 426.551C546.777 430.501 538.116 435.919 534.828 430.267C531.5 424.547 530.826 418.159 531.205 412.003C531.596 405.641 531.205 401.703 531.333 396.864C531.448 392.6 528.32 381.699 531.522 381.087L531.681 382.748C532.83 385.047 544.54 385.505 545.72 382.384L545.612 380.104Z" fill="#4D4181"/>
<path d="M488.439 379.005C489.196 382.089 488.412 390.543 488.412 390.543C488.412 390.543 487.077 393.459 482.319 395.4L480.184 383.641L488.439 379.005Z" fill="#353866"/>
<path d="M482.319 395.4L471.831 391.957L469.305 382.649L481.088 388.613L482.319 395.4Z" fill="#040606"/>
<path d="M471.413 368.244L471.359 366.043C469.935 366.735 466.799 378.207 462.56 386.076C458.689 393.261 451.019 397.265 448.529 400.392C445.197 404.575 451.672 409.967 462.065 407.744C467.224 406.64 475.036 403.34 477.152 399.86C479.271 396.379 479.987 389.984 481.719 387.425C483.451 384.867 487.565 381.919 488.439 379.005C488.919 377.405 489.303 373.853 488.417 370.964C487.603 368.313 486.892 365.107 485.987 365.396L485.927 367.412C485.231 368.831 482.72 370.481 477.472 370.765C474.976 370.9 472.556 370.519 471.413 368.244Z" fill="#4D4181"/>
<path d="M475.575 177.359C475.575 177.359 472.011 216.913 470.864 251.948C469.715 286.984 470.743 332.175 470.743 332.175C470.743 332.175 474.359 334.761 482.319 335.119C490.279 335.476 493.033 332.823 493.033 332.823C493.033 332.823 497.896 316.947 498.657 305.775C499.42 294.601 498.657 287.6 498.657 287.6L505.765 240.856C505.765 240.856 514.779 286.879 515.803 292.444C516.824 298.008 525.464 347.177 525.464 347.177C525.464 347.177 528.855 350.308 537.547 350.143C545.229 349.997 547.464 347.24 547.464 347.24C547.464 347.24 549.316 317.081 548.893 304.196C548.523 292.841 545.929 283.795 545.411 276.431C544.892 269.067 544.589 227.113 544.071 211.141C543.552 195.171 542.117 181.292 528.471 162.071L475.575 177.359Z" fill="#353866"/>
<path d="M505.765 240.856L499.855 211.575C499.855 211.575 489.537 208.883 484.729 202.583C484.729 202.583 486.067 209.567 496.671 214.032L502.964 243.205L500.824 273.347L505.765 240.856Z" fill="#4D4181"/>
<path d="M400.252 170.029C405.688 171.131 411.596 169.189 411.596 169.189C409.567 168.045 407.989 167.105 407.103 166.211C405.339 164.435 405.952 162.588 406.573 161.915C407.056 161.391 408.283 162.625 411.059 163.412C414.604 164.417 417.176 164.623 420.596 166.596C421.871 167.332 423.387 167.625 424.863 167.348C433.188 165.779 452.588 156.693 461.471 151.929C463.295 144.537 466.432 133.649 470.319 120.083C473.903 107.575 479.664 102.101 488.817 102.311L487.551 129.464C487.551 129.464 483.184 148.225 477.771 163.541C476.817 166.239 473.023 169.323 466.065 171.908C457.052 175.255 446.171 178.407 432.877 182.045C427.908 183.405 421.339 184.835 416.369 185.259C402.316 186.459 396.931 182.551 395.012 179.828C389.652 172.224 392.883 168.537 400.252 170.029Z" fill="#F6879F"/>
<path d="M512.464 102.101L525.289 103.096C521.799 121.797 534.937 131.807 534.937 131.807L529.219 154.857C529.408 157.701 534.132 167.301 538.707 177.631C530.105 189.147 487.917 193.079 474.157 182.973C476.281 172.117 477.867 163.872 478.287 159.757L477.591 144.865C460.347 130.713 481.159 109.163 488.817 102.311L498.449 101.881L512.464 102.101Z" fill="#50549A"/>
<path d="M566.475 216.887C564.597 215.587 563.513 212.86 563.733 210.708C563.955 208.556 564.452 205.861 565.335 204.82C566.217 203.78 571.832 196.172 574.315 200.6C577.024 205.431 576.437 207.38 576.437 207.38L566.475 216.887Z" fill="#F47089"/>
<path d="M549.201 318.641C543.92 318.641 538.133 316.913 532.199 313.487L465.627 275.052C455.343 269.112 446.973 254.619 446.973 242.741L446.972 186.892C446.972 183.049 444.985 179.608 441.657 177.687C438.331 175.765 434.355 175.765 431.027 177.685L407.644 191.185C406.367 191.923 404.737 191.484 404 190.209C403.264 188.933 403.701 187.303 404.977 186.567L428.36 173.067C433.356 170.18 439.325 170.181 444.324 173.068C449.32 175.953 452.305 181.121 452.305 186.892L452.307 242.741C452.307 252.748 459.628 265.429 468.293 270.432L534.865 308.867C543.383 313.785 551.283 314.643 557.1 311.284C562.921 307.924 566.127 300.656 566.127 290.819V219.517C566.127 207.44 573.848 193.52 583.708 187.828L599.955 178.447C601.228 177.707 602.86 178.147 603.597 179.423C604.333 180.697 603.899 182.329 602.621 183.065L586.375 192.445C578.289 197.113 571.46 209.511 571.46 219.517V290.819C571.46 302.641 567.307 311.551 559.767 315.903C556.599 317.732 553.032 318.641 549.201 318.641Z" fill="#4D4181"/>
<path d="M434.129 195.039V199.399C434.129 206.376 429.231 214.861 423.188 218.351L382.805 241.664L341.755 217.959L341.745 182.409L381.604 163.999C387.939 161.073 397.973 161.529 404.016 165.017L423.188 176.087C429.231 179.576 434.129 188.06 434.129 195.039Z" fill="#4D4181"/>
<path d="M381.604 163.999C387.939 161.073 397.973 161.529 404.016 165.017L423.188 176.087C429.231 179.576 428.993 184.776 422.659 187.701L382.811 206.108L341.745 182.409L381.604 163.999Z" fill="#353866"/>
<path d="M387.945 238.697L392.155 236.267L387.945 238.697ZM347.463 179.768L352.14 177.608L347.463 179.768Z" fill="#D2D4D1"/>
<path d="M387.945 238.697V209.459C387.945 207.823 387.408 206.023 386.525 204.392L390.939 202.353C391.7 203.877 392.155 205.523 392.155 207.028V236.267L387.945 238.697Z" fill="#2E274D"/>
<path d="M386.525 204.392C385.525 202.543 384.081 200.911 382.476 199.983L347.463 179.768L352.14 177.608L386.684 197.553C388.403 198.545 389.935 200.344 390.939 202.353L386.525 204.392Z" fill="#2E274D"/>
<path d="M338.257 176.289C339.239 175.723 340.595 175.803 342.097 176.671L382.476 199.983C385.497 201.728 387.945 205.969 387.945 209.459V244.232C387.945 245.979 387.329 247.197 386.336 247.76C385.413 248.283 382.115 250.187 381.201 250.724C380.216 251.305 378.853 251.229 377.339 250.356L336.961 227.044C333.94 225.3 331.491 221.057 331.491 217.568V182.795C331.491 181.057 332.096 179.827 333.081 179.259C334.005 178.725 337.331 176.823 338.257 176.289Z" fill="#4D4181"/>
<path d="M377.339 202.948L336.961 179.636C333.939 177.892 331.491 179.307 331.491 182.795V217.568C331.491 221.057 333.939 225.3 336.961 227.044L377.339 250.356C380.36 252.1 382.811 250.687 382.811 247.197V212.424C382.811 208.936 380.361 204.692 377.339 202.948Z" fill="#353866"/>
<path d="M344.624 235.935C344.736 236.356 344.812 236.836 344.812 237.363C344.812 240.636 342.513 244.615 339.68 246.252C339.223 246.515 338.788 246.675 338.368 246.788C338.256 246.367 338.177 245.912 338.177 245.387C338.177 242.113 340.476 238.133 343.311 236.497C343.765 236.233 344.203 236.049 344.624 235.935ZM329.515 243.42L329.516 249.437C329.516 251.876 330.361 253.576 331.739 254.368C332.352 254.721 334.759 256.111 335.373 256.471C336.765 257.281 338.689 257.18 340.807 255.957L374.204 236.676L374.2 212.972L370.569 210.873L337.172 230.155C332.943 232.597 329.515 238.536 329.515 243.42Z" fill="#50549A"/>
<path d="M335.388 256.479L335.383 256.476L335.36 256.463C335.364 256.465 335.369 256.468 335.373 256.471C335.379 256.473 335.383 256.476 335.388 256.479ZM331.024 253.831C330.228 253.081 329.715 251.924 329.564 250.411C329.719 251.915 330.237 253.072 331.024 253.831ZM330.023 239.955C330.161 239.457 330.325 238.96 330.516 238.468C330.327 238.961 330.161 239.457 330.023 239.955Z" fill="#50549A"/>
<path d="M335.411 256.489L335.388 256.479C335.383 256.476 335.379 256.473 335.373 256.471C335.369 256.468 335.364 256.465 335.36 256.463L335.251 256.396C334.449 255.929 332.304 254.689 331.744 254.356C331.484 254.212 331.244 254.037 331.024 253.831C330.237 253.072 329.719 251.915 329.564 250.411C329.533 250.1 329.517 249.776 329.517 249.436V243.423C329.517 242.301 329.695 241.128 330.023 239.955C330.161 239.457 330.327 238.961 330.516 238.468C330.517 238.464 330.519 238.459 330.521 238.453C330.863 237.568 331.283 236.697 331.769 235.863L335.397 237.956C334.011 240.383 333.156 243.063 333.156 245.516V251.529C333.156 253.436 333.677 254.889 334.556 255.823C334.736 256.025 334.953 256.187 335.176 256.335L335.411 256.489Z" fill="#50549A"/>
<path d="M335.397 237.956L331.769 235.863C333.156 233.463 335.064 231.383 337.171 230.156L370.571 210.876L374.184 212.969L340.811 232.249C338.691 233.476 336.783 235.556 335.397 237.956Z" fill="#50549A"/>
<path d="M335.556 256.583L335.464 256.529L335.523 256.553C335.527 256.555 335.529 256.556 335.532 256.557L335.556 256.583Z" fill="white"/>
<path d="M335.532 256.557C335.529 256.556 335.527 256.555 335.523 256.553L335.531 256.556L335.532 256.557Z" fill="#6368C0"/>
<path d="M335.523 256.553L335.464 256.529L335.423 256.499C335.456 256.517 335.489 256.536 335.523 256.553Z" fill="#C3C5C2"/>
<path d="M335.531 256.556L335.523 256.553C335.489 256.536 335.456 256.517 335.423 256.499L335.411 256.489L335.531 256.556Z" fill="#6368C0"/>
<path d="M338.368 246.788C338.367 246.785 338.365 246.781 338.365 246.779C338.491 246.748 338.617 246.715 338.743 246.675C338.616 246.717 338.492 246.755 338.368 246.788ZM339.495 246.353C339.555 246.32 339.613 246.287 339.673 246.249C342.503 244.607 344.804 240.64 344.804 237.355C344.804 236.824 344.725 236.339 344.624 235.935C344.736 236.356 344.812 236.836 344.812 237.363C344.812 240.636 342.513 244.615 339.68 246.252C339.617 246.287 339.556 246.321 339.495 246.353Z" fill="#C3C5C2"/>
<path d="M341.025 249.053C339.716 249.053 338.724 248.236 338.36 246.78C338.361 246.779 338.363 246.779 338.365 246.779C338.365 246.781 338.367 246.785 338.368 246.788C338.492 246.755 338.616 246.717 338.743 246.675C338.989 246.596 339.239 246.493 339.495 246.353C339.556 246.321 339.617 246.287 339.68 246.252C342.513 244.615 344.812 240.636 344.812 237.363C344.812 236.836 344.736 236.356 344.624 235.935C344.968 235.839 345.299 235.792 345.612 235.792C347.288 235.792 348.441 237.137 348.441 239.452C348.441 242.737 346.143 246.704 343.312 248.347C342.492 248.825 341.715 249.053 341.025 249.053Z" fill="#6368C0"/>
<path d="M313.835 218.156C313.945 218.577 314.023 219.059 314.023 219.584C314.023 222.857 311.724 226.836 308.891 228.472C308.433 228.736 308 228.896 307.577 229.009C307.467 228.589 307.389 228.133 307.389 227.608C307.389 224.335 309.685 220.356 312.521 218.719C312.977 218.455 313.413 218.271 313.835 218.156ZM298.725 225.643L298.727 231.659C298.728 234.097 299.572 235.797 300.949 236.589C301.563 236.943 303.968 238.332 304.585 238.692C305.976 239.503 307.9 239.401 310.017 238.179L343.415 218.897L343.411 195.193L339.779 193.095L306.384 212.376C302.153 214.819 298.725 220.757 298.725 225.643Z" fill="#50549A"/>
<path d="M304.744 238.783L304.677 238.756L304.584 238.703C304.317 238.544 303.732 238.201 303.1 237.832C303.656 238.153 304.175 238.453 304.472 238.627C304.56 238.683 304.651 238.735 304.744 238.783ZM300.047 235.857C299.529 235.289 299.151 234.532 298.935 233.6C299.152 234.529 299.533 235.288 300.047 235.857ZM300.683 218.607C300.776 218.433 300.872 218.26 300.971 218.089C300.872 218.26 300.776 218.433 300.683 218.607Z" fill="#CDC7FF"/>
<path d="M304.472 238.627C304.175 238.453 303.656 238.153 303.1 237.832C302.244 237.331 301.303 236.783 300.956 236.583C300.619 236.393 300.315 236.151 300.047 235.857C299.533 235.288 299.152 234.529 298.935 233.6C298.8 233.016 298.731 232.365 298.731 231.649V225.636C298.731 224.409 298.944 223.129 299.331 221.849C299.663 220.752 300.121 219.653 300.683 218.607C300.776 218.433 300.872 218.26 300.971 218.089L300.983 218.103L304.611 220.183L304.596 220.196C304.251 220.796 303.944 221.409 303.676 222.036C302.851 223.929 302.371 225.903 302.371 227.743V233.756C302.371 235.649 302.891 237.116 303.769 238.049C303.979 238.268 304.216 238.464 304.472 238.627Z" fill="#6368C0"/>
<path d="M305.005 213.316C305.452 212.961 305.913 212.644 306.384 212.369L331.491 197.876V197.88L306.384 212.376C305.913 212.648 305.452 212.963 305.005 213.316Z" fill="white"/>
<path d="M331.491 197.88V197.876L339.783 193.089L341.32 193.985L339.779 193.095L331.491 197.88Z" fill="#91A7AA"/>
<path d="M304.611 220.183L300.983 218.103C302.06 216.229 303.451 214.548 305.005 213.316C305.452 212.963 305.913 212.648 306.384 212.376L331.491 197.88L339.779 193.095L341.32 193.985L343.397 195.196L310.024 214.476C307.891 215.703 305.997 217.783 304.611 220.183Z" fill="#6368C0"/>
<path d="M304.769 238.809L304.677 238.756L304.744 238.783L304.769 238.809Z" fill="white"/>
<path d="M307.577 229.009C307.577 229.007 307.576 229.003 307.575 229C307.704 228.969 307.833 228.935 307.963 228.892C307.833 228.937 307.705 228.976 307.577 229.009ZM308.715 228.569C308.771 228.539 308.828 228.505 308.884 228.471C311.713 226.828 314.013 222.861 314.013 219.576C314.013 219.045 313.936 218.56 313.835 218.156C313.945 218.577 314.023 219.059 314.023 219.584C314.023 222.857 311.724 226.836 308.891 228.472C308.832 228.507 308.773 228.539 308.715 228.569Z" fill="#CDC7FF"/>
<path d="M310.236 231.275C308.927 231.275 307.935 230.457 307.571 229C307.572 229 307.573 229 307.575 229C307.576 229.003 307.577 229.007 307.577 229.009C307.705 228.976 307.833 228.937 307.963 228.892C308.209 228.813 308.459 228.711 308.715 228.569C308.773 228.539 308.832 228.507 308.891 228.472C311.724 226.836 314.023 222.857 314.023 219.584C314.023 219.059 313.945 218.577 313.835 218.156C314.18 218.06 314.511 218.013 314.823 218.013C316.499 218.013 317.653 219.359 317.653 221.673C317.653 224.959 315.353 228.925 312.523 230.568C311.703 231.047 310.925 231.275 310.236 231.275Z" fill="#6368C0"/>
<path d="M310.759 200.885L305.388 179.977C305.113 178.907 304.024 178.263 302.953 178.537C301.884 178.812 301.24 179.903 301.515 180.972L306.885 201.881C307.16 202.951 308.249 203.596 309.32 203.32C310.389 203.045 311.033 201.956 310.759 200.885Z" fill="#CDC7FF"/>
<path d="M295.067 208.537L275.203 192.845C274.336 192.16 273.077 192.308 272.393 193.175C271.708 194.041 271.856 195.299 272.723 195.984L292.587 211.676C293.453 212.36 294.711 212.212 295.396 211.345C296.08 210.479 295.933 209.221 295.067 208.537Z" fill="#CDC7FF"/>
<path d="M289.523 225.46L266.311 227.26C265.209 227.345 264.385 228.307 264.471 229.408C264.556 230.509 265.519 231.333 266.62 231.248L289.832 229.448C290.932 229.363 291.756 228.4 291.671 227.299C291.585 226.197 290.623 225.375 289.523 225.46Z" fill="#CDC7FF"/>
<path d="M584.623 195.129C584.1 191.121 583.664 185.431 582.436 180.457C579.336 167.891 572.581 151.628 570.357 147.369C568.132 143.112 563.102 136.916 559.54 131.679C554.501 124.275 550.961 120.124 547.128 115.103C538.707 104.072 535.12 103.444 525.289 103.096C523.961 106.601 520.917 120.975 530.763 132.591L551.889 154.857C553.088 156.791 565.993 178.851 568.142 187.001C568.522 188.445 568.317 189.979 567.641 191.311C565.827 194.884 564.752 199.368 563.942 202.983C563.31 205.812 561.637 208.051 562.206 208.485C562.938 209.045 564.749 209.736 566.884 208.112C567.912 207.331 569.479 204.743 570.528 202.628C572.301 202.635 573.443 203.664 573.577 205.539C573.696 207.18 572.951 209.468 572.388 212.311C572.279 212.86 572.144 213.5 571.883 215.048C571.708 215.889 571.539 217.012 571.519 218.225C574.208 218.724 576.963 217.088 581.444 212.841C585.493 209.004 585.761 203.848 584.623 195.129Z" fill="#F6879F"/>
<path d="M514.759 95.6253C514.828 92.9959 523.504 86.7119 527.889 80.0746C531.953 73.9253 537.636 56.9879 524.173 51.5733C524.173 51.5733 527.069 43.4466 521.799 38.6652C516.528 33.8852 509.409 36.8319 508.288 38.8399C508.288 38.8399 506.325 30.428 497.013 29.98C487.701 29.5306 485.972 38.2173 485.972 38.2173C485.972 38.2173 478.616 34.8453 473.681 41.6559C468.747 48.4666 475.3 54.7106 475.3 54.7106C475.3 54.7106 472.339 56.5786 472.792 59.9133C473.184 62.7973 475.939 63.5079 476.265 64.9413C476.593 66.3746 474.779 67.2186 473.845 66.1959C473.845 66.1959 474.149 68.6679 477.26 68.4999C480.372 68.3306 483.137 64.1079 483.137 64.1079L514.759 95.6253Z" fill="#353866"/>
<path d="M486.484 50.7213C482.501 52.448 478.715 58.54 478.772 75.5827C478.82 90.028 483.249 93.6813 485.487 94.7533C487.725 95.8253 492.092 95.284 496.337 94.6307L496.321 102.935C496.321 102.935 488.641 112.475 495.528 117.22C513.284 114.113 514.653 102.463 514.653 102.463L514.968 84.356C514.968 84.356 517.411 86.9227 521.707 83.16C525.255 80.0533 526.531 74.7253 523.867 71.8013C521.204 68.8773 517.78 68.64 514.692 71.9093C514.692 71.9093 509.024 72.272 500.508 66.9253C491.789 61.4493 488.817 56.1627 486.484 50.7213Z" fill="#F6879F"/>
<path d="M496.721 84.6281C496.764 85.8081 495.877 86.7961 494.741 86.8347C493.605 86.8721 492.651 85.9467 492.607 84.7667C492.564 83.5854 493.451 82.5974 494.587 82.5601C495.721 82.5227 496.679 83.4467 496.721 84.6281Z" fill="#C35363"/>
<path d="M485.736 70.6747C485.776 71.7747 484.951 72.6961 483.892 72.7307C482.833 72.7667 481.943 71.904 481.904 70.8026C481.864 69.704 482.689 68.784 483.748 68.748C484.807 68.7134 485.696 69.576 485.736 70.6747Z" fill="#353866"/>
<path d="M500.505 71.5321C500.549 72.7121 499.663 73.7 498.527 73.7387C497.391 73.7774 496.435 72.8507 496.392 71.6707C496.349 70.4894 497.236 69.5014 498.372 69.4641C499.507 69.4254 500.464 70.3521 500.505 71.5321Z" fill="#353866"/>
<path d="M484.407 63.016L480.341 65.3933C480.928 66.592 482.419 66.92 483.541 66.2626C484.663 65.6053 484.992 64.212 484.407 63.016Z" fill="#353866"/>
<path d="M514.661 69.5533L514.613 77.5786C512.467 77.6506 510.737 75.912 510.752 73.696C510.765 71.4813 512.517 69.6266 514.661 69.5533Z" fill="#353866"/>
<path d="M490.997 68.748L490.176 80.2613L484.105 78.8386L490.997 68.748Z" fill="#F47089"/>
<path d="M496.337 94.6307C500.811 94.108 510.039 91.54 511.54 87.7906C511.54 87.7906 511.019 90.1546 508.232 92.548C505.443 94.9413 496.332 97.4253 496.332 97.4253L496.337 94.6307Z" fill="#F47089"/>
<path d="M540.54 37.4226C540.939 37.572 541.231 37.8493 541.411 38.2506C541.595 38.6506 541.608 39.0507 541.457 39.452L539.647 44.2613C539.495 44.6626 539.219 44.9546 538.817 45.1346C538.417 45.3173 538.017 45.332 537.616 45.1813L532.917 43.4133C532.516 43.26 532.224 42.9853 532.043 42.584C531.86 42.1826 531.844 41.7826 531.996 41.3813L533.808 36.572C533.959 36.1706 534.233 35.88 534.636 35.6973C535.037 35.5173 535.436 35.5013 535.839 35.652L540.54 37.4226ZM550.04 5.55867C551.753 6.20267 553.331 7.06803 554.773 8.15203C556.215 9.23603 557.392 10.48 558.299 11.8813C559.207 13.284 559.785 14.8119 560.036 16.4679C560.285 18.1213 560.075 19.8413 559.403 21.6266C558.855 23.0839 558.149 24.2639 557.289 25.1679C556.429 26.0706 555.483 26.816 554.451 27.4053C553.419 27.9933 552.347 28.4853 551.243 28.88C550.137 29.2746 549.089 29.6506 548.104 30.0053C547.116 30.3626 546.209 30.7813 545.385 31.2599C544.559 31.7399 543.941 32.36 543.531 33.12C543.307 33.4933 543.012 33.7773 542.649 33.972C542.283 34.1693 541.9 34.1906 541.5 34.0399L537.347 32.4746C536.945 32.3253 536.645 32.0466 536.445 31.6373C536.247 31.2293 536.239 30.8333 536.428 30.4453C537.035 29.0519 537.804 27.9173 538.737 27.0413C539.671 26.1653 540.671 25.4399 541.741 24.8653C542.811 24.2893 543.904 23.8186 545.02 23.448C546.137 23.0786 547.179 22.712 548.149 22.348C549.116 21.9853 549.959 21.5733 550.671 21.1146C551.385 20.6573 551.887 20.044 552.175 19.2773C552.696 17.8946 552.541 16.5359 551.712 15.2039C550.881 13.8733 549.501 12.844 547.571 12.116C544.475 10.9493 541.613 11.6413 538.991 14.1893C538.657 14.5226 538.353 14.7506 538.08 14.8746C537.803 15.0013 537.428 14.9733 536.953 14.7946L532.528 13.128C532.201 13.004 531.957 12.788 531.804 12.4813C531.651 12.1733 531.641 11.8373 531.777 11.472C532.293 10.212 533.177 9.05602 534.425 8.00802C535.671 6.96001 537.127 6.13601 538.788 5.53334C540.449 4.93334 542.259 4.60266 544.212 4.55066C546.168 4.49599 548.109 4.832 550.04 5.55867Z" fill="#50549A"/>
<path d="M572.293 38.8493C573.541 40.036 574.594 41.3666 575.448 42.8359C576.302 44.3079 576.869 45.8186 577.14 47.3679C577.412 48.9199 577.353 50.4573 576.964 51.9853C576.574 53.5146 575.76 54.9306 574.521 56.2333C573.509 57.2973 572.465 58.0626 571.388 58.5306C570.309 58.9999 569.213 59.2999 568.101 59.4319C566.986 59.5639 565.878 59.5973 564.774 59.5359C563.669 59.4719 562.622 59.4146 561.636 59.3599C560.649 59.3079 559.706 59.3386 558.816 59.4519C557.924 59.5653 557.158 59.8773 556.524 60.3866C556.192 60.6279 555.832 60.7666 555.444 60.8026C555.054 60.8386 554.714 60.7172 554.424 60.4386L551.39 57.5559C551.098 57.2773 550.94 56.9253 550.917 56.4986C550.892 56.0706 551.032 55.7239 551.337 55.4559C552.377 54.4693 553.462 53.7666 554.594 53.3493C555.725 52.9319 556.861 52.6693 558 52.5613C559.138 52.4546 560.26 52.4466 561.368 52.5359C562.472 52.6239 563.512 52.6879 564.486 52.7293C565.46 52.7693 566.34 52.7213 567.13 52.5839C567.917 52.4466 568.578 52.0999 569.108 51.5412C570.069 50.5319 570.432 49.2973 570.202 47.8346C569.97 46.3759 569.149 44.9746 567.742 43.6346C565.481 41.4866 562.743 41.0359 559.532 42.2839C559.119 42.4506 558.77 42.5386 558.486 42.5453C558.201 42.5519 557.886 42.3919 557.54 42.0639L554.31 38.9906C554.07 38.7639 553.94 38.4879 553.92 38.1652C553.898 37.8399 554.015 37.5466 554.265 37.28C555.177 36.3733 556.366 35.6946 557.834 35.2426C559.304 34.7906 560.869 34.6079 562.533 34.6959C564.194 34.7839 565.885 35.1626 567.601 35.8333C569.32 36.5026 570.881 37.5093 572.293 38.8493ZM552.346 63.0213C552.638 63.2999 552.79 63.6466 552.801 64.0613C552.812 64.4773 552.677 64.8293 552.4 65.1226L549.063 68.6319C548.784 68.9253 548.437 69.0773 548.022 69.0866C547.606 69.0973 547.254 68.9626 546.961 68.6853L543.532 65.4253C543.238 65.1453 543.088 64.8013 543.077 64.3853C543.065 63.9693 543.2 63.6173 543.48 63.3239L546.816 59.8133C547.093 59.5213 547.438 59.3693 547.856 59.3586C548.269 59.3493 548.622 59.4813 548.917 59.7599L552.346 63.0213Z" fill="#50549A"/>
<path d="M547.975 69.0866C547.58 69.0866 547.243 68.9533 546.961 68.6853L543.532 65.4253C543.239 65.1453 543.088 64.8013 543.077 64.3853C543.076 64.3693 543.076 64.3533 543.076 64.3373C543.076 63.9413 543.211 63.6053 543.48 63.324L546.816 59.8133C547.093 59.5213 547.439 59.3693 547.856 59.3586C547.869 59.3586 547.884 59.3586 547.897 59.3586C548.293 59.3586 548.632 59.492 548.917 59.76L552.347 63.0213C552.639 63.3 552.791 63.6466 552.801 64.0613C552.801 64.0773 552.801 64.0933 552.801 64.1093C552.801 64.504 552.667 64.8413 552.4 65.1226L549.063 68.632C548.784 68.9253 548.437 69.0773 548.023 69.0866C548.007 69.0866 547.991 69.0866 547.975 69.0866Z" fill="#6368C0"/>
<path d="M555.312 60.808C554.977 60.808 554.681 60.684 554.424 60.4387L551.391 57.5561C551.099 57.2774 550.94 56.9254 550.917 56.4987C550.915 56.4654 550.915 56.4321 550.915 56.3987C550.915 56.0161 551.056 55.7027 551.337 55.4561C552.377 54.4694 553.463 53.7667 554.595 53.3494C555.725 52.9321 556.861 52.6694 558 52.5614C558.62 52.5041 559.236 52.4747 559.847 52.4747C560.356 52.4747 560.864 52.4947 561.368 52.5361C562.472 52.6241 563.512 52.6881 564.487 52.7294C564.709 52.7387 564.925 52.7427 565.137 52.7427C565.856 52.7427 566.52 52.6907 567.131 52.5841C567.917 52.4467 568.579 52.1 569.108 51.5414C569.881 50.728 570.268 49.7707 570.269 48.6654C570.269 48.3974 570.247 48.1214 570.203 47.8347C569.971 46.3761 569.149 44.9747 567.743 43.6347C566.312 42.2761 564.691 41.5961 562.88 41.5961C561.828 41.5961 560.712 41.8254 559.532 42.2841C559.119 42.4507 558.771 42.5387 558.487 42.5454C558.481 42.5454 558.476 42.5467 558.471 42.5467C558.188 42.5467 557.88 42.3854 557.54 42.0641L554.311 38.9907C554.071 38.764 553.94 38.488 553.92 38.1654C553.917 38.1387 553.917 38.1147 553.917 38.0894C553.917 37.7934 554.035 37.5254 554.265 37.2801C555.177 36.3734 556.367 35.6947 557.835 35.2427C559.064 34.864 560.361 34.6747 561.727 34.6747C561.992 34.6747 562.261 34.6814 562.533 34.696C564.195 34.784 565.885 35.1627 567.601 35.8334C569.32 36.5027 570.881 37.5094 572.293 38.8494C573.541 40.0361 574.595 41.3667 575.448 42.8361C576.303 44.3081 576.869 45.8187 577.14 47.3681C577.252 48.0107 577.308 48.6507 577.308 49.2894C577.307 50.1921 577.192 51.0907 576.964 51.9854C576.575 53.5147 575.76 54.9307 574.521 56.2334C573.509 57.2974 572.465 58.0627 571.388 58.5307C570.309 59.0001 569.213 59.3001 568.101 59.4321C567.344 59.5214 566.589 59.5654 565.837 59.5654C565.483 59.5654 565.129 59.5561 564.775 59.5361C563.669 59.4721 562.623 59.4147 561.636 59.3601C561.324 59.3441 561.016 59.3361 560.713 59.3361C560.059 59.3361 559.425 59.3747 558.816 59.4521C557.924 59.5654 557.159 59.8774 556.524 60.3867C556.192 60.6281 555.832 60.7667 555.444 60.8027C555.399 60.8067 555.355 60.808 555.312 60.808Z" fill="#6368C0"/>
<path d="M77.9199 398.264C82.1475 400.835 87.76 400.947 93.0537 399.079L97.1173 371.124L78.3819 366.34L77.9199 398.264Z" fill="#F6879F"/>
<path d="M108.04 425.065C108.496 425.541 108.215 429.045 107.642 429.847C107.028 430.705 103.855 433.3 97.9473 433.405C92.303 433.505 87.3218 432.476 84.1338 430.203C80.9448 427.929 79.4708 425.531 79.3322 422.311C79.1942 419.091 79.7172 416.02 78.3229 413.471C77.0349 411.119 75.2708 408.8 74.8478 407.539C73.9281 404.797 74.8161 400.645 74.8161 400.645L108.04 425.065Z" fill="#353866"/>
<path d="M94.3474 397.899C94.3787 399.093 94.5157 400.284 94.8427 401.499C95.5246 404.025 96.6376 406.431 97.908 408.729C98.5621 409.913 99.2585 411.079 100.075 412.163C101.667 414.279 103.69 416.055 105.385 418.092C107.082 420.131 108.485 422.567 108.486 425.183C108.489 429.605 103.621 430.847 99.9006 431.304C95.9282 431.793 91.7386 431.357 87.9563 430.059C83.7479 428.615 80.8422 425.137 80.3626 420.836C80.2251 419.601 80.3678 418.352 80.2886 417.113C80.1099 414.284 78.7927 411.637 77.2741 409.212C76.3933 407.804 75.4266 406.424 74.8689 404.871C73.8646 402.079 74.9522 399.056 75.8339 396.377C76.5954 394.061 77.2022 391.272 78.0173 391.537C77.9954 392.012 77.9954 393.048 77.9954 393.048C78.2386 393.573 78.8282 393.949 78.9667 394.555C79.1115 395.185 79.2829 395.811 79.5381 396.407C79.9293 397.316 80.5323 398.161 81.3793 398.672C81.5241 397.011 81.6683 395.348 81.8137 393.687C81.8579 393.172 81.9209 392.615 82.2766 392.24C82.6365 391.86 83.1995 391.772 83.7183 391.703C86.8646 391.292 90.0698 390.881 93.1959 391.431C93.6641 391.512 94.1787 391.649 94.4323 392.052C94.6402 392.383 94.6151 392.803 94.5818 393.191C94.4465 394.793 94.3069 396.347 94.3474 397.899Z" fill="#50549A"/>
<path d="M96.6897 431.5C93.7236 431.5 90.7308 431.011 87.9564 430.059C83.748 428.615 80.8422 425.137 80.3626 420.836C80.3121 420.383 80.299 419.927 80.2996 419.471C80.2996 418.996 80.3141 418.52 80.3141 418.044C80.3141 417.733 80.3085 417.423 80.2886 417.113C80.11 414.284 78.7928 411.637 77.2741 409.212C76.3933 407.804 75.4266 406.424 74.8689 404.871C74.5824 404.075 74.4662 403.259 74.4668 402.439C74.4684 400.383 75.2037 398.292 75.834 396.377C76.5616 394.165 77.1474 391.52 77.9089 391.52C77.9449 391.52 77.9808 391.525 78.0173 391.537C78.0173 391.54 78.0173 391.541 78.0173 391.543C77.9954 392.019 77.9954 393.048 77.9954 393.048C78.2386 393.573 78.8282 393.949 78.9668 394.555C79.1116 395.185 79.2829 395.811 79.5381 396.407C79.9293 397.316 80.5324 398.161 81.3793 398.672C81.5241 397.011 81.6684 395.348 81.8137 393.687C81.858 393.172 81.9209 392.615 82.2766 392.24C82.6365 391.86 83.1996 391.772 83.7184 391.703C85.7766 391.433 87.86 391.165 89.9298 391.165C91.0241 391.165 92.1146 391.24 93.196 391.431C93.6641 391.512 94.1788 391.649 94.4324 392.052C94.5673 392.267 94.6037 392.517 94.6042 392.775C94.6042 392.913 94.5933 393.055 94.5818 393.191C94.4621 394.605 94.3397 395.983 94.3402 397.353C94.3402 397.535 94.3428 397.717 94.3474 397.899C94.3788 399.093 94.5157 400.284 94.8428 401.499C95.5246 404.025 96.6376 406.431 97.908 408.729C98.5621 409.913 99.2585 411.079 100.075 412.163C101.667 414.279 103.69 416.055 105.385 418.092C107.082 420.131 108.485 422.567 108.486 425.183C108.489 429.605 103.621 430.847 99.9006 431.304C98.8422 431.435 97.7673 431.5 96.6897 431.5Z" fill="#6368C0"/>
<path d="M98.4523 409.687C96.8762 408.368 93.1971 408.153 91.1737 408.26C88.6393 408.395 86.5507 409.168 85.3461 409.96C84.8122 410.311 84.0975 410.207 83.669 409.736C83.1538 409.171 83.2518 408.291 83.8944 407.869C85.1704 407.032 87.4622 405.88 90.459 405.831C95.4294 405.748 96.8366 406.675 96.8366 406.675C96.8366 406.675 99.0168 408.251 98.4523 409.687Z" fill="#353866"/>
<path d="M101.986 414.408C99.9861 413.077 95.9304 413.035 93.9058 413.141C91.3714 413.277 89.434 414.167 88.2298 414.959C87.696 415.309 86.9808 415.205 86.5528 414.735C86.0376 414.168 86.135 413.288 86.7777 412.867C88.0542 412.029 90.4938 410.696 93.4913 410.647C98.4621 410.564 99.6974 411.645 99.6974 411.645C99.6974 411.645 101.743 412.567 101.986 414.408Z" fill="#353866"/>
<path d="M88.742 400.985C92.1825 400.816 93.6133 401.277 94.9388 401.843C95.7852 402.379 96.2857 403.788 95.7054 404.107C94.6362 403.435 92.6653 403.075 90.2278 403.052C88.5923 403.036 86.5013 403.587 84.794 404.235C84.3596 404.4 83.845 404.637 83.3924 404.856C82.783 405.152 82.0424 404.879 81.7909 404.263C81.5773 403.739 81.7888 403.14 82.2961 402.871C83.532 402.211 85.9622 401.121 88.742 400.985Z" fill="#353866"/>
<path d="M130.527 387.748C133.776 395.897 138.875 393.384 146.629 388.695L147.804 360.883L128.058 359.055L130.527 387.748Z" fill="#F6879F"/>
<path d="M176.425 407.353C176.836 408.344 176.604 410.148 175.995 411.268C175.384 412.387 169.203 415.447 161.14 414.467C153.076 413.484 147.695 409.925 144.719 407.716C141.743 405.508 138.552 404.953 134.556 404.508C130.561 404.063 127.551 402.671 126.773 400.749C125.995 398.828 127.18 395.655 127.18 395.655L176.425 407.353Z" fill="#353866"/>
<path d="M145.011 381.716C145.753 381.584 146.371 381.352 147.161 381.111C147.555 380.989 147.988 380.871 148.365 381.036C148.872 381.259 149.041 381.88 149.151 382.423C149.373 383.532 149.412 384.957 149.844 385.985C150.236 386.92 151.265 387.813 151.987 388.493C153.861 390.259 156.047 391.681 158.239 393.016C160.807 394.58 163.337 395.821 166 397.196C168.717 398.597 172.372 399.561 174.471 401.148C177.532 403.459 177.652 408.859 173.921 410.788C170.701 412.452 162.381 413.996 153.899 411.092C149.279 409.511 144.34 404.217 138.208 403.404C134.307 402.885 129.105 402.276 126.744 399.167C125.883 397.799 126.631 393.975 127.329 389.447C127.954 385.395 128.528 379.055 129.814 379.472L129.921 380.7C129.921 380.7 131.093 382.117 131.474 382.584C131.81 382.993 132.199 383.255 132.569 383.619C133.044 384.085 133.425 384.617 133.949 385.039C134.596 385.557 135.377 385.945 136.207 385.979C136.599 385.996 137.003 385.929 137.344 385.733C138.008 385.353 138.096 384.479 138.635 383.936C139.247 383.317 140.005 382.841 140.812 382.521C141.94 382.075 143.147 381.899 144.349 381.801C144.584 381.781 144.803 381.752 145.011 381.716Z" fill="#50549A"/>
<path d="M163.843 412.719C160.777 412.719 157.352 412.275 153.899 411.092C149.279 409.511 144.34 404.217 138.208 403.404C134.307 402.885 129.105 402.276 126.744 399.167C126.468 398.729 126.357 398.039 126.357 397.153C126.357 395.277 126.854 392.525 127.329 389.447C127.934 385.523 128.492 379.452 129.695 379.452C129.734 379.452 129.774 379.459 129.815 379.472L129.921 380.7C129.921 380.7 131.093 382.117 131.475 382.584C131.81 382.993 132.199 383.255 132.569 383.619C133.044 384.085 133.425 384.617 133.949 385.039C134.596 385.557 135.377 385.945 136.207 385.979C136.244 385.981 136.283 385.981 136.32 385.981C136.676 385.981 137.036 385.911 137.344 385.733C138.008 385.353 138.096 384.479 138.635 383.936C139.247 383.317 140.005 382.841 140.812 382.521C141.94 382.075 143.147 381.899 144.349 381.801C144.584 381.781 144.803 381.752 145.011 381.716C145.753 381.584 146.371 381.352 147.161 381.111C147.416 381.032 147.687 380.955 147.949 380.955C148.092 380.955 148.232 380.977 148.365 381.036C148.872 381.259 149.041 381.88 149.151 382.423C149.373 383.532 149.412 384.957 149.844 385.985C150.236 386.92 151.265 387.813 151.987 388.493C153.861 390.259 156.047 391.681 158.239 393.016C160.807 394.58 163.337 395.821 166 397.196C168.717 398.597 172.372 399.561 174.471 401.148C175.953 402.267 176.747 404.112 176.745 405.935C176.745 407.876 175.845 409.793 173.921 410.788C172.012 411.775 168.308 412.719 163.843 412.719Z" fill="#6368C0"/>
<path d="M154.696 390.689C154.696 390.689 154.213 389.157 151.907 388.599C150.143 388.171 146.925 389.315 144.881 390.821C144.045 391.439 144.081 392.696 144.963 393.247C145.488 393.575 146.153 393.532 146.643 393.151C147.984 392.104 150.969 390.231 154.696 390.689Z" fill="#353866"/>
<path d="M160.052 394.08C160.052 394.08 158.997 392.219 156.72 392.131C156.72 392.131 152.059 392.013 149.035 394.544C148.263 395.189 148.252 396.357 149.105 396.888C149.613 397.203 150.256 397.161 150.724 396.788C152.083 395.699 154.816 393.404 160.052 394.08Z" fill="#353866"/>
<path d="M166 397.196C166 397.196 164.805 395.499 162.527 395.411C162.527 395.411 158.183 395.339 155.159 397.868C154.387 398.513 154.375 399.683 155.229 400.213C155.737 400.528 156.38 400.487 156.845 400.113C158.207 399.024 160.763 396.52 166 397.196Z" fill="#353866"/>
<path d="M77.3891 323.197C77.9902 309.777 80.8469 302.78 81.2521 299.059C81.2521 299.059 82.3479 225.203 84.1421 202.784L150.277 199.973C151.253 223.913 152.133 288.457 151.621 296.985C151.129 305.155 147.804 376.053 147.804 376.053C138.452 378.965 128.514 374.767 128.514 374.767C128.514 374.767 122.966 334.441 122.056 325.548C120.876 314.036 122.68 301.536 122.68 301.536L118.454 244.111C118.454 244.111 113.344 288.633 110.819 305.403C107.926 324.616 95.535 384.169 95.535 384.169C86.6131 386.403 77.9198 382.545 77.9198 382.545C77.9198 382.545 76.5172 342.659 77.3891 323.197Z" fill="#353866"/>
<path d="M118.452 244.112L119.703 236.201C123.556 235.629 133.311 229.535 139.091 224.211C139.091 224.211 133.868 233.063 122.876 239.155L122.68 301.536L118.452 244.112Z" fill="#4D4181"/>
<path d="M145.568 161.065C141.068 150.809 133.343 133.541 133.343 133.541L131.376 105.477C131.376 105.477 135.757 105.592 139.924 106.241C144.092 106.892 150.683 110.868 153.707 118.356C155.952 123.917 167.66 157.843 167.66 157.843L188.064 147.089C193.287 143.765 195.137 138.268 198.473 135.144C201.811 132.02 205.183 131.489 208.829 128.945C212.476 126.4 213.988 124.359 214.916 126.899C215.844 129.439 211.715 133.355 210.968 134.331C210.223 135.307 206.151 137.388 211.281 137.655C216.411 137.921 226.759 132.935 229.236 132.081C231.713 131.227 231.496 134.168 230.209 135.992C228.923 137.816 228.781 143.181 226.619 146.191C224.325 149.384 223.088 150.759 218.172 152.659C213.593 154.429 204.121 154.876 199.235 157.696C194.348 160.516 182.536 171.191 174.663 176.667C164.089 184.023 158.137 184.503 153.997 178.639C149.857 172.775 147.152 164.676 145.568 161.065Z" fill="#F6879F"/>
<path d="M128.623 104.947C135.548 104.415 143.723 104.84 148.253 108.975C151.859 112.267 153.217 114.369 157.245 125.687C159.967 133.327 165.616 150.925 165.616 150.925C165.616 150.925 153.616 153.063 145.549 163.191L132.554 133.977L128.623 104.947Z" fill="#353866"/>
<path d="M167.66 157.843C163.143 159.461 160.123 162.632 159.039 164.46C159.039 164.46 159.525 159.096 167.004 155.945L167.66 157.843Z" fill="#F47089"/>
<path d="M112.024 103.697C112.024 103.697 107.57 103.359 102.28 104.757C96.1861 106.368 85.2646 109.435 85.2646 109.435C81.7985 111.24 80.4438 117.243 79.6599 120.693C77.1506 131.739 83.7173 156.741 84.6673 166.416C85.6178 176.088 83.5407 205.911 83.5407 205.911C90.997 214.543 131.377 220.275 151.044 205.912C151.044 205.912 151.901 137.553 149.963 127.737C147.031 112.896 142.68 105.839 127.332 104.947L112.024 103.697Z" fill="#4D4181"/>
<path d="M120.653 67.0174L116.266 69.4387C115.619 68.1787 116.077 66.6147 117.288 65.9467C118.501 65.2774 120.007 65.7574 120.653 67.0174Z" fill="#353866"/>
<path d="M139.723 68.784L135.721 65.7026C136.537 64.556 138.095 64.3173 139.2 65.168C140.304 66.02 140.539 67.6386 139.723 68.784Z" fill="#353866"/>
<path d="M100.488 53.0587C100.488 53.0587 95.7704 53.7146 94.0408 57.2706C92.5361 60.3626 93.0813 67.8293 95.0856 75.9653C97.0908 84.1013 98.9804 89.0026 100.159 91.2533C101.338 93.5053 103.76 94.1386 103.76 94.1386L103.525 84.484L103.176 77.7573C103.176 77.7573 107.494 71.86 107.969 67.028C108.579 60.808 107.27 58.2627 107.27 58.2627L100.488 53.0587Z" fill="#353866"/>
<path d="M108.106 62.4C108.137 72.356 116.235 80.4013 126.192 80.368C136.148 80.336 143.611 72.1679 143.579 62.2133C143.547 52.2559 136.031 44.2813 126.074 44.3133C116.118 44.3466 108.073 52.444 108.106 62.4Z" fill="#353866"/>
<path d="M103.43 76.684C101.808 78.0906 100.487 74.4493 99.1221 73.0293C97.757 71.6106 93.3086 69.6786 91.1081 74.356C88.8653 79.1213 93.0486 85.8227 96.4705 87.136C100.179 88.5613 102.28 85.3573 102.28 85.3573V106.751C107.41 115.993 116.466 115.709 121.299 115.189C126.133 114.668 127.196 109.639 123.663 105.584L123.624 98.968C123.624 98.968 129.087 99.7786 131.749 99.3586C136.179 98.6586 138.495 95.3173 139.824 90.5146C141.959 82.8026 142.816 69.84 139.851 54.8653C134.888 51.0266 117.682 51.6626 107.27 58.2626C108.032 71.544 105.053 75.2773 103.43 76.684Z" fill="#F6879F"/>
<path d="M140.672 47.3079C141.34 44.5319 141.641 41.6693 141.568 38.816C141.539 37.6867 141.292 36.3293 140.243 35.9106C139.224 35.5053 138.152 36.2533 137.244 36.8679C133.409 39.4573 128.629 40.1866 124.009 40.4399C116.033 40.8786 103.775 40.3573 99.7094 49.1146C98.5818 51.5426 98.3876 54.1013 100.617 55.7799C102.519 57.2133 104.956 57.86 107.27 58.2626C111.311 58.9666 115.319 59.856 119.387 60.396C123.532 60.9453 128.364 61.484 132.437 60.228C135.857 59.172 139.336 58.2653 141.891 55.5413C144.084 53.2039 145.357 50.0266 145.387 46.8226C145.391 46.3666 145.283 45.7933 144.84 45.684C144.617 45.6293 144.387 45.7199 144.176 45.8106C143.008 46.3106 141.84 46.8079 140.672 47.3079Z" fill="#353866"/>
<path d="M123.624 98.968C123.624 98.968 113.723 97.0066 110.259 95.1786C107.94 93.956 106.025 91.8293 105.462 90.464C105.462 90.464 106.119 93.3973 108.196 96.0347C110.736 99.26 123.632 101.6 123.632 101.6L123.624 98.968Z" fill="#F47089"/>
<path d="M121.633 73.5773C121.637 74.8519 120.646 75.8853 119.42 75.8866C118.193 75.8866 117.196 74.8546 117.191 73.5799C117.187 72.3053 118.178 71.2719 119.405 71.2706C120.631 71.2706 121.629 72.3026 121.633 73.5773Z" fill="#353866"/>
<path d="M124.83 88.9733C124.834 90.1719 123.902 91.1439 122.748 91.1439C121.595 91.1439 120.657 90.1733 120.653 88.9746C120.649 87.7773 121.581 86.8053 122.735 86.8053C123.887 86.8053 124.826 87.7746 124.83 88.9733Z" fill="#C35363"/>
<path d="M118.833 66.5707L114.242 69.4628C113.463 68.1414 113.86 66.4214 115.128 65.6228C116.396 64.8241 118.055 65.2481 118.833 66.5707Z" fill="#353866"/>
<path d="M135.024 63.744L139.849 65.8987C139.299 67.264 137.773 67.8893 136.441 67.2933C135.109 66.6987 134.475 65.108 135.024 63.744Z" fill="#353866"/>
<path d="M137.568 72.9053C137.572 74.136 136.615 75.136 135.429 75.136C134.244 75.136 133.28 74.1386 133.275 72.9066C133.272 71.676 134.229 70.6773 135.415 70.676C136.6 70.676 137.565 71.6733 137.568 72.9053Z" fill="#353866"/>
<path d="M126.665 69.1439L127.455 83.9653L134.484 82.1039L126.665 69.1439Z" fill="#F47089"/>
<path d="M2.12926 130.212C4.43446 131.457 13.8339 138.063 18.9375 138.636C21.1001 138.877 21.6865 138.529 21.6001 137.967C21.4829 137.199 20.1203 136.032 19.7875 135.407C19.2105 134.321 15.7741 129.787 17.1027 127.431C18.4313 125.076 19.5902 127.336 22.7746 130.441C25.9579 133.545 29.1995 134.617 31.9834 138.244C34.7667 141.869 35.6974 147.593 40.3085 151.723L58.6907 164.261C58.6907 164.261 67.2485 124.539 71.0037 119.863C74.949 114.947 92.1735 125.665 88.5725 141.301C84.9714 156.936 76.7979 184.059 71.1246 189.388C67.4547 192.835 59.7017 189.579 50.0329 180.979C42.397 174.188 31.923 163.947 27.561 160.369C23.199 156.792 13.9255 154.809 9.69645 152.317C5.1553 149.641 4.15842 148.084 2.41467 144.56C0.771964 141.239 1.50582 135.921 0.532381 133.913C-0.440536 131.904 -0.175952 128.967 2.12926 130.212Z" fill="#F6879F"/>
<path d="M85.2646 109.435C91.1506 113.123 91.449 118.484 91.7413 124.611C92.0105 130.251 90.8766 138.035 88.3845 145.728C85.8845 153.445 81.9235 167.544 81.9235 167.544C81.9235 167.544 66.5361 167.9 58.6189 161.06C58.6189 161.06 62.2303 145.868 64.7793 134.445C67.3277 123.021 70.4271 110.728 85.2646 109.435Z" fill="#353866"/>
<path d="M58.6909 164.261C62.8841 166.593 65.3471 171.608 66.119 173.588C66.119 173.588 65.9887 166.544 59.1221 162.217L58.6909 164.261Z" fill="#F47089"/>
<path d="M218.316 452.443L321.221 511.856V533.745L218.316 474.332V452.443Z" fill="#50549A"/>
<path d="M321.221 533.745L218.316 474.332V452.443L321.221 511.856V533.745ZM268.261 500.611C269.16 501.112 270.009 501.349 270.765 501.349C271.423 501.349 272.009 501.169 272.496 500.827C273.085 500.475 274.616 499.553 274.797 499.449C275.853 498.841 276.509 497.541 276.509 495.683C276.509 491.964 273.899 487.444 270.679 485.584C269.747 485.047 268.867 484.792 268.085 484.792C267.517 484.792 267.003 484.927 266.559 485.184C266.373 485.292 264.752 486.267 264.2 486.596C263.051 487.163 262.331 488.504 262.331 490.456C262.331 494.173 264.941 498.695 268.161 500.553C268.195 500.573 268.228 500.592 268.261 500.611Z" fill="#353866"/>
<path d="M424.127 452.443L321.221 511.856V533.745L424.127 474.332V452.443Z" fill="#50549A"/>
<path d="M321.221 533.745V511.856L424.127 452.443V474.332L321.221 533.745Z" fill="#6368C0"/>
<path d="M424.127 452.443L321.22 393.031L218.316 452.443L321.221 511.856L424.127 452.443Z" fill="#50549A"/>
<path d="M321.221 511.856V505.603L229.147 452.443H218.316L321.22 393.031L424.127 452.443L321.22 393.031L321.221 399.285L413.295 452.443H424.127L321.221 511.856Z" fill="#6368C0"/>
<path d="M321.221 511.856L218.316 452.443H229.147L321.221 505.603V511.856Z" fill="#50549A"/>
<path d="M424.127 452.443H413.295L321.221 399.285L321.22 393.031L424.127 452.443Z" fill="#50549A"/>
<path d="M424.127 452.444H413.295L321.221 505.603V511.856L424.127 452.444Z" fill="#50549A"/>
<path d="M321.22 393.031L321.221 399.285L229.147 452.444H218.316L321.22 393.031Z" fill="#50549A"/>
<path d="M321.593 426.699L365.812 452.229C369.12 454.139 369.12 457.236 365.812 459.147L332.832 478.188C329.523 480.097 324.159 480.097 320.849 478.188L276.631 452.657C273.323 450.748 273.323 447.651 276.631 445.74L309.611 426.699C312.919 424.789 318.283 424.789 321.593 426.699Z" fill="#4D4181"/>
<path d="M332.832 478.188L364.721 459.776L321.593 434.876C318.283 432.965 312.919 432.965 309.611 434.876L277.721 453.287L320.849 478.188C324.159 480.097 329.523 480.097 332.832 478.188Z" fill="#353866"/>
<path d="M294.895 452.481L314.237 441.313C314.875 440.944 315.911 440.944 316.548 441.309L318.929 442.676C319.567 443.043 319.568 443.639 318.929 444.007L299.587 455.176C298.949 455.544 297.915 455.545 297.276 455.179L294.896 453.812C294.257 453.444 294.257 452.849 294.895 452.481Z" fill="#6368C0"/>
<path d="M323.788 469.188L343.131 458.02C343.768 457.652 344.803 457.651 345.441 458.017L347.821 459.383C348.46 459.751 348.461 460.346 347.823 460.713L328.481 471.883C327.843 472.251 326.808 472.252 326.169 471.885L323.789 470.518C323.151 470.152 323.151 469.556 323.788 469.188Z" fill="#6368C0"/>
<path d="M276.509 495.683C276.509 491.964 273.899 487.444 270.679 485.584C269.068 484.655 267.613 484.572 266.559 485.184C266.347 485.308 264.251 486.568 264.035 486.694C262.984 487.303 262.332 488.603 262.332 490.456C262.332 494.173 264.941 498.695 268.161 500.553C269.775 501.485 271.231 501.567 272.285 500.952C272.496 500.829 274.584 499.572 274.797 499.449C275.853 498.841 276.509 497.541 276.509 495.683Z" fill="#50549A"/>
<path d="M270.765 501.349C270.009 501.349 269.16 501.112 268.261 500.611C269.157 501.11 270.003 501.347 270.755 501.347C271.324 501.347 271.84 501.211 272.285 500.952C272.317 500.934 272.392 500.889 272.496 500.827C272.009 501.17 271.423 501.349 270.765 501.349ZM268.161 500.553C264.941 498.695 262.331 494.173 262.331 490.456C262.331 488.504 263.051 487.163 264.2 486.596C264.12 486.644 264.061 486.679 264.035 486.694C262.984 487.303 262.332 488.603 262.332 490.456C262.332 494.173 264.941 498.695 268.161 500.553Z" fill="#088D7A"/>
<path d="M270.755 501.347C270.003 501.347 269.157 501.11 268.261 500.611C268.228 500.592 268.195 500.573 268.161 500.553C264.941 498.695 262.332 494.173 262.332 490.456C262.332 488.603 262.984 487.303 264.035 486.693C264.061 486.679 264.12 486.644 264.2 486.596C264.604 486.397 265.06 486.293 265.557 486.293C266.341 486.293 267.225 486.549 268.161 487.089C271.381 488.949 273.991 493.469 273.991 497.188C273.991 498.918 273.425 500.171 272.496 500.827C272.392 500.889 272.317 500.934 272.285 500.952C271.84 501.211 271.324 501.347 270.755 501.347Z" fill="#6368C0"/>
<path d="M200.509 529.682C193.795 529.682 187.08 528.171 181.848 525.152L113.584 485.739C108.097 482.571 105.077 478.199 105.077 473.428C105.077 468.659 108.098 464.287 113.584 461.118L192.68 415.452C201.345 410.449 208.668 397.769 208.668 387.763V137.456C208.668 135.983 209.861 134.789 211.335 134.789C212.807 134.789 214.001 135.983 214.001 137.456V387.763C214.001 399.84 205.807 414.033 195.347 420.072L116.251 465.739C112.484 467.913 110.41 470.644 110.41 473.428C110.41 476.213 112.484 478.944 116.251 481.118L184.515 520.532C193.331 525.622 207.677 525.623 216.492 520.536L266.828 491.491C268.105 490.753 269.735 491.192 270.471 492.467C271.207 493.743 270.769 495.375 269.495 496.111L219.159 525.156C213.929 528.172 207.22 529.682 200.509 529.682Z" fill="#4D4181"/>
<path d="M75.3115 13.6561C75.2391 13.2801 75.3131 12.9281 75.5344 12.6001C75.7568 12.2695 76.0563 12.0695 76.4323 11.9975L82.9251 10.7468C83.3036 10.6735 83.6552 10.7494 83.9812 10.9708C84.312 11.1934 84.5115 11.4935 84.5839 11.8695L88.8615 34.0734C88.9339 34.4508 88.8604 34.8028 88.6375 35.1294C88.4172 35.4588 88.1178 35.6575 87.7391 35.7308L81.247 36.9814C80.8708 37.0534 80.5178 36.9801 80.1907 36.7588C79.8615 36.5375 79.6626 36.2374 79.5896 35.8601L75.3115 13.6561ZM80.7213 41.7321C80.6495 41.3548 80.7214 41.0015 80.9438 40.6721C81.1662 40.3455 81.4662 40.1454 81.8427 40.0734L88.335 38.8228C88.7131 38.7495 89.0645 38.8255 89.3917 39.0441C89.7203 39.2668 89.9208 39.5668 89.9938 39.9441L90.9959 45.1468C91.0688 45.5254 90.9953 45.8788 90.7703 46.2041C90.5511 46.5348 90.2522 46.7334 89.8735 46.8054L83.3812 48.0561C83.0047 48.1295 82.6527 48.0561 82.3235 47.8321C81.9959 47.6135 81.7964 47.3135 81.7235 46.9348L80.7213 41.7321Z" fill="#50549A"/>
<path d="M50.8199 42.1919C50.5642 41.9053 50.4471 41.5653 50.4679 41.168C50.4903 40.772 50.6428 40.4466 50.9288 40.1919L55.8532 35.7813C56.1408 35.5239 56.4824 35.4066 56.8762 35.4293C57.2731 35.4479 57.5975 35.6039 57.8532 35.8893L72.9392 52.7333C73.1966 53.0186 73.3147 53.3599 73.2903 53.7559C73.2699 54.1506 73.1163 54.476 72.8288 54.7333L67.9043 59.1439C67.6184 59.3986 67.2783 59.516 66.8819 59.496C66.4887 59.4733 66.1632 59.3213 65.9059 59.032L50.8199 42.1919ZM69.8955 63.4879C69.6392 63.2026 69.5209 62.8613 69.5423 62.4653C69.5663 62.068 69.7184 61.7439 70.0043 61.4893L74.9288 57.0786C75.2174 56.8213 75.558 56.7026 75.9502 56.7253C76.348 56.7479 76.6736 56.8999 76.9294 57.1866L80.4647 61.1346C80.7226 61.4226 80.8397 61.7613 80.8163 62.1573C80.796 62.5506 80.6403 62.8773 80.3537 63.1346L75.4294 67.5453C75.1434 67.8013 74.8043 67.9186 74.408 67.896C74.0127 67.8773 73.6871 67.7213 73.4304 67.436L69.8955 63.4879Z" fill="#50549A"/>
<path d="M74.5013 67.8986C74.4705 67.8986 74.4393 67.8986 74.4081 67.896C74.0128 67.8773 73.6872 67.7213 73.4305 67.436L69.8956 63.488C69.659 63.2253 69.5404 62.9146 69.5398 62.5573C69.5398 62.5266 69.5403 62.496 69.5423 62.4653C69.5663 62.068 69.7185 61.744 70.0044 61.4893L74.9289 57.0786C75.194 56.8413 75.5029 56.7226 75.856 56.7226C75.8872 56.7226 75.9185 56.724 75.9502 56.7253C76.3481 56.748 76.6737 56.9 76.9294 57.1866L80.4648 61.1346C80.7002 61.3973 80.8185 61.7026 80.8196 62.056C80.8196 62.0893 80.8185 62.124 80.8163 62.1573C80.7961 62.5506 80.6403 62.8773 80.3538 63.1346L75.4294 67.5453C75.1664 67.7813 74.8581 67.8986 74.5013 67.8986ZM66.9664 59.4986C66.9382 59.4986 66.9106 59.4973 66.882 59.496C66.4888 59.4733 66.1633 59.3213 65.906 59.032L50.82 42.192C50.5841 41.928 50.4664 41.6173 50.4653 41.26C50.4653 41.2293 50.4664 41.2 50.468 41.168C50.4904 40.772 50.6429 40.4466 50.9289 40.192L55.8533 35.7813C56.118 35.5453 56.4278 35.4266 56.782 35.4266C56.8133 35.4266 56.8445 35.4266 56.8762 35.4293C57.2732 35.4479 57.5976 35.604 57.8533 35.8893L72.9393 52.7333C73.1742 52.9946 73.2934 53.3013 73.2934 53.656C73.2934 53.6893 73.2924 53.7226 73.2904 53.756C73.27 54.1506 73.1164 54.476 72.8289 54.7333L67.9044 59.144C67.6388 59.38 67.3268 59.4986 66.9664 59.4986Z" fill="#6368C0"/>
<path d="M242.521 107.04C242.749 107.04 242.945 107.124 243.111 107.289C243.276 107.455 243.359 107.651 243.359 107.877V111.161C243.359 111.389 243.276 111.585 243.111 111.751C242.945 111.916 242.749 111.999 242.521 111.999H227.836C227.608 111.999 227.412 111.916 227.247 111.751C227.081 111.585 227 111.389 227 111.161V91.1465C227 90.9185 227.081 90.7225 227.247 90.5572C227.412 90.3919 227.608 90.3092 227.836 90.3092H242.275C242.501 90.3092 242.697 90.3919 242.863 90.5572C243.028 90.7225 243.111 90.9185 243.111 91.1465V94.4306C243.111 94.6572 243.028 94.8545 242.863 95.0185C242.697 95.1852 242.501 95.2679 242.275 95.2679H232.731V98.6132H241.592C241.82 98.6132 242.015 98.6959 242.181 98.8612C242.345 99.0266 242.429 99.2225 242.429 99.4492V102.735C242.429 102.961 242.345 103.157 242.181 103.323C242.015 103.488 241.82 103.571 241.592 103.571H232.731V107.04H242.521Z" fill="#50549A"/>
<path d="M252.653 99.6972H256.155C257.021 99.6972 257.739 99.5332 258.308 99.2012C258.876 98.8719 259.16 98.2732 259.16 97.4039C259.16 96.5372 258.876 95.9386 258.308 95.6079C257.739 95.2772 257.021 95.1119 256.155 95.1119H252.653V99.6972ZM256.155 90.3092C257.517 90.3092 258.736 90.4546 259.811 90.7426C260.884 91.0332 261.797 91.4666 262.553 92.0439C263.307 92.6226 263.885 93.3612 264.287 94.2599C264.691 95.1586 264.892 96.2066 264.892 97.4039C264.892 98.9546 264.571 100.24 263.932 101.263C263.291 102.285 262.383 103.065 261.205 103.601L265.047 110.976C265.109 111.1 265.14 111.213 265.14 111.316C265.14 111.503 265.072 111.663 264.939 111.797C264.804 111.931 264.644 111.999 264.457 111.999H260.244C259.831 111.999 259.536 111.905 259.361 111.72C259.185 111.533 259.047 111.348 258.943 111.161L255.504 104.531H252.653V111.161C252.653 111.389 252.569 111.585 252.405 111.751C252.239 111.916 252.044 111.999 251.816 111.999H247.757C247.529 111.999 247.335 111.916 247.169 111.751C247.004 111.585 246.921 111.389 246.921 111.161V91.1465C246.921 90.9185 247.004 90.7225 247.169 90.5572C247.335 90.3919 247.529 90.3092 247.757 90.3092H256.155Z" fill="#50549A"/>
<path d="M274.187 99.6972H277.688C278.556 99.6972 279.273 99.5332 279.841 99.2012C280.409 98.8719 280.693 98.2732 280.693 97.4039C280.693 96.5372 280.409 95.9386 279.841 95.6079C279.273 95.2772 278.556 95.1119 277.688 95.1119H274.187V99.6972ZM277.688 90.3092C279.052 90.3092 280.271 90.4546 281.344 90.7426C282.417 91.0332 283.332 91.4666 284.087 92.0439C284.84 92.6226 285.419 93.3612 285.821 94.2599C286.225 95.1586 286.425 96.2066 286.425 97.4039C286.425 98.9546 286.105 100.24 285.465 101.263C284.825 102.285 283.916 103.065 282.739 103.601L286.58 110.976C286.643 111.1 286.673 111.213 286.673 111.316C286.673 111.503 286.607 111.663 286.472 111.797C286.339 111.931 286.177 111.999 285.992 111.999H281.779C281.364 111.999 281.069 111.905 280.895 111.72C280.72 111.533 280.58 111.348 280.476 111.161L277.037 104.531H274.187V111.161C274.187 111.389 274.104 111.585 273.94 111.751C273.773 111.916 273.577 111.999 273.349 111.999H269.291C269.063 111.999 268.868 111.916 268.703 111.751C268.537 111.585 268.455 111.389 268.455 111.161V91.1465C268.455 90.9185 268.537 90.7225 268.703 90.5572C268.868 90.3919 269.063 90.3092 269.291 90.3092H277.688Z" fill="#50549A"/>
<path d="M302.879 103.756C302.897 103.385 302.919 102.972 302.94 102.517C302.96 102.064 302.971 101.599 302.971 101.123C302.971 100.648 302.96 100.188 302.94 99.744C302.919 99.3 302.897 98.9026 302.879 98.5506C302.837 98.0346 302.728 97.56 302.553 97.1253C302.377 96.692 302.129 96.316 301.809 95.9946C301.489 95.676 301.091 95.4226 300.617 95.236C300.141 95.0506 299.583 94.9573 298.944 94.9573C298.303 94.9573 297.744 95.0506 297.271 95.236C296.795 95.4226 296.396 95.676 296.077 95.9946C295.756 96.316 295.508 96.692 295.333 97.1253C295.157 97.56 295.049 98.0346 295.008 98.5506C294.967 98.9026 294.941 99.3 294.931 99.744C294.92 100.188 294.915 100.648 294.915 101.123C294.915 101.599 294.92 102.064 294.931 102.517C294.941 102.972 294.967 103.385 295.008 103.756C295.091 104.789 295.447 105.647 296.077 106.328C296.707 107.011 297.663 107.351 298.944 107.351C300.224 107.351 301.173 107.011 301.793 106.328C302.413 105.647 302.775 104.789 302.879 103.756ZM289.276 98.396C289.339 97.24 289.591 96.1493 290.035 95.128C290.479 94.1053 291.109 93.2173 291.925 92.464C292.74 91.7093 293.732 91.1106 294.899 90.6653C296.065 90.2213 297.413 90 298.944 90C300.451 90 301.793 90.2213 302.971 90.6653C304.148 91.1106 305.145 91.7093 305.96 92.464C306.777 93.2173 307.407 94.1053 307.851 95.128C308.295 96.1493 308.548 97.24 308.611 98.396C308.652 99.2853 308.672 100.215 308.672 101.185C308.672 102.156 308.652 103.065 308.611 103.912C308.548 105.068 308.295 106.157 307.851 107.18C307.407 108.203 306.777 109.097 305.96 109.86C305.145 110.625 304.148 111.224 302.971 111.657C301.793 112.092 300.451 112.308 298.944 112.308C297.413 112.308 296.065 112.092 294.899 111.657C293.732 111.224 292.74 110.625 291.925 109.86C291.109 109.097 290.479 108.203 290.035 107.18C289.591 106.157 289.339 105.068 289.276 103.912C289.233 103.065 289.215 102.156 289.215 101.185C289.215 100.215 289.233 99.2853 289.276 98.396Z" fill="#50549A"/>
<path d="M333.752 103.044V97.3427L329.228 103.044H333.752ZM334.432 111.999C334.205 111.999 334.009 111.916 333.844 111.751C333.678 111.585 333.597 111.389 333.597 111.161V108.001H323.837C323.609 108.001 323.413 107.919 323.248 107.753C323.081 107.588 323 107.392 323 107.165V103.88C323 103.344 323.134 102.9 323.404 102.548L332.666 90.868C332.853 90.64 333.024 90.4907 333.178 90.4187C333.333 90.3467 333.544 90.3093 333.813 90.3093H338.492C338.72 90.3093 338.914 90.392 339.081 90.5573C339.244 90.7227 339.328 90.9187 339.328 91.1467V103.044H341.992C342.22 103.044 342.414 103.127 342.581 103.292C342.746 103.457 342.83 103.653 342.83 103.88V107.165C342.83 107.392 342.746 107.588 342.581 107.753C342.414 107.919 342.22 108.001 341.992 108.001H339.328V111.161C339.328 111.389 339.244 111.585 339.081 111.751C338.914 111.916 338.72 111.999 338.492 111.999H334.432Z" fill="#50549A"/>
<path d="M357.794 103.756C357.876 102.001 357.876 100.267 357.794 98.5506C357.753 98.0346 357.676 97.56 357.561 97.1253C357.448 96.692 357.266 96.316 357.02 95.9947C356.772 95.676 356.442 95.4227 356.029 95.236C355.614 95.0507 355.098 94.9573 354.48 94.9573C353.858 94.9573 353.342 95.0507 352.93 95.236C352.516 95.4227 352.186 95.676 351.937 95.9947C351.69 96.316 351.504 96.692 351.381 97.1253C351.257 97.56 351.184 98.0346 351.165 98.5506C351.06 100.267 351.06 102.001 351.165 103.756C351.184 104.273 351.252 104.748 351.364 105.183C351.477 105.616 351.665 105.992 351.924 106.313C352.181 106.633 352.516 106.885 352.93 107.072C353.342 107.259 353.858 107.351 354.48 107.351C355.098 107.351 355.614 107.259 356.029 107.072C356.442 106.885 356.776 106.633 357.036 106.313C357.293 105.992 357.48 105.616 357.592 105.183C357.705 104.748 357.774 104.273 357.794 103.756ZM354.48 90C356.029 90 357.36 90.228 358.476 90.6813C359.592 91.136 360.516 91.7453 361.248 92.5093C361.981 93.2733 362.53 94.1666 362.892 95.1893C363.253 96.212 363.464 97.2813 363.525 98.396C363.569 99.2853 363.588 100.215 363.588 101.185C363.588 102.156 363.569 103.065 363.525 103.912C363.464 105.027 363.253 106.096 362.892 107.119C362.53 108.141 361.981 109.035 361.248 109.799C360.516 110.563 359.592 111.172 358.476 111.627C357.36 112.08 356.029 112.308 354.48 112.308C352.93 112.308 351.597 112.08 350.481 111.627C349.365 111.172 348.442 110.563 347.709 109.799C346.976 109.035 346.428 108.141 346.066 107.119C345.704 106.096 345.493 105.027 345.43 103.912C345.389 103.065 345.369 102.156 345.369 101.185C345.369 100.215 345.389 99.2853 345.43 98.396C345.493 97.2813 345.704 96.212 346.066 95.1893C346.428 94.1666 346.976 93.2733 347.709 92.5093C348.442 91.7453 349.365 91.136 350.481 90.6813C351.597 90.228 352.93 90 354.48 90Z" fill="#50549A"/>
<path d="M376.849 103.044V97.3427L372.325 103.044H376.849ZM377.53 111.999C377.302 111.999 377.108 111.916 376.942 111.751C376.776 111.585 376.693 111.389 376.693 111.161V108.001H366.933C366.705 108.001 366.51 107.919 366.345 107.753C366.181 107.588 366.097 107.392 366.097 107.165V103.88C366.097 103.344 366.232 102.9 366.5 102.548L375.764 90.868C375.95 90.64 376.121 90.4907 376.276 90.4187C376.43 90.3467 376.642 90.3093 376.909 90.3093H381.59C381.816 90.3093 382.012 90.392 382.178 90.5573C382.342 90.7227 382.425 90.9187 382.425 91.1467V103.044H385.09C385.318 103.044 385.514 103.127 385.681 103.292C385.844 103.457 385.926 103.653 385.926 103.88V107.165C385.926 107.392 385.844 107.588 385.681 107.753C385.514 107.919 385.318 108.001 385.09 108.001H382.425V111.161C382.425 111.389 382.342 111.585 382.178 111.751C382.012 111.916 381.816 111.999 381.59 111.999H377.53Z" fill="#50549A"/>
<path d="M212 35.184V12.784H221.696C223.701 12.784 225.429 13.1147 226.88 13.776C228.331 14.416 229.451 15.344 230.24 16.56C231.029 17.776 231.424 19.2267 231.424 20.912C231.424 22.576 231.029 24.016 230.24 25.232C229.451 26.448 228.331 27.3867 226.88 28.048C225.429 28.688 223.701 29.008 221.696 29.008H214.88L217.184 26.672V35.184H212ZM217.184 27.248L214.88 24.784H221.408C223.008 24.784 224.203 24.4427 224.992 23.76C225.781 23.0773 226.176 22.128 226.176 20.912C226.176 19.6747 225.781 18.7147 224.992 18.032C224.203 17.3493 223.008 17.008 221.408 17.008H214.88L217.184 14.544V27.248ZM245.177 35.184V31.824L244.857 31.088V25.072C244.857 24.0053 244.526 23.1733 243.865 22.576C243.225 21.9787 242.233 21.68 240.889 21.68C239.972 21.68 239.065 21.8293 238.169 22.128C237.294 22.4053 236.548 22.7893 235.929 23.28L234.137 19.792C235.076 19.1307 236.206 18.6187 237.529 18.256C238.852 17.8933 240.196 17.712 241.561 17.712C244.185 17.712 246.222 18.3307 247.673 19.568C249.124 20.8053 249.849 22.736 249.849 25.36V35.184H245.177ZM239.929 35.44C238.585 35.44 237.433 35.216 236.473 34.768C235.513 34.2987 234.777 33.6693 234.265 32.88C233.753 32.0907 233.497 31.2053 233.497 30.224C233.497 29.2 233.742 28.304 234.233 27.536C234.745 26.768 235.545 26.1707 236.633 25.744C237.721 25.296 239.14 25.072 240.889 25.072H245.465V27.984H241.433C240.26 27.984 239.449 28.176 239.001 28.56C238.574 28.944 238.361 29.424 238.361 30C238.361 30.64 238.606 31.152 239.097 31.536C239.609 31.8987 240.302 32.08 241.177 32.08C242.009 32.08 242.756 31.888 243.417 31.504C244.078 31.0987 244.558 30.512 244.857 29.744L245.625 32.048C245.262 33.1573 244.601 34 243.641 34.576C242.681 35.152 241.444 35.44 239.929 35.44ZM239.161 15.76L243.481 11.152H248.857L243.065 15.76H239.161ZM262.588 41.648C260.967 41.648 259.399 41.4453 257.884 41.04C256.391 40.656 255.143 40.0693 254.14 39.28L256.124 35.696C256.849 36.2933 257.767 36.7627 258.876 37.104C260.007 37.4667 261.116 37.648 262.204 37.648C263.975 37.648 265.255 37.2533 266.044 36.464C266.855 35.6747 267.26 34.5013 267.26 32.944V30.352L267.58 26.032L267.516 21.68V17.968H272.252V32.304C272.252 35.504 271.42 37.8613 269.756 39.376C268.092 40.8907 265.703 41.648 262.588 41.648ZM261.82 34.352C260.22 34.352 258.769 34.0107 257.468 33.328C256.188 32.624 255.153 31.6533 254.364 30.416C253.596 29.1573 253.212 27.696 253.212 26.032C253.212 24.3467 253.596 22.8853 254.364 21.648C255.153 20.3893 256.188 19.4187 257.468 18.736C258.769 18.0533 260.22 17.712 261.82 17.712C263.271 17.712 264.551 18.0107 265.66 18.608C266.769 19.184 267.633 20.0907 268.252 21.328C268.871 22.544 269.18 24.112 269.18 26.032C269.18 27.9307 268.871 29.4987 268.252 30.736C267.633 31.952 266.769 32.8587 265.66 33.456C264.551 34.0533 263.271 34.352 261.82 34.352ZM262.812 30.256C263.687 30.256 264.465 30.0853 265.148 29.744C265.831 29.3813 266.364 28.88 266.748 28.24C267.132 27.6 267.324 26.864 267.324 26.032C267.324 25.1787 267.132 24.4427 266.748 23.824C266.364 23.184 265.831 22.6933 265.148 22.352C264.465 21.9893 263.687 21.808 262.812 21.808C261.937 21.808 261.159 21.9893 260.476 22.352C259.793 22.6933 259.249 23.184 258.844 23.824C258.46 24.4427 258.268 25.1787 258.268 26.032C258.268 26.864 258.46 27.6 258.844 28.24C259.249 28.88 259.793 29.3813 260.476 29.744C261.159 30.0853 261.937 30.256 262.812 30.256ZM276.898 35.184V17.968H281.89V35.184H276.898ZM279.394 15.568C278.477 15.568 277.73 15.3013 277.154 14.768C276.578 14.2347 276.29 13.5733 276.29 12.784C276.29 11.9947 276.578 11.3333 277.154 10.8C277.73 10.2667 278.477 10 279.394 10C280.311 10 281.058 10.256 281.634 10.768C282.21 11.2587 282.498 11.8987 282.498 12.688C282.498 13.52 282.21 14.2133 281.634 14.768C281.079 15.3013 280.333 15.568 279.394 15.568ZM296.987 17.712C298.352 17.712 299.568 17.9893 300.635 18.544C301.723 19.0773 302.576 19.9093 303.195 21.04C303.814 22.1493 304.123 23.5787 304.123 25.328V35.184H299.131V26.096C299.131 24.7093 298.822 23.6853 298.203 23.024C297.606 22.3627 296.752 22.032 295.643 22.032C294.854 22.032 294.139 22.2027 293.499 22.544C292.88 22.864 292.39 23.3653 292.027 24.048C291.686 24.7307 291.515 25.6053 291.515 26.672V35.184H286.523V17.968H291.291V22.736L290.395 21.296C291.014 20.144 291.899 19.2587 293.051 18.64C294.203 18.0213 295.515 17.712 296.987 17.712ZM319.208 35.184V31.824L318.888 31.088V25.072C318.888 24.0053 318.557 23.1733 317.896 22.576C317.256 21.9787 316.264 21.68 314.92 21.68C314.003 21.68 313.096 21.8293 312.2 22.128C311.325 22.4053 310.579 22.7893 309.96 23.28L308.168 19.792C309.107 19.1307 310.237 18.6187 311.56 18.256C312.883 17.8933 314.227 17.712 315.592 17.712C318.216 17.712 320.253 18.3307 321.704 19.568C323.155 20.8053 323.88 22.736 323.88 25.36V35.184H319.208ZM313.96 35.44C312.616 35.44 311.464 35.216 310.504 34.768C309.544 34.2987 308.808 33.6693 308.296 32.88C307.784 32.0907 307.528 31.2053 307.528 30.224C307.528 29.2 307.773 28.304 308.264 27.536C308.776 26.768 309.576 26.1707 310.664 25.744C311.752 25.296 313.171 25.072 314.92 25.072H319.496V27.984H315.464C314.291 27.984 313.48 28.176 313.032 28.56C312.605 28.944 312.392 29.424 312.392 30C312.392 30.64 312.637 31.152 313.128 31.536C313.64 31.8987 314.333 32.08 315.208 32.08C316.04 32.08 316.787 31.888 317.448 31.504C318.109 31.0987 318.589 30.512 318.888 29.744L319.656 32.048C319.293 33.1573 318.632 34 317.672 34.576C316.712 35.152 315.475 35.44 313.96 35.44ZM347.925 17.712C349.29 17.712 350.506 17.9893 351.573 18.544C352.661 19.0773 353.514 19.9093 354.133 21.04C354.751 22.1493 355.061 23.5787 355.061 25.328V35.184H350.069V26.096C350.069 24.7093 349.759 23.6853 349.141 23.024C348.543 22.3627 347.69 22.032 346.581 22.032C345.791 22.032 345.077 22.2027 344.437 22.544C343.818 22.864 343.327 23.3653 342.965 24.048C342.623 24.7307 342.453 25.6053 342.453 26.672V35.184H337.461V17.968H342.229V22.736L341.333 21.296C341.951 20.144 342.837 19.2587 343.989 18.64C345.141 18.0213 346.453 17.712 347.925 17.712ZM370.146 35.184V31.824L369.826 31.088V25.072C369.826 24.0053 369.495 23.1733 368.834 22.576C368.194 21.9787 367.202 21.68 365.858 21.68C364.94 21.68 364.034 21.8293 363.138 22.128C362.263 22.4053 361.516 22.7893 360.898 23.28L359.106 19.792C360.044 19.1307 361.175 18.6187 362.498 18.256C363.82 17.8933 365.164 17.712 366.53 17.712C369.154 17.712 371.191 18.3307 372.642 19.568C374.092 20.8053 374.818 22.736 374.818 25.36V35.184H370.146ZM364.898 35.44C363.554 35.44 362.402 35.216 361.442 34.768C360.482 34.2987 359.746 33.6693 359.234 32.88C358.722 32.0907 358.466 31.2053 358.466 30.224C358.466 29.2 358.711 28.304 359.202 27.536C359.714 26.768 360.514 26.1707 361.602 25.744C362.69 25.296 364.108 25.072 365.858 25.072H370.434V27.984H366.402C365.228 27.984 364.418 28.176 363.97 28.56C363.543 28.944 363.33 29.424 363.33 30C363.33 30.64 363.575 31.152 364.066 31.536C364.578 31.8987 365.271 32.08 366.146 32.08C366.978 32.08 367.724 31.888 368.386 31.504C369.047 31.0987 369.527 30.512 369.826 29.744L370.594 32.048C370.231 33.1573 369.57 34 368.61 34.576C367.65 35.152 366.412 35.44 364.898 35.44ZM369.442 15.856C368.887 15.856 368.396 15.76 367.97 15.568C367.543 15.3547 367.159 15.12 366.818 14.864C366.476 14.5867 366.156 14.352 365.858 14.16C365.559 13.9467 365.26 13.84 364.962 13.84C364.535 13.84 364.183 14 363.906 14.32C363.628 14.6187 363.468 15.056 363.426 15.632H360.898C360.94 14.2027 361.292 13.072 361.954 12.24C362.615 11.3867 363.511 10.96 364.642 10.96C365.196 10.96 365.687 11.0667 366.114 11.28C366.54 11.472 366.924 11.7067 367.266 11.984C367.628 12.2613 367.959 12.5067 368.258 12.72C368.556 12.912 368.844 13.008 369.122 13.008C369.57 13.008 369.932 12.8587 370.21 12.56C370.487 12.24 370.636 11.8133 370.658 11.28H373.186C373.164 12.6453 372.812 13.7547 372.13 14.608C371.468 15.44 370.572 15.856 369.442 15.856ZM387.653 35.44C385.818 35.44 384.186 35.056 382.757 34.288C381.349 33.52 380.229 32.4747 379.397 31.152C378.586 29.808 378.181 28.2827 378.181 26.576C378.181 24.848 378.586 23.3227 379.397 22C380.229 20.656 381.349 19.6107 382.757 18.864C384.186 18.096 385.818 17.712 387.653 17.712C389.466 17.712 391.087 18.096 392.517 18.864C393.946 19.6107 395.066 20.6453 395.877 21.968C396.687 23.2907 397.093 24.8267 397.093 26.576C397.093 28.2827 396.687 29.808 395.877 31.152C395.066 32.4747 393.946 33.52 392.517 34.288C391.087 35.056 389.466 35.44 387.653 35.44ZM387.653 31.344C388.485 31.344 389.231 31.152 389.893 30.768C390.554 30.384 391.077 29.84 391.461 29.136C391.845 28.4107 392.037 27.5573 392.037 26.576C392.037 25.5733 391.845 24.72 391.461 24.016C391.077 23.312 390.554 22.768 389.893 22.384C389.231 22 388.485 21.808 387.653 21.808C386.821 21.808 386.074 22 385.413 22.384C384.751 22.768 384.218 23.312 383.813 24.016C383.429 24.72 383.237 25.5733 383.237 26.576C383.237 27.5573 383.429 28.4107 383.813 29.136C384.218 29.84 384.751 30.384 385.413 30.768C386.074 31.152 386.821 31.344 387.653 31.344ZM222.895 74.44C220.933 74.44 219.205 74.056 217.711 73.288C216.239 72.52 215.098 71.4747 214.287 70.152C213.477 68.808 213.071 67.2827 213.071 65.576C213.071 63.848 213.466 62.3227 214.255 61C215.066 59.656 216.165 58.6107 217.551 57.864C218.938 57.096 220.506 56.712 222.255 56.712C223.941 56.712 225.455 57.0747 226.799 57.8C228.165 58.504 229.242 59.528 230.031 60.872C230.821 62.1947 231.215 63.784 231.215 65.64C231.215 65.832 231.205 66.056 231.183 66.312C231.162 66.5467 231.141 66.7707 231.119 66.984H217.135V64.072H228.495L226.575 64.936C226.575 64.04 226.394 63.2613 226.031 62.6C225.669 61.9387 225.167 61.4267 224.527 61.064C223.887 60.68 223.141 60.488 222.287 60.488C221.434 60.488 220.677 60.68 220.015 61.064C219.375 61.4267 218.874 61.9493 218.511 62.632C218.149 63.2933 217.967 64.0827 217.967 65V65.768C217.967 66.7067 218.17 67.5387 218.575 68.264C219.002 68.968 219.589 69.512 220.335 69.896C221.103 70.2587 221.999 70.44 223.023 70.44C223.941 70.44 224.741 70.3013 225.423 70.024C226.127 69.7467 226.767 69.3307 227.343 68.776L229.999 71.656C229.21 72.552 228.218 73.2453 227.023 73.736C225.829 74.2053 224.453 74.44 222.895 74.44ZM245.003 56.712C246.368 56.712 247.584 56.9893 248.651 57.544C249.739 58.0773 250.592 58.9093 251.211 60.04C251.829 61.1493 252.139 62.5787 252.139 64.328V74.184H247.147V65.096C247.147 63.7093 246.837 62.6853 246.219 62.024C245.621 61.3627 244.768 61.032 243.659 61.032C242.869 61.032 242.155 61.2027 241.515 61.544C240.896 61.864 240.405 62.3653 240.043 63.048C239.701 63.7307 239.531 64.6053 239.531 65.672V74.184H234.539V56.968H239.307V61.736L238.411 60.296C239.029 59.144 239.915 58.2587 241.067 57.64C242.219 57.0213 243.531 56.712 245.003 56.712ZM265.109 74.44C263.253 74.44 261.599 74.0667 260.149 73.32C258.698 72.552 257.557 71.496 256.725 70.152C255.914 68.808 255.509 67.2827 255.509 65.576C255.509 63.848 255.914 62.3227 256.725 61C257.557 59.656 258.698 58.6107 260.149 57.864C261.599 57.096 263.253 56.712 265.109 56.712C266.922 56.712 268.501 57.096 269.845 57.864C271.189 58.6107 272.181 59.688 272.821 61.096L268.949 63.176C268.501 62.3653 267.935 61.768 267.253 61.384C266.591 61 265.866 60.808 265.077 60.808C264.223 60.808 263.455 61 262.773 61.384C262.09 61.768 261.546 62.312 261.141 63.016C260.757 63.72 260.565 64.5733 260.565 65.576C260.565 66.5787 260.757 67.432 261.141 68.136C261.546 68.84 262.09 69.384 262.773 69.768C263.455 70.152 264.223 70.344 265.077 70.344C265.866 70.344 266.591 70.1627 267.253 69.8C267.935 69.416 268.501 68.808 268.949 67.976L272.821 70.088C272.181 71.4747 271.189 72.552 269.845 73.32C268.501 74.0667 266.922 74.44 265.109 74.44ZM283.668 74.44C281.834 74.44 280.202 74.056 278.772 73.288C277.364 72.52 276.244 71.4747 275.412 70.152C274.602 68.808 274.196 67.2827 274.196 65.576C274.196 63.848 274.602 62.3227 275.412 61C276.244 59.656 277.364 58.6107 278.772 57.864C280.202 57.096 281.834 56.712 283.668 56.712C285.482 56.712 287.103 57.096 288.532 57.864C289.962 58.6107 291.082 59.6453 291.892 60.968C292.703 62.2907 293.108 63.8267 293.108 65.576C293.108 67.2827 292.703 68.808 291.892 70.152C291.082 71.4747 289.962 72.52 288.532 73.288C287.103 74.056 285.482 74.44 283.668 74.44ZM283.668 70.344C284.5 70.344 285.247 70.152 285.908 69.768C286.57 69.384 287.092 68.84 287.476 68.136C287.86 67.4107 288.052 66.5573 288.052 65.576C288.052 64.5733 287.86 63.72 287.476 63.016C287.092 62.312 286.57 61.768 285.908 61.384C285.247 61 284.5 60.808 283.668 60.808C282.836 60.808 282.09 61 281.428 61.384C280.767 61.768 280.234 62.312 279.828 63.016C279.444 63.72 279.252 64.5733 279.252 65.576C279.252 66.5573 279.444 67.4107 279.828 68.136C280.234 68.84 280.767 69.384 281.428 69.768C282.09 70.152 282.836 70.344 283.668 70.344ZM306.909 56.712C308.274 56.712 309.49 56.9893 310.557 57.544C311.645 58.0773 312.498 58.9093 313.117 60.04C313.736 61.1493 314.045 62.5787 314.045 64.328V74.184H309.053V65.096C309.053 63.7093 308.744 62.6853 308.125 62.024C307.528 61.3627 306.674 61.032 305.565 61.032C304.776 61.032 304.061 61.2027 303.421 61.544C302.802 61.864 302.312 62.3653 301.949 63.048C301.608 63.7307 301.437 64.6053 301.437 65.672V74.184H296.445V56.968H301.213V61.736L300.317 60.296C300.936 59.144 301.821 58.2587 302.973 57.64C304.125 57.0213 305.437 56.712 306.909 56.712ZM325.61 74.44C323.583 74.44 322.005 73.928 320.874 72.904C319.743 71.8587 319.178 70.312 319.178 68.264V53.16H324.17V68.2C324.17 68.9253 324.362 69.4907 324.746 69.896C325.13 70.28 325.653 70.472 326.314 70.472C327.103 70.472 327.775 70.2587 328.33 69.832L329.674 73.352C329.162 73.7147 328.543 73.992 327.818 74.184C327.114 74.3547 326.378 74.44 325.61 74.44ZM316.522 61.192V57.352H328.458V61.192H316.522ZM332.476 74.184V56.968H337.244V61.832L336.572 60.424C337.084 59.208 337.906 58.2907 339.036 57.672C340.167 57.032 341.543 56.712 343.164 56.712V61.32C342.951 61.2987 342.759 61.288 342.588 61.288C342.418 61.2667 342.236 61.256 342.044 61.256C340.679 61.256 339.57 61.6507 338.716 62.44C337.884 63.208 337.468 64.4133 337.468 66.056V74.184H332.476ZM355.568 74.184V70.824L355.248 70.088V64.072C355.248 63.0053 354.917 62.1733 354.256 61.576C353.616 60.9787 352.624 60.68 351.28 60.68C350.362 60.68 349.456 60.8293 348.56 61.128C347.685 61.4053 346.938 61.7893 346.32 62.28L344.528 58.792C345.466 58.1307 346.597 57.6187 347.92 57.256C349.242 56.8933 350.586 56.712 351.952 56.712C354.576 56.712 356.613 57.3307 358.064 58.568C359.514 59.8053 360.24 61.736 360.24 64.36V74.184H355.568ZM350.32 74.44C348.976 74.44 347.824 74.216 346.864 73.768C345.904 73.2987 345.168 72.6693 344.656 71.88C344.144 71.0907 343.888 70.2053 343.888 69.224C343.888 68.2 344.133 67.304 344.624 66.536C345.136 65.768 345.936 65.1707 347.024 64.744C348.112 64.296 349.53 64.072 351.28 64.072H355.856V66.984H351.824C350.65 66.984 349.84 67.176 349.392 67.56C348.965 67.944 348.752 68.424 348.752 69C348.752 69.64 348.997 70.152 349.488 70.536C350 70.8987 350.693 71.08 351.568 71.08C352.4 71.08 353.146 70.888 353.808 70.504C354.469 70.0987 354.949 69.512 355.248 68.744L356.016 71.048C355.653 72.1573 354.992 73 354.032 73.576C353.072 74.152 351.834 74.44 350.32 74.44ZM372.275 74.44C370.653 74.44 369.192 74.0773 367.891 73.352C366.589 72.6053 365.555 71.5707 364.787 70.248C364.04 68.9253 363.667 67.368 363.667 65.576C363.667 63.7627 364.04 62.1947 364.787 60.872C365.555 59.5493 366.589 58.5253 367.891 57.8C369.192 57.0747 370.653 56.712 372.275 56.712C373.725 56.712 374.995 57.032 376.083 57.672C377.171 58.312 378.013 59.2827 378.611 60.584C379.208 61.8853 379.507 63.5493 379.507 65.576C379.507 67.5813 379.219 69.2453 378.643 70.568C378.067 71.8693 377.235 72.84 376.147 73.48C375.08 74.12 373.789 74.44 372.275 74.44ZM373.139 70.344C373.949 70.344 374.685 70.152 375.347 69.768C376.008 69.384 376.531 68.84 376.915 68.136C377.32 67.4107 377.523 66.5573 377.523 65.576C377.523 64.5733 377.32 63.72 376.915 63.016C376.531 62.312 376.008 61.768 375.347 61.384C374.685 61 373.949 60.808 373.139 60.808C372.307 60.808 371.56 61 370.899 61.384C370.237 61.768 369.704 62.312 369.299 63.016C368.915 63.72 368.723 64.5733 368.723 65.576C368.723 66.5573 368.915 67.4107 369.299 68.136C369.704 68.84 370.237 69.384 370.899 69.768C371.56 70.152 372.307 70.344 373.139 70.344ZM377.651 74.184V70.664L377.747 65.544L377.427 60.456V50.44H382.419V74.184H377.651ZM397.599 74.184V70.824L397.279 70.088V64.072C397.279 63.0053 396.948 62.1733 396.287 61.576C395.647 60.9787 394.655 60.68 393.311 60.68C392.393 60.68 391.487 60.8293 390.591 61.128C389.716 61.4053 388.969 61.7893 388.351 62.28L386.559 58.792C387.497 58.1307 388.628 57.6187 389.951 57.256C391.273 56.8933 392.617 56.712 393.983 56.712C396.607 56.712 398.644 57.3307 400.095 58.568C401.545 59.8053 402.271 61.736 402.271 64.36V74.184H397.599ZM392.351 74.44C391.007 74.44 389.855 74.216 388.895 73.768C387.935 73.2987 387.199 72.6693 386.687 71.88C386.175 71.0907 385.919 70.2053 385.919 69.224C385.919 68.2 386.164 67.304 386.655 66.536C387.167 65.768 387.967 65.1707 389.055 64.744C390.143 64.296 391.561 64.072 393.311 64.072H397.887V66.984H393.855C392.681 66.984 391.871 67.176 391.423 67.56C390.996 67.944 390.783 68.424 390.783 69C390.783 69.64 391.028 70.152 391.519 70.536C392.031 70.8987 392.724 71.08 393.599 71.08C394.431 71.08 395.177 70.888 395.839 70.504C396.5 70.0987 396.98 69.512 397.279 68.744L398.047 71.048C397.684 72.1573 397.023 73 396.063 73.576C395.103 74.152 393.865 74.44 392.351 74.44Z" fill="#353866"/>
</g>
<defs>
<clipPath id="clip0_105_1185">
<rect width="613" height="587" fill="white"/>
</clipPath>
</defs>
</svg>
