<svg width="613" height="587" viewBox="0 0 613 587" fill="none" xmlns="http://www.w3.org/2000/svg">
<g clip-path="url(#clip0_105_683)">
<path d="M92.1626 540.467C-26.7859 478.529 -26.7874 378.108 92.1605 316.169C211.108 254.232 403.961 254.232 522.911 316.169C641.86 378.108 641.86 478.529 522.912 540.467C403.965 602.406 211.111 602.406 92.1626 540.467Z" fill="#131318" fill-opacity="0.2"/>
<path d="M560.12 368.967C591.847 387.284 591.847 416.983 560.12 435.3C528.393 453.617 476.955 453.617 445.228 435.3C413.503 416.983 413.503 387.284 445.229 368.968C476.956 350.649 528.395 350.649 560.12 368.967Z" fill="#3D3B4C" fill-opacity="0.6"/>
<path d="M175.484 374.293C206.568 392.24 207.831 421.868 176.745 439.815C145.661 457.761 94.0022 457.229 62.9183 439.284C31.8339 421.337 31.8344 392.24 62.9183 374.293C94.0027 356.347 144.401 356.347 175.484 374.293Z" fill="#3D3B4C" fill-opacity="0.6"/>
<path d="M429.021 471L326.993 412.095C323.807 410.253 318.636 410.253 315.448 412.095L213.423 471C210.235 472.84 210.235 475.825 213.423 477.667L259.892 504.495L216.492 529.539C207.676 534.628 193.331 534.624 184.515 529.535L116.251 490.122C112.484 487.947 110.41 485.217 110.41 482.434C110.41 479.648 112.484 476.916 116.251 474.741L176.745 439.815C178.021 439.077 178.457 437.447 177.723 436.171C176.984 434.896 175.353 434.457 174.079 435.195L113.584 470.122C108.097 473.289 105.077 477.663 105.077 482.434C105.077 487.203 108.098 491.573 113.584 494.741L181.848 534.155C187.08 537.175 193.793 538.684 200.508 538.684C207.219 538.684 213.929 537.175 219.159 534.159L265.227 507.575L315.448 536.571C318.636 538.412 323.807 538.412 326.993 536.571L429.021 477.667C432.208 475.825 432.208 472.84 429.021 471Z" fill="#3D3B4C"/>
<path d="M545.612 380.104C545.612 380.104 549.315 325.2 548.224 304.951C547.36 288.907 545.18 282.295 544.725 278.676C544.725 278.676 540.797 241.273 540.472 209.488C540.316 194.191 538.899 183.301 530.519 165.113L476.605 178.011C475.511 186.089 471.807 239.823 470.932 287.599C470.165 329.423 471.359 366.043 471.359 366.043L471.413 368.244C471.413 370.688 470.876 372.396 469.305 376.319C467.712 380.292 464.807 385.979 460.955 390.133C459.845 391.331 452.157 398.057 451.143 399.491C447.84 403.343 454.683 405.513 459.763 404.835C465.124 404.12 473.451 402.084 475.812 398.819C477.385 396.644 478.567 389.025 480.184 386.82C485.639 379.385 487.877 376.188 487.917 373.811C487.989 369.519 486.513 367.82 485.987 365.396C486.427 360.332 497.363 318.657 497.551 303.905C497.643 296.875 497.167 287.193 497.167 287.193L505.653 238.501C508.931 250.659 514.692 280.857 516.629 292.444C518.999 306.597 525.172 342.941 528.82 364.625C530.227 372.989 530.881 377.211 531.523 381.087L531.681 382.748C531.796 384.844 533.327 407.387 534.155 412.105C535.888 421.963 544.651 420.723 546.053 412.749C547.247 405.965 545.753 384.96 545.72 382.384L545.612 380.104Z" fill="#F6879F"/>
<path d="M545.612 380.104C548.084 380.145 546.459 389.715 547.096 395.869C547.78 402.468 549.942 407.287 550.561 412.697C551.269 418.879 550.718 421.468 548.501 426.551C546.777 430.501 538.116 435.919 534.828 430.267C531.5 424.547 530.826 418.159 531.205 412.003C531.596 405.641 531.205 401.703 531.333 396.864C531.448 392.6 528.32 381.699 531.522 381.087L531.681 382.748C532.83 385.047 544.54 385.505 545.72 382.384L545.612 380.104Z" fill="#4D4181"/>
<path d="M488.439 379.005C489.196 382.089 488.412 390.543 488.412 390.543C488.412 390.543 487.077 393.459 482.319 395.4L480.184 383.641L488.439 379.005Z" fill="#353866"/>
<path d="M482.319 395.4L471.831 391.957L469.305 382.649L481.088 388.613L482.319 395.4Z" fill="#040606"/>
<path d="M471.413 368.244L471.359 366.043C469.935 366.735 466.799 378.207 462.56 386.076C458.689 393.261 451.019 397.265 448.529 400.392C445.197 404.575 451.672 409.967 462.065 407.744C467.224 406.64 475.036 403.34 477.152 399.86C479.271 396.379 479.987 389.984 481.719 387.425C483.451 384.867 487.565 381.919 488.439 379.005C488.919 377.405 489.303 373.853 488.417 370.964C487.603 368.313 486.892 365.107 485.987 365.396L485.927 367.412C485.231 368.831 482.72 370.481 477.472 370.765C474.976 370.9 472.556 370.519 471.413 368.244Z" fill="#4D4181"/>
<path d="M475.575 177.359C475.575 177.359 472.011 216.913 470.864 251.948C469.715 286.984 470.743 332.175 470.743 332.175C470.743 332.175 474.359 334.761 482.319 335.119C490.279 335.476 493.033 332.823 493.033 332.823C493.033 332.823 497.896 316.947 498.657 305.775C499.42 294.601 498.657 287.6 498.657 287.6L505.765 240.856C505.765 240.856 514.779 286.879 515.803 292.444C516.824 298.008 525.464 347.177 525.464 347.177C525.464 347.177 528.855 350.308 537.547 350.143C545.229 349.997 547.464 347.24 547.464 347.24C547.464 347.24 549.316 317.081 548.893 304.196C548.523 292.841 545.929 283.795 545.411 276.431C544.892 269.067 544.589 227.113 544.071 211.141C543.552 195.171 542.117 181.292 528.471 162.071L475.575 177.359Z" fill="#353866"/>
<path d="M505.765 240.856L499.855 211.575C499.855 211.575 489.537 208.883 484.729 202.583C484.729 202.583 486.067 209.567 496.671 214.032L502.964 243.205L500.824 273.347L505.765 240.856Z" fill="#4D4181"/>
<path d="M400.252 170.029C405.688 171.131 411.596 169.189 411.596 169.189C409.567 168.045 407.989 167.105 407.103 166.211C405.339 164.435 405.952 162.588 406.573 161.915C407.056 161.391 408.283 162.625 411.059 163.412C414.604 164.417 417.176 164.623 420.596 166.596C421.871 167.332 423.387 167.625 424.863 167.348C433.188 165.779 452.588 156.693 461.471 151.929C463.295 144.537 466.432 133.649 470.319 120.083C473.903 107.575 479.664 102.101 488.817 102.311L487.551 129.464C487.551 129.464 483.184 148.225 477.771 163.541C476.817 166.239 473.023 169.323 466.065 171.908C457.052 175.255 446.171 178.407 432.877 182.045C427.908 183.405 421.339 184.835 416.369 185.259C402.316 186.459 396.931 182.551 395.012 179.828C389.652 172.224 392.883 168.537 400.252 170.029Z" fill="#F6879F"/>
<path d="M512.464 102.101L525.289 103.096C521.799 121.797 534.937 131.807 534.937 131.807L529.219 154.857C529.408 157.701 534.132 167.301 538.707 177.631C530.105 189.147 487.917 193.079 474.157 182.973C476.281 172.117 477.867 163.872 478.287 159.757L477.591 144.865C460.347 130.713 481.159 109.163 488.817 102.311L498.449 101.881L512.464 102.101Z" fill="#50549A"/>
<path d="M566.475 216.887C564.597 215.587 563.513 212.86 563.733 210.708C563.955 208.556 564.452 205.861 565.335 204.82C566.217 203.78 571.832 196.172 574.315 200.6C577.024 205.431 576.437 207.38 576.437 207.38L566.475 216.887Z" fill="#F47089"/>
<path d="M549.201 318.641C543.92 318.641 538.133 316.913 532.199 313.487L465.627 275.052C455.343 269.112 446.973 254.619 446.973 242.741L446.972 186.892C446.972 183.049 444.985 179.608 441.657 177.687C438.331 175.765 434.355 175.765 431.027 177.685L407.644 191.185C406.367 191.923 404.737 191.484 404 190.209C403.264 188.933 403.701 187.303 404.977 186.567L428.36 173.067C433.356 170.18 439.325 170.181 444.324 173.068C449.32 175.953 452.305 181.121 452.305 186.892L452.307 242.741C452.307 252.748 459.628 265.429 468.293 270.432L534.865 308.867C543.383 313.785 551.283 314.643 557.1 311.284C562.921 307.924 566.127 300.656 566.127 290.819V219.517C566.127 207.44 573.848 193.52 583.708 187.828L599.955 178.447C601.228 177.707 602.86 178.147 603.597 179.423C604.333 180.697 603.899 182.329 602.621 183.065L586.375 192.445C578.289 197.113 571.46 209.511 571.46 219.517V290.819C571.46 302.641 567.307 311.551 559.767 315.903C556.599 317.732 553.032 318.641 549.201 318.641Z" fill="#4D4181"/>
<path d="M434.129 195.039V199.399C434.129 206.376 429.231 214.861 423.188 218.351L382.805 241.664L341.755 217.959L341.745 182.409L381.604 163.999C387.939 161.073 397.973 161.529 404.016 165.017L423.188 176.087C429.231 179.576 434.129 188.06 434.129 195.039Z" fill="#4D4181"/>
<path d="M381.604 163.999C387.939 161.073 397.973 161.529 404.016 165.017L423.188 176.087C429.231 179.576 428.993 184.776 422.659 187.701L382.811 206.108L341.745 182.409L381.604 163.999Z" fill="#353866"/>
<path d="M387.945 238.697L392.155 236.267L387.945 238.697ZM347.463 179.768L352.14 177.608L347.463 179.768Z" fill="#D2D4D1"/>
<path d="M387.945 238.697V209.459C387.945 207.823 387.408 206.023 386.525 204.392L390.939 202.353C391.7 203.877 392.155 205.523 392.155 207.028V236.267L387.945 238.697Z" fill="#2E274D"/>
<path d="M386.525 204.392C385.525 202.543 384.081 200.911 382.476 199.983L347.463 179.768L352.14 177.608L386.684 197.553C388.403 198.545 389.935 200.344 390.939 202.353L386.525 204.392Z" fill="#2E274D"/>
<path d="M338.257 176.289C339.239 175.723 340.595 175.803 342.097 176.671L382.476 199.983C385.497 201.728 387.945 205.969 387.945 209.459V244.232C387.945 245.979 387.329 247.197 386.336 247.76C385.413 248.283 382.115 250.187 381.201 250.724C380.216 251.305 378.853 251.229 377.339 250.356L336.961 227.044C333.94 225.3 331.491 221.057 331.491 217.568V182.795C331.491 181.057 332.096 179.827 333.081 179.259C334.005 178.725 337.331 176.823 338.257 176.289Z" fill="#4D4181"/>
<path d="M377.339 202.948L336.961 179.636C333.939 177.892 331.491 179.307 331.491 182.795V217.568C331.491 221.057 333.939 225.3 336.961 227.044L377.339 250.356C380.36 252.1 382.811 250.687 382.811 247.197V212.424C382.811 208.936 380.361 204.692 377.339 202.948Z" fill="#353866"/>
<path d="M344.624 235.935C344.736 236.356 344.812 236.836 344.812 237.363C344.812 240.636 342.513 244.615 339.68 246.252C339.223 246.515 338.788 246.675 338.368 246.788C338.256 246.367 338.177 245.912 338.177 245.387C338.177 242.113 340.476 238.133 343.311 236.497C343.765 236.233 344.203 236.049 344.624 235.935ZM329.515 243.42L329.516 249.437C329.516 251.876 330.361 253.576 331.739 254.368C332.352 254.721 334.759 256.111 335.373 256.471C336.765 257.281 338.689 257.18 340.807 255.957L374.204 236.676L374.2 212.972L370.569 210.873L337.172 230.155C332.943 232.597 329.515 238.536 329.515 243.42Z" fill="#50549A"/>
<path d="M335.388 256.479L335.383 256.476L335.36 256.463C335.364 256.465 335.369 256.468 335.373 256.471C335.379 256.473 335.383 256.476 335.388 256.479ZM331.024 253.831C330.228 253.081 329.715 251.924 329.564 250.411C329.719 251.915 330.237 253.072 331.024 253.831ZM330.023 239.955C330.161 239.457 330.325 238.96 330.516 238.468C330.327 238.961 330.161 239.457 330.023 239.955Z" fill="#50549A"/>
<path d="M335.411 256.489L335.388 256.479C335.383 256.476 335.379 256.473 335.373 256.471C335.369 256.468 335.364 256.465 335.36 256.463L335.251 256.396C334.449 255.929 332.304 254.689 331.744 254.356C331.484 254.212 331.244 254.037 331.024 253.831C330.237 253.072 329.719 251.915 329.564 250.411C329.533 250.1 329.517 249.776 329.517 249.436V243.423C329.517 242.301 329.695 241.128 330.023 239.955C330.161 239.457 330.327 238.961 330.516 238.468C330.517 238.464 330.519 238.459 330.521 238.453C330.863 237.568 331.283 236.697 331.769 235.863L335.397 237.956C334.011 240.383 333.156 243.063 333.156 245.516V251.529C333.156 253.436 333.677 254.889 334.556 255.823C334.736 256.025 334.953 256.187 335.176 256.335L335.411 256.489Z" fill="#50549A"/>
<path d="M335.397 237.956L331.769 235.863C333.156 233.463 335.064 231.383 337.171 230.156L370.571 210.876L374.184 212.969L340.811 232.249C338.691 233.476 336.783 235.556 335.397 237.956Z" fill="#50549A"/>
<path d="M335.556 256.583L335.464 256.529L335.523 256.553C335.527 256.555 335.529 256.556 335.532 256.557L335.556 256.583Z" fill="white"/>
<path d="M335.532 256.557C335.529 256.556 335.527 256.555 335.523 256.553L335.531 256.556L335.532 256.557Z" fill="#6368C0"/>
<path d="M335.523 256.553L335.464 256.529L335.423 256.499C335.456 256.517 335.489 256.536 335.523 256.553Z" fill="#C3C5C2"/>
<path d="M335.531 256.556L335.523 256.553C335.489 256.536 335.456 256.517 335.423 256.499L335.411 256.489L335.531 256.556Z" fill="#6368C0"/>
<path d="M338.368 246.788C338.367 246.785 338.365 246.781 338.365 246.779C338.491 246.748 338.617 246.715 338.743 246.675C338.616 246.717 338.492 246.755 338.368 246.788ZM339.495 246.353C339.555 246.32 339.613 246.287 339.673 246.249C342.503 244.607 344.804 240.64 344.804 237.355C344.804 236.824 344.725 236.339 344.624 235.935C344.736 236.356 344.812 236.836 344.812 237.363C344.812 240.636 342.513 244.615 339.68 246.252C339.617 246.287 339.556 246.321 339.495 246.353Z" fill="#C3C5C2"/>
<path d="M341.025 249.053C339.716 249.053 338.724 248.236 338.36 246.78C338.361 246.779 338.363 246.779 338.365 246.779C338.365 246.781 338.367 246.785 338.368 246.788C338.492 246.755 338.616 246.717 338.743 246.675C338.989 246.596 339.239 246.493 339.495 246.353C339.556 246.321 339.617 246.287 339.68 246.252C342.513 244.615 344.812 240.636 344.812 237.363C344.812 236.836 344.736 236.356 344.624 235.935C344.968 235.839 345.299 235.792 345.612 235.792C347.288 235.792 348.441 237.137 348.441 239.452C348.441 242.737 346.143 246.704 343.312 248.347C342.492 248.825 341.715 249.053 341.025 249.053Z" fill="#6368C0"/>
<path d="M313.835 218.156C313.945 218.577 314.023 219.059 314.023 219.584C314.023 222.857 311.724 226.836 308.891 228.472C308.433 228.736 308 228.896 307.577 229.009C307.467 228.589 307.389 228.133 307.389 227.608C307.389 224.335 309.685 220.356 312.521 218.719C312.977 218.455 313.413 218.271 313.835 218.156ZM298.725 225.643L298.727 231.659C298.728 234.097 299.572 235.797 300.949 236.589C301.563 236.943 303.968 238.332 304.585 238.692C305.976 239.503 307.9 239.401 310.017 238.179L343.415 218.897L343.411 195.193L339.779 193.095L306.384 212.376C302.153 214.819 298.725 220.757 298.725 225.643Z" fill="#50549A"/>
<path d="M304.744 238.783L304.677 238.756L304.584 238.703C304.317 238.544 303.732 238.201 303.1 237.832C303.656 238.153 304.175 238.453 304.472 238.627C304.56 238.683 304.651 238.735 304.744 238.783ZM300.047 235.857C299.529 235.289 299.151 234.532 298.935 233.6C299.152 234.529 299.533 235.288 300.047 235.857ZM300.683 218.607C300.776 218.433 300.872 218.26 300.971 218.089C300.872 218.26 300.776 218.433 300.683 218.607Z" fill="#CDC7FF"/>
<path d="M304.472 238.627C304.175 238.453 303.656 238.153 303.1 237.832C302.244 237.331 301.303 236.783 300.956 236.583C300.619 236.393 300.315 236.151 300.047 235.857C299.533 235.288 299.152 234.529 298.935 233.6C298.8 233.016 298.731 232.365 298.731 231.649V225.636C298.731 224.409 298.944 223.129 299.331 221.849C299.663 220.752 300.121 219.653 300.683 218.607C300.776 218.433 300.872 218.26 300.971 218.089L300.983 218.103L304.611 220.183L304.596 220.196C304.251 220.796 303.944 221.409 303.676 222.036C302.851 223.929 302.371 225.903 302.371 227.743V233.756C302.371 235.649 302.891 237.116 303.769 238.049C303.979 238.268 304.216 238.464 304.472 238.627Z" fill="#6368C0"/>
<path d="M305.005 213.316C305.452 212.961 305.913 212.644 306.384 212.369L331.491 197.876V197.88L306.384 212.376C305.913 212.648 305.452 212.963 305.005 213.316Z" fill="white"/>
<path d="M331.491 197.88V197.876L339.783 193.089L341.32 193.985L339.779 193.095L331.491 197.88Z" fill="#91A7AA"/>
<path d="M304.611 220.183L300.983 218.103C302.06 216.229 303.451 214.548 305.005 213.316C305.452 212.963 305.913 212.648 306.384 212.376L331.491 197.88L339.779 193.095L341.32 193.985L343.397 195.196L310.024 214.476C307.891 215.703 305.997 217.783 304.611 220.183Z" fill="#6368C0"/>
<path d="M304.769 238.809L304.677 238.756L304.744 238.783L304.769 238.809Z" fill="white"/>
<path d="M307.577 229.009C307.577 229.007 307.576 229.003 307.575 229C307.704 228.969 307.833 228.935 307.963 228.892C307.833 228.937 307.705 228.976 307.577 229.009ZM308.715 228.569C308.771 228.539 308.828 228.505 308.884 228.471C311.713 226.828 314.013 222.861 314.013 219.576C314.013 219.045 313.936 218.56 313.835 218.156C313.945 218.577 314.023 219.059 314.023 219.584C314.023 222.857 311.724 226.836 308.891 228.472C308.832 228.507 308.773 228.539 308.715 228.569Z" fill="#CDC7FF"/>
<path d="M310.236 231.275C308.927 231.275 307.935 230.457 307.571 229C307.572 229 307.573 229 307.575 229C307.576 229.003 307.577 229.007 307.577 229.009C307.705 228.976 307.833 228.937 307.963 228.892C308.209 228.813 308.459 228.711 308.715 228.569C308.773 228.539 308.832 228.507 308.891 228.472C311.724 226.836 314.023 222.857 314.023 219.584C314.023 219.059 313.945 218.577 313.835 218.156C314.18 218.06 314.511 218.013 314.823 218.013C316.499 218.013 317.653 219.359 317.653 221.673C317.653 224.959 315.353 228.925 312.523 230.568C311.703 231.047 310.925 231.275 310.236 231.275Z" fill="#6368C0"/>
<path d="M310.759 200.885L305.388 179.977C305.113 178.907 304.024 178.263 302.953 178.537C301.884 178.812 301.24 179.903 301.515 180.972L306.885 201.881C307.16 202.951 308.249 203.596 309.32 203.32C310.389 203.045 311.033 201.956 310.759 200.885Z" fill="#CDC7FF"/>
<path d="M295.067 208.537L275.203 192.845C274.336 192.16 273.077 192.308 272.393 193.175C271.708 194.041 271.856 195.299 272.723 195.984L292.587 211.676C293.453 212.36 294.711 212.212 295.396 211.345C296.08 210.479 295.933 209.221 295.067 208.537Z" fill="#CDC7FF"/>
<path d="M289.523 225.46L266.311 227.26C265.209 227.345 264.385 228.307 264.471 229.408C264.556 230.509 265.519 231.333 266.62 231.248L289.832 229.448C290.932 229.363 291.756 228.4 291.671 227.299C291.585 226.197 290.623 225.375 289.523 225.46Z" fill="#CDC7FF"/>
<path d="M584.623 195.129C584.1 191.121 583.664 185.431 582.436 180.457C579.336 167.891 572.581 151.628 570.357 147.369C568.132 143.112 563.102 136.916 559.54 131.679C554.501 124.275 550.961 120.124 547.128 115.103C538.707 104.072 535.12 103.444 525.289 103.096C523.961 106.601 520.917 120.975 530.763 132.591L551.889 154.857C553.088 156.791 565.993 178.851 568.142 187.001C568.522 188.445 568.317 189.979 567.641 191.311C565.827 194.884 564.752 199.368 563.942 202.983C563.31 205.812 561.637 208.051 562.206 208.485C562.938 209.045 564.749 209.736 566.884 208.112C567.912 207.331 569.479 204.743 570.528 202.628C572.301 202.635 573.443 203.664 573.577 205.539C573.696 207.18 572.951 209.468 572.388 212.311C572.279 212.86 572.144 213.5 571.883 215.048C571.708 215.889 571.539 217.012 571.519 218.225C574.208 218.724 576.963 217.088 581.444 212.841C585.493 209.004 585.761 203.848 584.623 195.129Z" fill="#F6879F"/>
<path d="M514.759 95.6253C514.828 92.9959 523.504 86.7119 527.889 80.0746C531.953 73.9253 537.636 56.9879 524.173 51.5733C524.173 51.5733 527.069 43.4466 521.799 38.6652C516.528 33.8852 509.409 36.8319 508.288 38.8399C508.288 38.8399 506.325 30.428 497.013 29.98C487.701 29.5306 485.972 38.2173 485.972 38.2173C485.972 38.2173 478.616 34.8453 473.681 41.6559C468.747 48.4666 475.3 54.7106 475.3 54.7106C475.3 54.7106 472.339 56.5786 472.792 59.9133C473.184 62.7973 475.939 63.5079 476.265 64.9413C476.593 66.3746 474.779 67.2186 473.845 66.1959C473.845 66.1959 474.149 68.6679 477.26 68.4999C480.372 68.3306 483.137 64.1079 483.137 64.1079L514.759 95.6253Z" fill="#353866"/>
<path d="M486.484 50.7213C482.501 52.448 478.715 58.54 478.772 75.5827C478.82 90.028 483.249 93.6813 485.487 94.7533C487.725 95.8253 492.092 95.284 496.337 94.6307L496.321 102.935C496.321 102.935 488.641 112.475 495.528 117.22C513.284 114.113 514.653 102.463 514.653 102.463L514.968 84.356C514.968 84.356 517.411 86.9227 521.707 83.16C525.255 80.0533 526.531 74.7253 523.867 71.8013C521.204 68.8773 517.78 68.64 514.692 71.9093C514.692 71.9093 509.024 72.272 500.508 66.9253C491.789 61.4493 488.817 56.1627 486.484 50.7213Z" fill="#F6879F"/>
<path d="M496.721 84.6281C496.764 85.8081 495.877 86.7961 494.741 86.8347C493.605 86.8721 492.651 85.9467 492.607 84.7667C492.564 83.5854 493.451 82.5974 494.587 82.5601C495.721 82.5227 496.679 83.4467 496.721 84.6281Z" fill="#C35363"/>
<path d="M485.736 70.6747C485.776 71.7747 484.951 72.6961 483.892 72.7307C482.833 72.7667 481.943 71.904 481.904 70.8026C481.864 69.704 482.689 68.784 483.748 68.748C484.807 68.7134 485.696 69.576 485.736 70.6747Z" fill="#353866"/>
<path d="M500.505 71.5321C500.549 72.7121 499.663 73.7 498.527 73.7387C497.391 73.7774 496.435 72.8507 496.392 71.6707C496.349 70.4894 497.236 69.5014 498.372 69.4641C499.507 69.4254 500.464 70.3521 500.505 71.5321Z" fill="#353866"/>
<path d="M484.407 63.016L480.341 65.3933C480.928 66.592 482.419 66.92 483.541 66.2626C484.663 65.6053 484.992 64.212 484.407 63.016Z" fill="#353866"/>
<path d="M514.661 69.5533L514.613 77.5786C512.467 77.6506 510.737 75.912 510.752 73.696C510.765 71.4813 512.517 69.6266 514.661 69.5533Z" fill="#353866"/>
<path d="M490.997 68.748L490.176 80.2613L484.105 78.8386L490.997 68.748Z" fill="#F47089"/>
<path d="M496.337 94.6307C500.811 94.108 510.039 91.54 511.54 87.7906C511.54 87.7906 511.019 90.1546 508.232 92.548C505.443 94.9413 496.332 97.4253 496.332 97.4253L496.337 94.6307Z" fill="#F47089"/>
<path d="M540.54 37.4226C540.939 37.572 541.231 37.8493 541.411 38.2506C541.595 38.6506 541.608 39.0507 541.457 39.452L539.647 44.2613C539.495 44.6626 539.219 44.9546 538.817 45.1346C538.417 45.3173 538.017 45.332 537.616 45.1813L532.917 43.4133C532.516 43.26 532.224 42.9853 532.043 42.584C531.86 42.1826 531.844 41.7826 531.996 41.3813L533.808 36.572C533.959 36.1706 534.233 35.88 534.636 35.6973C535.037 35.5173 535.436 35.5013 535.839 35.652L540.54 37.4226ZM550.04 5.55867C551.753 6.20267 553.331 7.06803 554.773 8.15203C556.215 9.23603 557.392 10.48 558.299 11.8813C559.207 13.284 559.785 14.8119 560.036 16.4679C560.285 18.1213 560.075 19.8413 559.403 21.6266C558.855 23.0839 558.149 24.2639 557.289 25.1679C556.429 26.0706 555.483 26.816 554.451 27.4053C553.419 27.9933 552.347 28.4853 551.243 28.88C550.137 29.2746 549.089 29.6506 548.104 30.0053C547.116 30.3626 546.209 30.7813 545.385 31.2599C544.559 31.7399 543.941 32.36 543.531 33.12C543.307 33.4933 543.012 33.7773 542.649 33.972C542.283 34.1693 541.9 34.1906 541.5 34.0399L537.347 32.4746C536.945 32.3253 536.645 32.0466 536.445 31.6373C536.247 31.2293 536.239 30.8333 536.428 30.4453C537.035 29.0519 537.804 27.9173 538.737 27.0413C539.671 26.1653 540.671 25.4399 541.741 24.8653C542.811 24.2893 543.904 23.8186 545.02 23.448C546.137 23.0786 547.179 22.712 548.149 22.348C549.116 21.9853 549.959 21.5733 550.671 21.1146C551.385 20.6573 551.887 20.044 552.175 19.2773C552.696 17.8946 552.541 16.5359 551.712 15.2039C550.881 13.8733 549.501 12.844 547.571 12.116C544.475 10.9493 541.613 11.6413 538.991 14.1893C538.657 14.5226 538.353 14.7506 538.08 14.8746C537.803 15.0013 537.428 14.9733 536.953 14.7946L532.528 13.128C532.201 13.004 531.957 12.788 531.804 12.4813C531.651 12.1733 531.641 11.8373 531.777 11.472C532.293 10.212 533.177 9.05602 534.425 8.00802C535.671 6.96001 537.127 6.13601 538.788 5.53334C540.449 4.93334 542.259 4.60266 544.212 4.55066C546.168 4.49599 548.109 4.832 550.04 5.55867Z" fill="#50549A"/>
<path d="M572.293 38.8493C573.541 40.036 574.594 41.3666 575.448 42.8359C576.302 44.3079 576.869 45.8186 577.14 47.3679C577.412 48.9199 577.353 50.4573 576.964 51.9853C576.574 53.5146 575.76 54.9306 574.521 56.2333C573.509 57.2973 572.465 58.0626 571.388 58.5306C570.309 58.9999 569.213 59.2999 568.101 59.4319C566.986 59.5639 565.878 59.5973 564.774 59.5359C563.669 59.4719 562.622 59.4146 561.636 59.3599C560.649 59.3079 559.706 59.3386 558.816 59.4519C557.924 59.5653 557.158 59.8773 556.524 60.3866C556.192 60.6279 555.832 60.7666 555.444 60.8026C555.054 60.8386 554.714 60.7172 554.424 60.4386L551.39 57.5559C551.098 57.2773 550.94 56.9253 550.917 56.4986C550.892 56.0706 551.032 55.7239 551.337 55.4559C552.377 54.4693 553.462 53.7666 554.594 53.3493C555.725 52.9319 556.861 52.6693 558 52.5613C559.138 52.4546 560.26 52.4466 561.368 52.5359C562.472 52.6239 563.512 52.6879 564.486 52.7293C565.46 52.7693 566.34 52.7213 567.13 52.5839C567.917 52.4466 568.578 52.0999 569.108 51.5412C570.069 50.5319 570.432 49.2973 570.202 47.8346C569.97 46.3759 569.149 44.9746 567.742 43.6346C565.481 41.4866 562.743 41.0359 559.532 42.2839C559.119 42.4506 558.77 42.5386 558.486 42.5453C558.201 42.5519 557.886 42.3919 557.54 42.0639L554.31 38.9906C554.07 38.7639 553.94 38.4879 553.92 38.1652C553.898 37.8399 554.015 37.5466 554.265 37.28C555.177 36.3733 556.366 35.6946 557.834 35.2426C559.304 34.7906 560.869 34.6079 562.533 34.6959C564.194 34.7839 565.885 35.1626 567.601 35.8333C569.32 36.5026 570.881 37.5093 572.293 38.8493ZM552.346 63.0213C552.638 63.2999 552.79 63.6466 552.801 64.0613C552.812 64.4773 552.677 64.8293 552.4 65.1226L549.063 68.6319C548.784 68.9253 548.437 69.0773 548.022 69.0866C547.606 69.0973 547.254 68.9626 546.961 68.6853L543.532 65.4253C543.238 65.1453 543.088 64.8013 543.077 64.3853C543.065 63.9693 543.2 63.6173 543.48 63.3239L546.816 59.8133C547.093 59.5213 547.438 59.3693 547.856 59.3586C548.269 59.3493 548.622 59.4813 548.917 59.7599L552.346 63.0213Z" fill="#50549A"/>
<path d="M547.975 69.0866C547.58 69.0866 547.243 68.9533 546.961 68.6853L543.532 65.4253C543.239 65.1453 543.088 64.8013 543.077 64.3853C543.076 64.3693 543.076 64.3533 543.076 64.3373C543.076 63.9413 543.211 63.6053 543.48 63.324L546.816 59.8133C547.093 59.5213 547.439 59.3693 547.856 59.3586C547.869 59.3586 547.884 59.3586 547.897 59.3586C548.293 59.3586 548.632 59.492 548.917 59.76L552.347 63.0213C552.639 63.3 552.791 63.6466 552.801 64.0613C552.801 64.0773 552.801 64.0933 552.801 64.1093C552.801 64.504 552.667 64.8413 552.4 65.1226L549.063 68.632C548.784 68.9253 548.437 69.0773 548.023 69.0866C548.007 69.0866 547.991 69.0866 547.975 69.0866Z" fill="#6368C0"/>
<path d="M555.312 60.808C554.977 60.808 554.681 60.684 554.424 60.4387L551.391 57.5561C551.099 57.2774 550.94 56.9254 550.917 56.4987C550.915 56.4654 550.915 56.4321 550.915 56.3987C550.915 56.0161 551.056 55.7027 551.337 55.4561C552.377 54.4694 553.463 53.7667 554.595 53.3494C555.725 52.9321 556.861 52.6694 558 52.5614C558.62 52.5041 559.236 52.4747 559.847 52.4747C560.356 52.4747 560.864 52.4947 561.368 52.5361C562.472 52.6241 563.512 52.6881 564.487 52.7294C564.709 52.7387 564.925 52.7427 565.137 52.7427C565.856 52.7427 566.52 52.6907 567.131 52.5841C567.917 52.4467 568.579 52.1 569.108 51.5414C569.881 50.728 570.268 49.7707 570.269 48.6654C570.269 48.3974 570.247 48.1214 570.203 47.8347C569.971 46.3761 569.149 44.9747 567.743 43.6347C566.312 42.2761 564.691 41.5961 562.88 41.5961C561.828 41.5961 560.712 41.8254 559.532 42.2841C559.119 42.4507 558.771 42.5387 558.487 42.5454C558.481 42.5454 558.476 42.5467 558.471 42.5467C558.188 42.5467 557.88 42.3854 557.54 42.0641L554.311 38.9907C554.071 38.764 553.94 38.488 553.92 38.1654C553.917 38.1387 553.917 38.1147 553.917 38.0894C553.917 37.7934 554.035 37.5254 554.265 37.2801C555.177 36.3734 556.367 35.6947 557.835 35.2427C559.064 34.864 560.361 34.6747 561.727 34.6747C561.992 34.6747 562.261 34.6814 562.533 34.696C564.195 34.784 565.885 35.1627 567.601 35.8334C569.32 36.5027 570.881 37.5094 572.293 38.8494C573.541 40.0361 574.595 41.3667 575.448 42.8361C576.303 44.3081 576.869 45.8187 577.14 47.3681C577.252 48.0107 577.308 48.6507 577.308 49.2894C577.307 50.1921 577.192 51.0907 576.964 51.9854C576.575 53.5147 575.76 54.9307 574.521 56.2334C573.509 57.2974 572.465 58.0627 571.388 58.5307C570.309 59.0001 569.213 59.3001 568.101 59.4321C567.344 59.5214 566.589 59.5654 565.837 59.5654C565.483 59.5654 565.129 59.5561 564.775 59.5361C563.669 59.4721 562.623 59.4147 561.636 59.3601C561.324 59.3441 561.016 59.3361 560.713 59.3361C560.059 59.3361 559.425 59.3747 558.816 59.4521C557.924 59.5654 557.159 59.8774 556.524 60.3867C556.192 60.6281 555.832 60.7667 555.444 60.8027C555.399 60.8067 555.355 60.808 555.312 60.808Z" fill="#6368C0"/>
<path d="M77.9199 398.264C82.1475 400.835 87.76 400.947 93.0537 399.079L97.1173 371.124L78.3819 366.34L77.9199 398.264Z" fill="#F6879F"/>
<path d="M108.04 425.065C108.496 425.541 108.215 429.045 107.642 429.847C107.028 430.705 103.855 433.3 97.9473 433.405C92.303 433.505 87.3218 432.476 84.1338 430.203C80.9448 427.929 79.4708 425.531 79.3322 422.311C79.1942 419.091 79.7172 416.02 78.3229 413.471C77.0349 411.119 75.2708 408.8 74.8478 407.539C73.9281 404.797 74.8161 400.645 74.8161 400.645L108.04 425.065Z" fill="#353866"/>
<path d="M94.3474 397.899C94.3787 399.093 94.5157 400.284 94.8427 401.499C95.5246 404.025 96.6376 406.431 97.908 408.729C98.5621 409.913 99.2585 411.079 100.075 412.163C101.667 414.279 103.69 416.055 105.385 418.092C107.082 420.131 108.485 422.567 108.486 425.183C108.489 429.605 103.621 430.847 99.9006 431.304C95.9282 431.793 91.7386 431.357 87.9563 430.059C83.7479 428.615 80.8422 425.137 80.3626 420.836C80.2251 419.601 80.3678 418.352 80.2886 417.113C80.1099 414.284 78.7927 411.637 77.2741 409.212C76.3933 407.804 75.4266 406.424 74.8689 404.871C73.8646 402.079 74.9522 399.056 75.8339 396.377C76.5954 394.061 77.2022 391.272 78.0173 391.537C77.9954 392.012 77.9954 393.048 77.9954 393.048C78.2386 393.573 78.8282 393.949 78.9667 394.555C79.1115 395.185 79.2829 395.811 79.5381 396.407C79.9293 397.316 80.5323 398.161 81.3793 398.672C81.5241 397.011 81.6683 395.348 81.8137 393.687C81.8579 393.172 81.9209 392.615 82.2766 392.24C82.6365 391.86 83.1995 391.772 83.7183 391.703C86.8646 391.292 90.0698 390.881 93.1959 391.431C93.6641 391.512 94.1787 391.649 94.4323 392.052C94.6402 392.383 94.6151 392.803 94.5818 393.191C94.4465 394.793 94.3069 396.347 94.3474 397.899Z" fill="#50549A"/>
<path d="M96.6897 431.5C93.7236 431.5 90.7308 431.011 87.9564 430.059C83.748 428.615 80.8422 425.137 80.3626 420.836C80.3121 420.383 80.299 419.927 80.2996 419.471C80.2996 418.996 80.3141 418.52 80.3141 418.044C80.3141 417.733 80.3085 417.423 80.2886 417.113C80.11 414.284 78.7928 411.637 77.2741 409.212C76.3933 407.804 75.4266 406.424 74.8689 404.871C74.5824 404.075 74.4662 403.259 74.4668 402.439C74.4684 400.383 75.2037 398.292 75.834 396.377C76.5616 394.165 77.1474 391.52 77.9089 391.52C77.9449 391.52 77.9808 391.525 78.0173 391.537C78.0173 391.54 78.0173 391.541 78.0173 391.543C77.9954 392.019 77.9954 393.048 77.9954 393.048C78.2386 393.573 78.8282 393.949 78.9668 394.555C79.1116 395.185 79.2829 395.811 79.5381 396.407C79.9293 397.316 80.5324 398.161 81.3793 398.672C81.5241 397.011 81.6684 395.348 81.8137 393.687C81.858 393.172 81.9209 392.615 82.2766 392.24C82.6365 391.86 83.1996 391.772 83.7184 391.703C85.7766 391.433 87.86 391.165 89.9298 391.165C91.0241 391.165 92.1146 391.24 93.196 391.431C93.6641 391.512 94.1788 391.649 94.4324 392.052C94.5673 392.267 94.6037 392.517 94.6042 392.775C94.6042 392.913 94.5933 393.055 94.5818 393.191C94.4621 394.605 94.3397 395.983 94.3402 397.353C94.3402 397.535 94.3428 397.717 94.3474 397.899C94.3788 399.093 94.5157 400.284 94.8428 401.499C95.5246 404.025 96.6376 406.431 97.908 408.729C98.5621 409.913 99.2585 411.079 100.075 412.163C101.667 414.279 103.69 416.055 105.385 418.092C107.082 420.131 108.485 422.567 108.486 425.183C108.489 429.605 103.621 430.847 99.9006 431.304C98.8422 431.435 97.7673 431.5 96.6897 431.5Z" fill="#6368C0"/>
<path d="M98.4523 409.687C96.8762 408.368 93.1971 408.153 91.1737 408.26C88.6393 408.395 86.5507 409.168 85.3461 409.96C84.8122 410.311 84.0975 410.207 83.669 409.736C83.1538 409.171 83.2518 408.291 83.8944 407.869C85.1704 407.032 87.4622 405.88 90.459 405.831C95.4294 405.748 96.8366 406.675 96.8366 406.675C96.8366 406.675 99.0168 408.251 98.4523 409.687Z" fill="#353866"/>
<path d="M101.986 414.408C99.9861 413.077 95.9304 413.035 93.9058 413.141C91.3714 413.277 89.434 414.167 88.2298 414.959C87.696 415.309 86.9808 415.205 86.5528 414.735C86.0376 414.168 86.135 413.288 86.7777 412.867C88.0542 412.029 90.4938 410.696 93.4913 410.647C98.4621 410.564 99.6974 411.645 99.6974 411.645C99.6974 411.645 101.743 412.567 101.986 414.408Z" fill="#353866"/>
<path d="M88.742 400.985C92.1825 400.816 93.6133 401.277 94.9388 401.843C95.7852 402.379 96.2857 403.788 95.7054 404.107C94.6362 403.435 92.6653 403.075 90.2278 403.052C88.5923 403.036 86.5013 403.587 84.794 404.235C84.3596 404.4 83.845 404.637 83.3924 404.856C82.783 405.152 82.0424 404.879 81.7909 404.263C81.5773 403.739 81.7888 403.14 82.2961 402.871C83.532 402.211 85.9622 401.121 88.742 400.985Z" fill="#353866"/>
<path d="M130.527 387.748C133.776 395.897 138.875 393.384 146.629 388.695L147.804 360.883L128.058 359.055L130.527 387.748Z" fill="#F6879F"/>
<path d="M176.425 407.353C176.836 408.344 176.604 410.148 175.995 411.268C175.384 412.387 169.203 415.447 161.14 414.467C153.076 413.484 147.695 409.925 144.719 407.716C141.743 405.508 138.552 404.953 134.556 404.508C130.561 404.063 127.551 402.671 126.773 400.749C125.995 398.828 127.18 395.655 127.18 395.655L176.425 407.353Z" fill="#353866"/>
<path d="M145.011 381.716C145.753 381.584 146.371 381.352 147.161 381.111C147.555 380.989 147.988 380.871 148.365 381.036C148.872 381.259 149.041 381.88 149.151 382.423C149.373 383.532 149.412 384.957 149.844 385.985C150.236 386.92 151.265 387.813 151.987 388.493C153.861 390.259 156.047 391.681 158.239 393.016C160.807 394.58 163.337 395.821 166 397.196C168.717 398.597 172.372 399.561 174.471 401.148C177.532 403.459 177.652 408.859 173.921 410.788C170.701 412.452 162.381 413.996 153.899 411.092C149.279 409.511 144.34 404.217 138.208 403.404C134.307 402.885 129.105 402.276 126.744 399.167C125.883 397.799 126.631 393.975 127.329 389.447C127.954 385.395 128.528 379.055 129.814 379.472L129.921 380.7C129.921 380.7 131.093 382.117 131.474 382.584C131.81 382.993 132.199 383.255 132.569 383.619C133.044 384.085 133.425 384.617 133.949 385.039C134.596 385.557 135.377 385.945 136.207 385.979C136.599 385.996 137.003 385.929 137.344 385.733C138.008 385.353 138.096 384.479 138.635 383.936C139.247 383.317 140.005 382.841 140.812 382.521C141.94 382.075 143.147 381.899 144.349 381.801C144.584 381.781 144.803 381.752 145.011 381.716Z" fill="#50549A"/>
<path d="M163.843 412.719C160.777 412.719 157.352 412.275 153.899 411.092C149.279 409.511 144.34 404.217 138.208 403.404C134.307 402.885 129.105 402.276 126.744 399.167C126.468 398.729 126.357 398.039 126.357 397.153C126.357 395.277 126.854 392.525 127.329 389.447C127.934 385.523 128.492 379.452 129.695 379.452C129.734 379.452 129.774 379.459 129.815 379.472L129.921 380.7C129.921 380.7 131.093 382.117 131.475 382.584C131.81 382.993 132.199 383.255 132.569 383.619C133.044 384.085 133.425 384.617 133.949 385.039C134.596 385.557 135.377 385.945 136.207 385.979C136.244 385.981 136.283 385.981 136.32 385.981C136.676 385.981 137.036 385.911 137.344 385.733C138.008 385.353 138.096 384.479 138.635 383.936C139.247 383.317 140.005 382.841 140.812 382.521C141.94 382.075 143.147 381.899 144.349 381.801C144.584 381.781 144.803 381.752 145.011 381.716C145.753 381.584 146.371 381.352 147.161 381.111C147.416 381.032 147.687 380.955 147.949 380.955C148.092 380.955 148.232 380.977 148.365 381.036C148.872 381.259 149.041 381.88 149.151 382.423C149.373 383.532 149.412 384.957 149.844 385.985C150.236 386.92 151.265 387.813 151.987 388.493C153.861 390.259 156.047 391.681 158.239 393.016C160.807 394.58 163.337 395.821 166 397.196C168.717 398.597 172.372 399.561 174.471 401.148C175.953 402.267 176.747 404.112 176.745 405.935C176.745 407.876 175.845 409.793 173.921 410.788C172.012 411.775 168.308 412.719 163.843 412.719Z" fill="#6368C0"/>
<path d="M154.696 390.689C154.696 390.689 154.213 389.157 151.907 388.599C150.143 388.171 146.925 389.315 144.881 390.821C144.045 391.439 144.081 392.696 144.963 393.247C145.488 393.575 146.153 393.532 146.643 393.151C147.984 392.104 150.969 390.231 154.696 390.689Z" fill="#353866"/>
<path d="M160.052 394.08C160.052 394.08 158.997 392.219 156.72 392.131C156.72 392.131 152.059 392.013 149.035 394.544C148.263 395.189 148.252 396.357 149.105 396.888C149.613 397.203 150.256 397.161 150.724 396.788C152.083 395.699 154.816 393.404 160.052 394.08Z" fill="#353866"/>
<path d="M166 397.196C166 397.196 164.805 395.499 162.527 395.411C162.527 395.411 158.183 395.339 155.159 397.868C154.387 398.513 154.375 399.683 155.229 400.213C155.737 400.528 156.38 400.487 156.845 400.113C158.207 399.024 160.763 396.52 166 397.196Z" fill="#353866"/>
<path d="M77.3891 323.197C77.9902 309.777 80.8469 302.78 81.2521 299.059C81.2521 299.059 82.3479 225.203 84.1421 202.784L150.277 199.973C151.253 223.913 152.133 288.457 151.621 296.985C151.129 305.155 147.804 376.053 147.804 376.053C138.452 378.965 128.514 374.767 128.514 374.767C128.514 374.767 122.966 334.441 122.056 325.548C120.876 314.036 122.68 301.536 122.68 301.536L118.454 244.111C118.454 244.111 113.344 288.633 110.819 305.403C107.926 324.616 95.535 384.169 95.535 384.169C86.6131 386.403 77.9198 382.545 77.9198 382.545C77.9198 382.545 76.5172 342.659 77.3891 323.197Z" fill="#353866"/>
<path d="M118.452 244.112L119.703 236.201C123.556 235.629 133.311 229.535 139.091 224.211C139.091 224.211 133.868 233.063 122.876 239.155L122.68 301.536L118.452 244.112Z" fill="#4D4181"/>
<path d="M145.568 161.065C141.068 150.809 133.343 133.541 133.343 133.541L131.376 105.477C131.376 105.477 135.757 105.592 139.924 106.241C144.092 106.892 150.683 110.868 153.707 118.356C155.952 123.917 167.66 157.843 167.66 157.843L188.064 147.089C193.287 143.765 195.137 138.268 198.473 135.144C201.811 132.02 205.183 131.489 208.829 128.945C212.476 126.4 213.988 124.359 214.916 126.899C215.844 129.439 211.715 133.355 210.968 134.331C210.223 135.307 206.151 137.388 211.281 137.655C216.411 137.921 226.759 132.935 229.236 132.081C231.713 131.227 231.496 134.168 230.209 135.992C228.923 137.816 228.781 143.181 226.619 146.191C224.325 149.384 223.088 150.759 218.172 152.659C213.593 154.429 204.121 154.876 199.235 157.696C194.348 160.516 182.536 171.191 174.663 176.667C164.089 184.023 158.137 184.503 153.997 178.639C149.857 172.775 147.152 164.676 145.568 161.065Z" fill="#F6879F"/>
<path d="M128.623 104.947C135.548 104.415 143.723 104.84 148.253 108.975C151.859 112.267 153.217 114.369 157.245 125.687C159.967 133.327 165.616 150.925 165.616 150.925C165.616 150.925 153.616 153.063 145.549 163.191L132.554 133.977L128.623 104.947Z" fill="#353866"/>
<path d="M167.66 157.843C163.143 159.461 160.123 162.632 159.039 164.46C159.039 164.46 159.525 159.096 167.004 155.945L167.66 157.843Z" fill="#F47089"/>
<path d="M112.024 103.697C112.024 103.697 107.57 103.359 102.28 104.757C96.1861 106.368 85.2646 109.435 85.2646 109.435C81.7985 111.24 80.4438 117.243 79.6599 120.693C77.1506 131.739 83.7173 156.741 84.6673 166.416C85.6178 176.088 83.5407 205.911 83.5407 205.911C90.997 214.543 131.377 220.275 151.044 205.912C151.044 205.912 151.901 137.553 149.963 127.737C147.031 112.896 142.68 105.839 127.332 104.947L112.024 103.697Z" fill="#4D4181"/>
<path d="M120.653 67.0174L116.266 69.4387C115.619 68.1787 116.077 66.6147 117.288 65.9467C118.501 65.2774 120.007 65.7574 120.653 67.0174Z" fill="#353866"/>
<path d="M139.723 68.784L135.721 65.7026C136.537 64.556 138.095 64.3173 139.2 65.168C140.304 66.02 140.539 67.6386 139.723 68.784Z" fill="#353866"/>
<path d="M100.488 53.0587C100.488 53.0587 95.7704 53.7146 94.0408 57.2706C92.5361 60.3626 93.0813 67.8293 95.0856 75.9653C97.0908 84.1013 98.9804 89.0026 100.159 91.2533C101.338 93.5053 103.76 94.1386 103.76 94.1386L103.525 84.484L103.176 77.7573C103.176 77.7573 107.494 71.86 107.969 67.028C108.579 60.808 107.27 58.2627 107.27 58.2627L100.488 53.0587Z" fill="#353866"/>
<path d="M108.106 62.4C108.137 72.356 116.235 80.4013 126.192 80.368C136.148 80.336 143.611 72.1679 143.579 62.2133C143.547 52.2559 136.031 44.2813 126.074 44.3133C116.118 44.3466 108.073 52.444 108.106 62.4Z" fill="#353866"/>
<path d="M103.43 76.684C101.808 78.0906 100.487 74.4493 99.1221 73.0293C97.757 71.6106 93.3086 69.6786 91.1081 74.356C88.8653 79.1213 93.0486 85.8227 96.4705 87.136C100.179 88.5613 102.28 85.3573 102.28 85.3573V106.751C107.41 115.993 116.466 115.709 121.299 115.189C126.133 114.668 127.196 109.639 123.663 105.584L123.624 98.968C123.624 98.968 129.087 99.7786 131.749 99.3586C136.179 98.6586 138.495 95.3173 139.824 90.5146C141.959 82.8026 142.816 69.84 139.851 54.8653C134.888 51.0266 117.682 51.6626 107.27 58.2626C108.032 71.544 105.053 75.2773 103.43 76.684Z" fill="#F6879F"/>
<path d="M140.672 47.3079C141.34 44.5319 141.641 41.6693 141.568 38.816C141.539 37.6867 141.292 36.3293 140.243 35.9106C139.224 35.5053 138.152 36.2533 137.244 36.8679C133.409 39.4573 128.629 40.1866 124.009 40.4399C116.033 40.8786 103.775 40.3573 99.7094 49.1146C98.5818 51.5426 98.3876 54.1013 100.617 55.7799C102.519 57.2133 104.956 57.86 107.27 58.2626C111.311 58.9666 115.319 59.856 119.387 60.396C123.532 60.9453 128.364 61.484 132.437 60.228C135.857 59.172 139.336 58.2653 141.891 55.5413C144.084 53.2039 145.357 50.0266 145.387 46.8226C145.391 46.3666 145.283 45.7933 144.84 45.684C144.617 45.6293 144.387 45.7199 144.176 45.8106C143.008 46.3106 141.84 46.8079 140.672 47.3079Z" fill="#353866"/>
<path d="M123.624 98.968C123.624 98.968 113.723 97.0066 110.259 95.1786C107.94 93.956 106.025 91.8293 105.462 90.464C105.462 90.464 106.119 93.3973 108.196 96.0347C110.736 99.26 123.632 101.6 123.632 101.6L123.624 98.968Z" fill="#F47089"/>
<path d="M121.633 73.5773C121.637 74.8519 120.646 75.8853 119.42 75.8866C118.193 75.8866 117.196 74.8546 117.191 73.5799C117.187 72.3053 118.178 71.2719 119.405 71.2706C120.631 71.2706 121.629 72.3026 121.633 73.5773Z" fill="#353866"/>
<path d="M124.83 88.9733C124.834 90.1719 123.902 91.1439 122.748 91.1439C121.595 91.1439 120.657 90.1733 120.653 88.9746C120.649 87.7773 121.581 86.8053 122.735 86.8053C123.887 86.8053 124.826 87.7746 124.83 88.9733Z" fill="#C35363"/>
<path d="M118.833 66.5707L114.242 69.4628C113.463 68.1414 113.86 66.4214 115.128 65.6228C116.396 64.8241 118.055 65.2481 118.833 66.5707Z" fill="#353866"/>
<path d="M135.024 63.744L139.849 65.8987C139.299 67.264 137.773 67.8893 136.441 67.2933C135.109 66.6987 134.475 65.108 135.024 63.744Z" fill="#353866"/>
<path d="M137.568 72.9053C137.572 74.136 136.615 75.136 135.429 75.136C134.244 75.136 133.28 74.1386 133.275 72.9066C133.272 71.676 134.229 70.6773 135.415 70.676C136.6 70.676 137.565 71.6733 137.568 72.9053Z" fill="#353866"/>
<path d="M126.665 69.1439L127.455 83.9653L134.484 82.1039L126.665 69.1439Z" fill="#F47089"/>
<path d="M2.12926 130.212C4.43446 131.457 13.8339 138.063 18.9375 138.636C21.1001 138.877 21.6865 138.529 21.6001 137.967C21.4829 137.199 20.1203 136.032 19.7875 135.407C19.2105 134.321 15.7741 129.787 17.1027 127.431C18.4313 125.076 19.5902 127.336 22.7746 130.441C25.9579 133.545 29.1995 134.617 31.9834 138.244C34.7667 141.869 35.6974 147.593 40.3085 151.723L58.6907 164.261C58.6907 164.261 67.2485 124.539 71.0037 119.863C74.949 114.947 92.1735 125.665 88.5725 141.301C84.9714 156.936 76.7979 184.059 71.1246 189.388C67.4547 192.835 59.7017 189.579 50.0329 180.979C42.397 174.188 31.923 163.947 27.561 160.369C23.199 156.792 13.9255 154.809 9.69645 152.317C5.1553 149.641 4.15842 148.084 2.41467 144.56C0.771964 141.239 1.50582 135.921 0.532381 133.913C-0.440536 131.904 -0.175952 128.967 2.12926 130.212Z" fill="#F6879F"/>
<path d="M85.2646 109.435C91.1506 113.123 91.449 118.484 91.7413 124.611C92.0105 130.251 90.8766 138.035 88.3845 145.728C85.8845 153.445 81.9235 167.544 81.9235 167.544C81.9235 167.544 66.5361 167.9 58.6189 161.06C58.6189 161.06 62.2303 145.868 64.7793 134.445C67.3277 123.021 70.4271 110.728 85.2646 109.435Z" fill="#353866"/>
<path d="M58.6909 164.261C62.8841 166.593 65.3471 171.608 66.119 173.588C66.119 173.588 65.9887 166.544 59.1221 162.217L58.6909 164.261Z" fill="#F47089"/>
<path d="M218.316 452.443L321.221 511.856V533.745L218.316 474.332V452.443Z" fill="#50549A"/>
<path d="M321.221 533.745L218.316 474.332V452.443L321.221 511.856V533.745ZM268.261 500.611C269.16 501.112 270.009 501.349 270.765 501.349C271.423 501.349 272.009 501.169 272.496 500.827C273.085 500.475 274.616 499.553 274.797 499.449C275.853 498.841 276.509 497.541 276.509 495.683C276.509 491.964 273.899 487.444 270.679 485.584C269.747 485.047 268.867 484.792 268.085 484.792C267.517 484.792 267.003 484.927 266.559 485.184C266.373 485.292 264.752 486.267 264.2 486.596C263.051 487.163 262.331 488.504 262.331 490.456C262.331 494.173 264.941 498.695 268.161 500.553C268.195 500.573 268.228 500.592 268.261 500.611Z" fill="#353866"/>
<path d="M424.127 452.443L321.221 511.856V533.745L424.127 474.332V452.443Z" fill="#50549A"/>
<path d="M321.221 533.745V511.856L424.127 452.443V474.332L321.221 533.745Z" fill="#6368C0"/>
<path d="M424.127 452.443L321.22 393.031L218.316 452.443L321.221 511.856L424.127 452.443Z" fill="#50549A"/>
<path d="M321.221 511.856V505.603L229.147 452.443H218.316L321.22 393.031L424.127 452.443L321.22 393.031L321.221 399.285L413.295 452.443H424.127L321.221 511.856Z" fill="#6368C0"/>
<path d="M321.221 511.856L218.316 452.443H229.147L321.221 505.603V511.856Z" fill="#50549A"/>
<path d="M424.127 452.443H413.295L321.221 399.285L321.22 393.031L424.127 452.443Z" fill="#50549A"/>
<path d="M424.127 452.444H413.295L321.221 505.603V511.856L424.127 452.444Z" fill="#50549A"/>
<path d="M321.22 393.031L321.221 399.285L229.147 452.444H218.316L321.22 393.031Z" fill="#50549A"/>
<path d="M321.593 426.699L365.812 452.229C369.12 454.139 369.12 457.236 365.812 459.147L332.832 478.188C329.523 480.097 324.159 480.097 320.849 478.188L276.631 452.657C273.323 450.748 273.323 447.651 276.631 445.74L309.611 426.699C312.919 424.789 318.283 424.789 321.593 426.699Z" fill="#4D4181"/>
<path d="M332.832 478.188L364.721 459.776L321.593 434.876C318.283 432.965 312.919 432.965 309.611 434.876L277.721 453.287L320.849 478.188C324.159 480.097 329.523 480.097 332.832 478.188Z" fill="#353866"/>
<path d="M294.895 452.481L314.237 441.313C314.875 440.944 315.911 440.944 316.548 441.309L318.929 442.676C319.567 443.043 319.568 443.639 318.929 444.007L299.587 455.176C298.949 455.544 297.915 455.545 297.276 455.179L294.896 453.812C294.257 453.444 294.257 452.849 294.895 452.481Z" fill="#6368C0"/>
<path d="M323.788 469.188L343.131 458.02C343.768 457.652 344.803 457.651 345.441 458.017L347.821 459.383C348.46 459.751 348.461 460.346 347.823 460.713L328.481 471.883C327.843 472.251 326.808 472.252 326.169 471.885L323.789 470.518C323.151 470.152 323.151 469.556 323.788 469.188Z" fill="#6368C0"/>
<path d="M276.509 495.683C276.509 491.964 273.899 487.444 270.679 485.584C269.068 484.655 267.613 484.572 266.559 485.184C266.347 485.308 264.251 486.568 264.035 486.694C262.984 487.303 262.332 488.603 262.332 490.456C262.332 494.173 264.941 498.695 268.161 500.553C269.775 501.485 271.231 501.567 272.285 500.952C272.496 500.829 274.584 499.572 274.797 499.449C275.853 498.841 276.509 497.541 276.509 495.683Z" fill="#50549A"/>
<path d="M270.765 501.349C270.009 501.349 269.16 501.112 268.261 500.611C269.157 501.11 270.003 501.347 270.755 501.347C271.324 501.347 271.84 501.211 272.285 500.952C272.317 500.934 272.392 500.889 272.496 500.827C272.009 501.17 271.423 501.349 270.765 501.349ZM268.161 500.553C264.941 498.695 262.331 494.173 262.331 490.456C262.331 488.504 263.051 487.163 264.2 486.596C264.12 486.644 264.061 486.679 264.035 486.694C262.984 487.303 262.332 488.603 262.332 490.456C262.332 494.173 264.941 498.695 268.161 500.553Z" fill="#088D7A"/>
<path d="M270.755 501.347C270.003 501.347 269.157 501.11 268.261 500.611C268.228 500.592 268.195 500.573 268.161 500.553C264.941 498.695 262.332 494.173 262.332 490.456C262.332 488.603 262.984 487.303 264.035 486.693C264.061 486.679 264.12 486.644 264.2 486.596C264.604 486.397 265.06 486.293 265.557 486.293C266.341 486.293 267.225 486.549 268.161 487.089C271.381 488.949 273.991 493.469 273.991 497.188C273.991 498.918 273.425 500.171 272.496 500.827C272.392 500.889 272.317 500.934 272.285 500.952C271.84 501.211 271.324 501.347 270.755 501.347Z" fill="#6368C0"/>
<path d="M200.509 529.682C193.795 529.682 187.08 528.171 181.848 525.152L113.584 485.739C108.097 482.571 105.077 478.199 105.077 473.428C105.077 468.659 108.098 464.287 113.584 461.118L192.68 415.452C201.345 410.449 208.668 397.769 208.668 387.763V137.456C208.668 135.983 209.861 134.789 211.335 134.789C212.807 134.789 214.001 135.983 214.001 137.456V387.763C214.001 399.84 205.807 414.033 195.347 420.072L116.251 465.739C112.484 467.913 110.41 470.644 110.41 473.428C110.41 476.213 112.484 478.944 116.251 481.118L184.515 520.532C193.331 525.622 207.677 525.623 216.492 520.536L266.828 491.491C268.105 490.753 269.735 491.192 270.471 492.467C271.207 493.743 270.769 495.375 269.495 496.111L219.159 525.156C213.929 528.172 207.22 529.682 200.509 529.682Z" fill="#4D4181"/>
<path d="M75.3115 13.6561C75.2391 13.2801 75.3131 12.9281 75.5344 12.6001C75.7568 12.2695 76.0563 12.0695 76.4323 11.9975L82.9251 10.7468C83.3036 10.6735 83.6552 10.7494 83.9812 10.9708C84.312 11.1934 84.5115 11.4935 84.5839 11.8695L88.8615 34.0734C88.9339 34.4508 88.8604 34.8028 88.6375 35.1294C88.4172 35.4588 88.1178 35.6575 87.7391 35.7308L81.247 36.9814C80.8708 37.0534 80.5178 36.9801 80.1907 36.7588C79.8615 36.5375 79.6626 36.2374 79.5896 35.8601L75.3115 13.6561ZM80.7213 41.7321C80.6495 41.3548 80.7214 41.0015 80.9438 40.6721C81.1662 40.3455 81.4662 40.1454 81.8427 40.0734L88.335 38.8228C88.7131 38.7495 89.0645 38.8255 89.3917 39.0441C89.7203 39.2668 89.9208 39.5668 89.9938 39.9441L90.9959 45.1468C91.0688 45.5254 90.9953 45.8788 90.7703 46.2041C90.5511 46.5348 90.2522 46.7334 89.8735 46.8054L83.3812 48.0561C83.0047 48.1295 82.6527 48.0561 82.3235 47.8321C81.9959 47.6135 81.7964 47.3135 81.7235 46.9348L80.7213 41.7321Z" fill="#50549A"/>
<path d="M50.8199 42.192C50.5642 41.9054 50.4471 41.5654 50.4679 41.1681C50.4903 40.7721 50.6428 40.4467 50.9288 40.192L55.8532 35.7814C56.1408 35.524 56.4824 35.4067 56.8762 35.4294C57.2731 35.448 57.5975 35.604 57.8532 35.8894L72.9392 52.7334C73.1966 53.0187 73.3147 53.36 73.2903 53.756C73.2699 54.1507 73.1163 54.4761 72.8288 54.7334L67.9043 59.144C67.6184 59.3987 67.2783 59.5161 66.8819 59.4961C66.4887 59.4734 66.1632 59.3214 65.9059 59.0321L50.8199 42.192ZM69.8955 63.488C69.6392 63.2027 69.5209 62.8614 69.5423 62.4654C69.5663 62.0681 69.7184 61.744 70.0043 61.4894L74.9288 57.0787C75.2174 56.8214 75.558 56.7027 75.9502 56.7254C76.348 56.748 76.6736 56.9 76.9294 57.1867L80.4647 61.1347C80.7226 61.4227 80.8397 61.7614 80.8163 62.1574C80.796 62.5507 80.6403 62.8774 80.3537 63.1347L75.4294 67.5454C75.1434 67.8014 74.8043 67.9187 74.408 67.8961C74.0127 67.8774 73.6871 67.7214 73.4304 67.4361L69.8955 63.488Z" fill="#50549A"/>
<path d="M74.5013 67.8986C74.4705 67.8986 74.4393 67.8986 74.4081 67.896C74.0128 67.8773 73.6872 67.7213 73.4305 67.436L69.8956 63.488C69.659 63.2253 69.5404 62.9146 69.5398 62.5573C69.5398 62.5266 69.5403 62.496 69.5423 62.4653C69.5663 62.068 69.7185 61.744 70.0044 61.4893L74.9289 57.0786C75.194 56.8413 75.5029 56.7226 75.856 56.7226C75.8872 56.7226 75.9185 56.724 75.9502 56.7253C76.3481 56.748 76.6737 56.9 76.9294 57.1866L80.4648 61.1346C80.7002 61.3973 80.8185 61.7026 80.8196 62.056C80.8196 62.0893 80.8185 62.124 80.8163 62.1573C80.7961 62.5506 80.6403 62.8773 80.3538 63.1346L75.4294 67.5453C75.1664 67.7813 74.8581 67.8986 74.5013 67.8986ZM66.9664 59.4986C66.9382 59.4986 66.9106 59.4973 66.882 59.496C66.4888 59.4733 66.1633 59.3213 65.906 59.032L50.82 42.192C50.5841 41.928 50.4664 41.6173 50.4653 41.26C50.4653 41.2293 50.4664 41.2 50.468 41.168C50.4904 40.772 50.6429 40.4466 50.9289 40.192L55.8533 35.7813C56.118 35.5453 56.4278 35.4266 56.782 35.4266C56.8133 35.4266 56.8445 35.4266 56.8762 35.4293C57.2732 35.4479 57.5976 35.604 57.8533 35.8893L72.9393 52.7333C73.1742 52.9946 73.2934 53.3013 73.2934 53.656C73.2934 53.6893 73.2924 53.7226 73.2904 53.756C73.27 54.1506 73.1164 54.476 72.8289 54.7333L67.9044 59.144C67.6388 59.38 67.3268 59.4986 66.9664 59.4986Z" fill="#6368C0"/>
</g>
<defs>
<clipPath id="clip0_105_683">
<rect width="613" height="587" fill="white"/>
</clipPath>
</defs>
</svg>
